<?xml version="1.0" ?><svg id="Layer_1" style="enable-background:new 0 0 24 24;" version="1.1" viewBox="0 0 24 24" xml:space="preserve" xmlns="http://www.w3.org/2000/svg" xmlns:xlink="http://www.w3.org/1999/xlink"><g id="XMLID_1_"><path d="M15,5c-0.351,0-0.698,0.035-1.042,0.086C13.745,2.801,11.84,1,9.5,1   C9.224,1,9,1.224,9,1.5v2C9,3.776,9.224,4,9.5,4c0.755,0,1.375,0.563,1.479,1.29C10.335,5.103,9.674,5,9,5c-4.411,0-8,4.038-8,9   s3.589,9,8,9h6c4.411,0,8-4.038,8-9S19.411,5,15,5z M5.063,12.742c-0.088-0.159-0.083-0.353,0.014-0.507l2.5-4   c0.183-0.292,0.665-0.292,0.848,0l2.5,4c0.097,0.154,0.102,0.349,0.014,0.507C10.849,12.901,10.682,13,10.5,13h-5   C5.318,13,5.151,12.901,5.063,12.742z M14.863,19.167l-0.054-0.369c-0.019-0.131-0.089-0.25-0.196-0.329   c-0.106-0.079-0.239-0.112-0.371-0.094l-1.979,0.288c-0.274,0.04-0.463,0.293-0.423,0.566L11.953,20   c-0.437-0.004-0.868-0.06-1.289-0.167l0.254-0.473c0.131-0.243,0.04-0.546-0.204-0.677l-1.761-0.948   c-0.116-0.063-0.254-0.076-0.38-0.039c-0.127,0.038-0.234,0.125-0.297,0.242l-0.187,0.347c-0.563-0.637-0.92-1.391-1.037-2.194   h9.905C16.772,17.33,16.013,18.444,14.863,19.167z M18.52,13c-0.006,0-0.013,0-0.02,0h-5c-0.182,0-0.349-0.099-0.438-0.258   c-0.088-0.159-0.083-0.353,0.014-0.507l2.5-4c0.183-0.292,0.665-0.292,0.848,0l2.438,3.899c0.098,0.091,0.159,0.222,0.159,0.366   C19.02,12.776,18.796,13,18.52,13z" id="XMLID_2_" style="fill:#303C42;"/></g><g/><g/><g/><g/><g/><g/><g/><g/><g/><g/><g/><g/><g/><g/><g/></svg>