<?xml version="1.0" ?><svg height="105px" version="1.1" viewBox="0 0 111 105" width="111px" xmlns="http://www.w3.org/2000/svg" xmlns:sketch="http://www.bohemiancoding.com/sketch/ns" xmlns:xlink="http://www.w3.org/1999/xlink"><title/><defs/><g fill="none" fill-rule="evenodd" id="Imoticon" stroke="none" stroke-width="1"><path d="M55,94 C78.1959606,94 97,75.1959606 97,52 C97,28.8040394 78.1959606,10 55,10 C31.8040394,10 13,28.8040394 13,52 C13,75.1959606 31.8040394,94 55,94 Z M54.8581048,60.9033203 C41.3683348,60.90332 35.5541993,58.6601565 35.5541993,58.6601565 C35.5541986,64.1168686 33.0323657,82.9757521 54.8581041,82.9757521 C76.6838426,82.9757521 74.3686506,63.8439968 74.3686506,58.6601565 C74.3686506,58.6601565 68.3478748,60.9033205 54.8581048,60.9033203 Z M22.5371094,51.8393558 C23.7993164,53.1713864 27.4853513,46.7732705 30.8808591,43.8168943 C34.2763669,40.8605183 38.8671881,39.8950195 38.2509762,38.2788085 C37.6347643,36.6625976 31.2041015,38.8950195 28.7109376,40.5717773 C26.2177739,42.2485352 21.2749024,50.507325 22.5371094,51.8393558 Z M87.2699643,51.8393558 C86.0077572,53.1713864 82.3217223,46.7732705 78.9262146,43.8168943 C75.5307068,40.8605183 70.9398855,39.8950195 71.5560974,38.2788085 C72.1723094,36.6625976 78.6029721,38.8950195 81.096136,40.5717773 C83.5892998,42.2485352 88.5321712,50.507325 87.2699643,51.8393558 Z M24.1019878,75.0034352 C27.9804862,76.4150932 32.2690048,74.4153241 33.6806628,70.5368257 C35.0923208,66.6583273 31.9665286,64.9884985 31.7591308,53.9656078 C25.0021798,62.4536829 21.0470363,61.5462619 19.6353784,65.4247603 C18.2237204,69.3032587 20.2234895,73.5917772 24.1019878,75.0034352 Z M85.6142204,75.0034352 C89.4927188,73.5917772 91.4924878,69.3032587 90.0808299,65.4247603 C88.6691719,61.5462619 85.2013309,62.2763193 77.9570774,53.9656078 C78.2369821,64.8111349 74.6238875,66.6583273 76.0355454,70.5368257 C77.4472034,74.4153241 81.735722,76.4150932 85.6142204,75.0034352 Z M27.9760742,52.5527344 C28.5515137,53.2036133 37.4178004,50.6610476 41.4814453,50.7817383 C44.7228134,50.8780072 48.9162598,53.8769531 49.8911133,53.2036133 C50.8659667,52.5302734 48.0683594,46.3564454 41.4814453,46.3564453 C32.3027344,46.3564452 27.4006348,51.9018555 27.9760742,52.5527344 Z M82.2134738,52.5527344 C81.6380343,53.2036133 72.7717476,50.6610476 68.7081027,50.7817383 C65.4667346,50.8780072 61.2732882,53.8769531 60.2984347,53.2036133 C59.3235813,52.5302734 62.1211886,46.3564454 68.7081027,46.3564453 C77.8868136,46.3564452 82.7889132,51.9018555 82.2134738,52.5527344 Z M82.2134738,52.5527344" fill="#000000" id="imoticon_23"/></g></svg>