<?xml version="1.0" ?><svg height="32" id="svg8" version="1.1" viewBox="0 0 8.4666665 8.4666669" width="32" xmlns="http://www.w3.org/2000/svg" xmlns:cc="http://creativecommons.org/ns#" xmlns:dc="http://purl.org/dc/elements/1.1/" xmlns:inkscape="http://www.inkscape.org/namespaces/inkscape" xmlns:rdf="http://www.w3.org/1999/02/22-rdf-syntax-ns#" xmlns:sodipodi="http://sodipodi.sourceforge.net/DTD/sodipodi-0.dtd" xmlns:svg="http://www.w3.org/2000/svg"><defs id="defs2"/><g id="layer1" transform="translate(0,-288.53332)"><path d="m 5.83856,290.17722 -0.43164,0.35938 -0.56055,0.18359 a 0.13230489,0.13230489 0 0 0 -0.0762,0.1875 l 0.0898,0.17383 -0.18359,0.28711 a 0.13230489,0.13230489 0 0 0 -0.006,0.13281 l 0.2207,0.41797 0.0312,0.48047 0.26367,-0.0176 -0.0332,-0.50781 a 0.13230489,0.13230489 0 0 0 -0.0156,-0.0547 l -0.19726,-0.37305 0.18359,-0.28711 a 0.13230489,0.13230489 0 0 0 0.006,-0.13086 l -0.0547,-0.10546 0.4375,-0.14258 a 0.13230489,0.13230489 0 0 0 0.0449,-0.0234 l 0.45117,-0.37695 z" id="path14086" style="color:#000000;font-style:normal;font-variant:normal;font-weight:normal;font-stretch:normal;font-size:medium;line-height:normal;font-family:sans-serif;font-variant-ligatures:normal;font-variant-position:normal;font-variant-caps:normal;font-variant-numeric:normal;font-variant-alternates:normal;font-feature-settings:normal;text-indent:0;text-align:start;text-decoration:none;text-decoration-line:none;text-decoration-style:solid;text-decoration-color:#000000;letter-spacing:normal;word-spacing:normal;text-transform:none;writing-mode:lr-tb;direction:ltr;text-orientation:mixed;dominant-baseline:auto;baseline-shift:baseline;text-anchor:start;white-space:normal;shape-padding:0;clip-rule:nonzero;display:inline;overflow:visible;visibility:visible;opacity:1;isolation:auto;mix-blend-mode:normal;color-interpolation:sRGB;color-interpolation-filters:linearRGB;solid-color:#000000;solid-opacity:1;vector-effect:none;fill:#000000;fill-opacity:1;fill-rule:nonzero;stroke:none;stroke-width:0.26458332px;stroke-linecap:butt;stroke-linejoin:round;stroke-miterlimit:4;stroke-dasharray:none;stroke-dashoffset:0;stroke-opacity:1;color-rendering:auto;image-rendering:auto;shape-rendering:auto;text-rendering:auto;enable-background:accumulate"/><path d="m 5.01043,292.24558 a 0.13230489,0.13230489 0 0 0 -0.0352,0.01 l -1.46289,0.63867 a 0.13230489,0.13230489 0 0 0 -0.0566,0.19726 c 0.29559,0.41551 0.47424,0.83086 0.6211,1.25391 a 0.13230489,0.13230489 0 0 0 0.17773,0.0781 l 0.40235,-0.17774 a 0.13247377,0.13247377 0 1 0 -0.10743,-0.24219 l -0.28711,0.12696 c -0.12651,-0.3467 -0.2902,-0.69732 -0.51953,-1.04883 l 1.3086,-0.57031 0.98828,0.0605 c 0.009,0.0776 0.0347,0.28492 0.0566,0.64063 0.0257,0.41537 0.0346,0.91585 -0.0176,1.2207 -0.0472,0.27582 -0.20754,0.7036 -0.35547,1.05274 -0.13127,0.30984 -0.22439,0.50013 -0.25,0.55273 -0.65631,0.10907 -1.34874,0.11879 -2.07812,0.0312 0.16001,-0.49175 0.29629,-0.96949 0.61132,-1.47266 a 0.13249448,0.13249448 0 1 0 -0.2246,-0.14062 c -0.37474,0.59852 -0.52738,1.15862 -0.70899,1.70508 a 0.13230489,0.13230489 0 0 0 0.10547,0.17187 c 0.85196,0.12431 1.64896,0.0965 2.4043,-0.0351 a 0.13230489,0.13230489 0 0 0 0.0957,-0.0723 c 0,0 0.138,-0.28017 0.28906,-0.63672 0.15107,-0.35655 0.31728,-0.78548 0.37305,-1.11133 0.0607,-0.35488 0.0457,-0.85784 0.0195,-1.28125 -0.0262,-0.4234 -0.0664,-0.76367 -0.0664,-0.76367 a 0.13230489,0.13230489 0 0 0 -0.12304,-0.11719 l -1.13477,-0.0703 a 0.13230489,0.13230489 0 0 0 -0.0254,0 z" id="path14088" style="color:#000000;font-style:normal;font-variant:normal;font-weight:normal;font-stretch:normal;font-size:medium;line-height:normal;font-family:sans-serif;font-variant-ligatures:normal;font-variant-position:normal;font-variant-caps:normal;font-variant-numeric:normal;font-variant-alternates:normal;font-feature-settings:normal;text-indent:0;text-align:start;text-decoration:none;text-decoration-line:none;text-decoration-style:solid;text-decoration-color:#000000;letter-spacing:normal;word-spacing:normal;text-transform:none;writing-mode:lr-tb;direction:ltr;text-orientation:mixed;dominant-baseline:auto;baseline-shift:baseline;text-anchor:start;white-space:normal;shape-padding:0;clip-rule:nonzero;display:inline;overflow:visible;visibility:visible;opacity:1;isolation:auto;mix-blend-mode:normal;color-interpolation:sRGB;color-interpolation-filters:linearRGB;solid-color:#000000;solid-opacity:1;vector-effect:none;fill:#000000;fill-opacity:1;fill-rule:nonzero;stroke:none;stroke-width:0.26458332px;stroke-linecap:round;stroke-linejoin:round;stroke-miterlimit:4;stroke-dasharray:none;stroke-dashoffset:0;stroke-opacity:1;color-rendering:auto;image-rendering:auto;shape-rendering:auto;text-rendering:auto;enable-background:accumulate"/><path d="m 2.74871,290.55613 c -0.17511,-0.0204 -0.34671,-0.0154 -0.50195,0.0527 -0.15524,0.0682 -0.28341,0.2046 -0.35547,0.40039 a 0.13230489,0.13230489 0 0 0 0,0.0937 l 0.25781,0.67578 c -0.0256,0.0632 -0.23503,0.57806 -0.3125,0.90821 -0.0953,0.40597 -0.15429,1.17969 -0.15429,1.17969 a 0.13230489,0.13230489 0 0 0 0.0879,0.13476 c 0,0 0.72218,0.2676 1.15039,0.30859 0.43261,0.0415 1.20312,-0.084 1.20312,-0.084 l -0.041,-0.26172 c 0,0 -0.79161,0.11512 -1.13672,0.082 -0.30935,-0.0296 -0.87069,-0.22587 -0.98633,-0.26562 0.0106,-0.12445 0.0596,-0.71291 0.13477,-1.03321 0.0698,-0.29771 0.31835,-0.92382 0.31835,-0.92382 a 0.13230489,0.13230489 0 0 0 0.002,-0.0977 l -0.25,-0.6543 c 0.0499,-0.11085 0.10674,-0.18523 0.1875,-0.2207 0.071,-0.0312 0.17647,-0.0274 0.2832,-0.0234 l 0.19727,0.69922 -0.13868,1.58789 a 0.13230489,0.13230489 0 0 0 0.11719,0.14258 l 0.89258,0.10156 0.0293,-0.26367 -0.76563,-0.0859 0.13086,-1.48242 a 0.13230489,0.13230489 0 0 0 -0.004,-0.0488 L 2.86,290.65177 a 0.13230489,0.13230489 0 0 0 -0.11133,-0.0957 z" id="path14090" style="color:#000000;font-style:normal;font-variant:normal;font-weight:normal;font-stretch:normal;font-size:medium;line-height:normal;font-family:sans-serif;font-variant-ligatures:normal;font-variant-position:normal;font-variant-caps:normal;font-variant-numeric:normal;font-variant-alternates:normal;font-feature-settings:normal;text-indent:0;text-align:start;text-decoration:none;text-decoration-line:none;text-decoration-style:solid;text-decoration-color:#000000;letter-spacing:normal;word-spacing:normal;text-transform:none;writing-mode:lr-tb;direction:ltr;text-orientation:mixed;dominant-baseline:auto;baseline-shift:baseline;text-anchor:start;white-space:normal;shape-padding:0;clip-rule:nonzero;display:inline;overflow:visible;visibility:visible;opacity:1;isolation:auto;mix-blend-mode:normal;color-interpolation:sRGB;color-interpolation-filters:linearRGB;solid-color:#000000;solid-opacity:1;vector-effect:none;fill:#000000;fill-opacity:1;fill-rule:nonzero;stroke:none;stroke-width:0.26458332px;stroke-linecap:butt;stroke-linejoin:round;stroke-miterlimit:4;stroke-dasharray:none;stroke-dashoffset:0;stroke-opacity:1;color-rendering:auto;image-rendering:auto;shape-rendering:auto;text-rendering:auto;enable-background:accumulate"/><path d="m 3.5241,289.80418 c 0,0 -0.22246,0.0182 -0.49609,0.0566 -0.27363,0.0385 -0.59472,0.0948 -0.82031,0.1875 -0.32719,0.13449 -0.71763,0.29967 -0.93164,0.64453 -0.0814,0.13116 -0.15397,0.29291 -0.1875,0.46289 -0.0335,0.16998 -0.0272,0.35613 0.0723,0.51367 0.13437,0.21294 0.40107,0.27224 0.62891,0.31445 0.22784,0.0422 0.43164,0.0469 0.43164,0.0469 l 0.006,-0.26367 c 0,0 -0.18498,-0.005 -0.38867,-0.043 -0.2037,-0.0377 -0.41189,-0.12882 -0.45508,-0.19727 -0.0506,-0.0801 -0.0605,-0.19191 -0.0352,-0.32031 0.0253,-0.1284 0.0856,-0.26542 0.15234,-0.37305 0.15561,-0.25074 0.48551,-0.40901 0.80665,-0.54101 0.17481,-0.0719 0.49279,-0.13266 0.75781,-0.16993 0.26502,-0.0373 0.48047,-0.0547 0.48047,-0.0547 z" id="path14092" style="color:#000000;font-style:normal;font-variant:normal;font-weight:normal;font-stretch:normal;font-size:medium;line-height:normal;font-family:sans-serif;font-variant-ligatures:normal;font-variant-position:normal;font-variant-caps:normal;font-variant-numeric:normal;font-variant-alternates:normal;font-feature-settings:normal;text-indent:0;text-align:start;text-decoration:none;text-decoration-line:none;text-decoration-style:solid;text-decoration-color:#000000;letter-spacing:normal;word-spacing:normal;text-transform:none;writing-mode:lr-tb;direction:ltr;text-orientation:mixed;dominant-baseline:auto;baseline-shift:baseline;text-anchor:start;white-space:normal;shape-padding:0;clip-rule:nonzero;display:inline;overflow:visible;visibility:visible;opacity:1;isolation:auto;mix-blend-mode:normal;color-interpolation:sRGB;color-interpolation-filters:linearRGB;solid-color:#000000;solid-opacity:1;vector-effect:none;fill:#000000;fill-opacity:1;fill-rule:nonzero;stroke:none;stroke-width:0.26458332px;stroke-linecap:butt;stroke-linejoin:miter;stroke-miterlimit:4;stroke-dasharray:none;stroke-dashoffset:0;stroke-opacity:1;color-rendering:auto;image-rendering:auto;shape-rendering:auto;text-rendering:auto;enable-background:accumulate"/><path d="m 4.10418,289.12058 c -0.15988,-0.008 -0.31788,0.0519 -0.44922,0.14649 -0.13134,0.0946 -0.24184,0.22932 -0.26367,0.39843 -0.0244,0.18882 0.0529,0.37439 0.16992,0.52344 0.11707,0.14905 0.28267,0.2683 0.47656,0.2793 0.19363,0.011 0.36883,-0.0881 0.50196,-0.22266 0.13313,-0.1346 0.22998,-0.31157 0.22656,-0.50195 -0.004,-0.17303 -0.0996,-0.32066 -0.22266,-0.42969 -0.123,-0.10903 -0.27756,-0.18509 -0.43945,-0.19336 z m -0.0137,0.26367 c 0.081,0.004 0.19385,0.0529 0.27734,0.12696 0.0835,0.074 0.13331,0.16825 0.13477,0.23828 0.002,0.0879 -0.0564,0.2136 -0.15039,0.30859 -0.094,0.095 -0.21641,0.15128 -0.30078,0.14649 -0.0847,-0.005 -0.19857,-0.0744 -0.28125,-0.17969 -0.0827,-0.10527 -0.12658,-0.23844 -0.11524,-0.32617 0.009,-0.0679 0.0657,-0.15297 0.1543,-0.2168 0.0886,-0.0638 0.2023,-0.10168 0.28125,-0.0977 z" id="path14094" style="color:#000000;font-style:normal;font-variant:normal;font-weight:normal;font-stretch:normal;font-size:medium;line-height:normal;font-family:sans-serif;font-variant-ligatures:normal;font-variant-position:normal;font-variant-caps:normal;font-variant-numeric:normal;font-variant-alternates:normal;font-feature-settings:normal;text-indent:0;text-align:start;text-decoration:none;text-decoration-line:none;text-decoration-style:solid;text-decoration-color:#000000;letter-spacing:normal;word-spacing:normal;text-transform:none;writing-mode:lr-tb;direction:ltr;text-orientation:mixed;dominant-baseline:auto;baseline-shift:baseline;text-anchor:start;white-space:normal;shape-padding:0;clip-rule:nonzero;display:inline;overflow:visible;visibility:visible;opacity:1;isolation:auto;mix-blend-mode:normal;color-interpolation:sRGB;color-interpolation-filters:linearRGB;solid-color:#000000;solid-opacity:1;vector-effect:none;fill:#000000;fill-opacity:1;fill-rule:nonzero;stroke:none;stroke-width:0.26458332px;stroke-linecap:butt;stroke-linejoin:miter;stroke-miterlimit:4;stroke-dasharray:none;stroke-dashoffset:0;stroke-opacity:1;color-rendering:auto;image-rendering:auto;shape-rendering:auto;text-rendering:auto;enable-background:accumulate"/><path d="m 3.90496,290.32761 c 0,0 -0.27073,0.4584 -0.41992,0.61914 -0.1386,0.14934 -0.55078,0.43555 -0.55078,0.43555 l 0.14844,0.21875 c 0,0 0.4027,-0.26665 0.5957,-0.47461 0.20359,-0.21936 0.45508,-0.66601 0.45508,-0.66602 z" id="path14096" style="color:#000000;font-style:normal;font-variant:normal;font-weight:normal;font-stretch:normal;font-size:medium;line-height:normal;font-family:sans-serif;font-variant-ligatures:normal;font-variant-position:normal;font-variant-caps:normal;font-variant-numeric:normal;font-variant-alternates:normal;font-feature-settings:normal;text-indent:0;text-align:start;text-decoration:none;text-decoration-line:none;text-decoration-style:solid;text-decoration-color:#000000;letter-spacing:normal;word-spacing:normal;text-transform:none;writing-mode:lr-tb;direction:ltr;text-orientation:mixed;dominant-baseline:auto;baseline-shift:baseline;text-anchor:start;white-space:normal;shape-padding:0;clip-rule:nonzero;display:inline;overflow:visible;visibility:visible;opacity:1;isolation:auto;mix-blend-mode:normal;color-interpolation:sRGB;color-interpolation-filters:linearRGB;solid-color:#000000;solid-opacity:1;vector-effect:none;fill:#000000;fill-opacity:1;fill-rule:nonzero;stroke:none;stroke-width:0.26458332px;stroke-linecap:butt;stroke-linejoin:miter;stroke-miterlimit:4;stroke-dasharray:none;stroke-dashoffset:0;stroke-opacity:1;color-rendering:auto;image-rendering:auto;shape-rendering:auto;text-rendering:auto;enable-background:accumulate"/><path d="M 4.6159,289.51902 A 0.13230489,0.13230489 0 0 0 4.53,289.74949 c 0,0 0.0258,0.0227 0.0586,0.0488 0.0328,0.0261 0.066,0.0576 0.13086,0.0781 0.0647,0.0204 0.11073,0.0142 0.15234,0.0117 0.0416,-0.002 0.0762,-0.008 0.0762,-0.008 a 0.13231229,0.13231229 0 1 0 -0.0391,-0.26172 c 0,0 -0.0236,0.004 -0.0527,0.006 -0.0291,0.002 -0.0679,-0.004 -0.0566,0 0.0109,0.003 -0.0238,-0.0148 -0.0469,-0.0332 -0.0231,-0.0183 -0.041,-0.0351 -0.041,-0.0351 a 0.13230489,0.13230489 0 0 0 -0.0957,-0.0371 z" id="path14098" style="color:#000000;font-style:normal;font-variant:normal;font-weight:normal;font-stretch:normal;font-size:medium;line-height:normal;font-family:sans-serif;font-variant-ligatures:normal;font-variant-position:normal;font-variant-caps:normal;font-variant-numeric:normal;font-variant-alternates:normal;font-feature-settings:normal;text-indent:0;text-align:start;text-decoration:none;text-decoration-line:none;text-decoration-style:solid;text-decoration-color:#000000;letter-spacing:normal;word-spacing:normal;text-transform:none;writing-mode:lr-tb;direction:ltr;text-orientation:mixed;dominant-baseline:auto;baseline-shift:baseline;text-anchor:start;white-space:normal;shape-padding:0;clip-rule:nonzero;display:inline;overflow:visible;visibility:visible;opacity:1;isolation:auto;mix-blend-mode:normal;color-interpolation:sRGB;color-interpolation-filters:linearRGB;solid-color:#000000;solid-opacity:1;vector-effect:none;fill:#000000;fill-opacity:1;fill-rule:nonzero;stroke:none;stroke-width:0.26458332px;stroke-linecap:round;stroke-linejoin:round;stroke-miterlimit:4;stroke-dasharray:none;stroke-dashoffset:0;stroke-opacity:1;color-rendering:auto;image-rendering:auto;shape-rendering:auto;text-rendering:auto;enable-background:accumulate"/><path d="m 5.93816,289.82957 a 0.13230489,0.13230489 0 0 0 -0.13281,0.13085 l -0.0117,0.9629 a 0.13230489,0.13230489 0 0 0 0.10547,0.13086 c 0,0 0.0663,0.0142 0.13086,0.0547 0.0646,0.0405 0.11183,0.087 0.11133,0.18164 -3e-4,0.0819 -0.0381,0.11669 -0.0957,0.15039 -0.0575,0.0337 -0.11914,0.0449 -0.11914,0.0449 a 0.13230489,0.13230489 0 0 0 -0.10938,0.13086 v 0.25976 a 0.13230489,0.13230489 0 0 0 0.0703,0.11524 c 0,0 0.1105,0.0589 0.25,0.11132 0.1395,0.0524 0.3028,0.11062 0.46875,0.0762 0.29161,-0.0605 0.53779,-0.27707 0.66602,-0.53321 0.13583,-0.27135 0.18176,-0.6314 0.0273,-0.91992 -0.10546,-0.19703 -0.29179,-0.29889 -0.46875,-0.37695 -0.17695,-0.0781 -0.35265,-0.13728 -0.47461,-0.22266 -0.1063,-0.0744 -0.33398,-0.26562 -0.33398,-0.26562 a 0.13230489,0.13230489 0 0 0 -0.084,-0.0312 z m 0.12891,0.40429 c 0.0599,0.048 0.0851,0.0733 0.13672,0.10938 0.16755,0.1173 0.36084,0.17718 0.52148,0.24804 0.16065,0.0709 0.28049,0.14523 0.3418,0.25977 0.0965,0.1803 0.0709,0.47165 -0.0312,0.67578 -0.0921,0.18388 -0.29223,0.35506 -0.48242,0.39453 -0.0475,0.01 -0.19997,-0.0205 -0.32227,-0.0664 -0.0823,-0.0309 -0.11064,-0.046 -0.14843,-0.0645 v -0.0859 c 0.0374,-0.0119 0.0474,-0.007 0.0957,-0.0352 0.10458,-0.0612 0.22782,-0.18921 0.22852,-0.37695 10e-4,-0.19962 -0.12638,-0.3373 -0.23633,-0.40625 -0.056,-0.0351 -0.0702,-0.033 -0.11133,-0.0469 z" id="path14100" style="color:#000000;font-style:normal;font-variant:normal;font-weight:normal;font-stretch:normal;font-size:medium;line-height:normal;font-family:sans-serif;font-variant-ligatures:normal;font-variant-position:normal;font-variant-caps:normal;font-variant-numeric:normal;font-variant-alternates:normal;font-feature-settings:normal;text-indent:0;text-align:start;text-decoration:none;text-decoration-line:none;text-decoration-style:solid;text-decoration-color:#000000;letter-spacing:normal;word-spacing:normal;text-transform:none;writing-mode:lr-tb;direction:ltr;text-orientation:mixed;dominant-baseline:auto;baseline-shift:baseline;text-anchor:start;white-space:normal;shape-padding:0;clip-rule:nonzero;display:inline;overflow:visible;visibility:visible;opacity:1;isolation:auto;mix-blend-mode:normal;color-interpolation:sRGB;color-interpolation-filters:linearRGB;solid-color:#000000;solid-opacity:1;vector-effect:none;fill:#000000;fill-opacity:1;fill-rule:nonzero;stroke:none;stroke-width:0.26458332px;stroke-linecap:butt;stroke-linejoin:round;stroke-miterlimit:4;stroke-dasharray:none;stroke-dashoffset:0;stroke-opacity:1;color-rendering:auto;image-rendering:auto;shape-rendering:auto;text-rendering:auto;enable-background:accumulate"/><path d="m 6.03973,291.93113 -0.19531,0.42969 0.24023,0.11132 0.19727,-0.42968 z" id="path14102" style="color:#000000;font-style:normal;font-variant:normal;font-weight:normal;font-stretch:normal;font-size:medium;line-height:normal;font-family:sans-serif;font-variant-ligatures:normal;font-variant-position:normal;font-variant-caps:normal;font-variant-numeric:normal;font-variant-alternates:normal;font-feature-settings:normal;text-indent:0;text-align:start;text-decoration:none;text-decoration-line:none;text-decoration-style:solid;text-decoration-color:#000000;letter-spacing:normal;word-spacing:normal;text-transform:none;writing-mode:lr-tb;direction:ltr;text-orientation:mixed;dominant-baseline:auto;baseline-shift:baseline;text-anchor:start;white-space:normal;shape-padding:0;clip-rule:nonzero;display:inline;overflow:visible;visibility:visible;opacity:1;isolation:auto;mix-blend-mode:normal;color-interpolation:sRGB;color-interpolation-filters:linearRGB;solid-color:#000000;solid-opacity:1;vector-effect:none;fill:#000000;fill-opacity:1;fill-rule:nonzero;stroke:none;stroke-width:0.26458332px;stroke-linecap:butt;stroke-linejoin:miter;stroke-miterlimit:4;stroke-dasharray:none;stroke-dashoffset:0;stroke-opacity:1;color-rendering:auto;image-rendering:auto;shape-rendering:auto;text-rendering:auto;enable-background:accumulate"/><path d="M 3.6452,295.82371 A 0.06615245,0.06615245 0 0 0 3.61,295.94089 l 0.10156,0.084 a 0.06665656,0.06665656 0 1 0 0.084,-0.10352 l -0.10157,-0.082 a 0.06615245,0.06615245 0 0 0 -0.0488,-0.0156 z" id="path14104" style="color:#000000;font-style:normal;font-variant:normal;font-weight:normal;font-stretch:normal;font-size:medium;line-height:normal;font-family:sans-serif;font-variant-ligatures:normal;font-variant-position:normal;font-variant-caps:normal;font-variant-numeric:normal;font-variant-alternates:normal;font-feature-settings:normal;text-indent:0;text-align:start;text-decoration:none;text-decoration-line:none;text-decoration-style:solid;text-decoration-color:#000000;letter-spacing:normal;word-spacing:normal;text-transform:none;writing-mode:lr-tb;direction:ltr;text-orientation:mixed;dominant-baseline:auto;baseline-shift:baseline;text-anchor:start;white-space:normal;shape-padding:0;clip-rule:nonzero;display:inline;overflow:visible;visibility:visible;opacity:1;isolation:auto;mix-blend-mode:normal;color-interpolation:sRGB;color-interpolation-filters:linearRGB;solid-color:#000000;solid-opacity:1;vector-effect:none;fill:#000000;fill-opacity:1;fill-rule:nonzero;stroke:none;stroke-width:0.13229167;stroke-linecap:round;stroke-linejoin:round;stroke-miterlimit:4;stroke-dasharray:none;stroke-dashoffset:0;stroke-opacity:1;color-rendering:auto;image-rendering:auto;shape-rendering:auto;text-rendering:auto;enable-background:accumulate"/><path d="m 3.73309,295.61082 a 0.06615245,0.06615245 0 0 0 -0.0332,0.11914 l 0.27539,0.2207 a 0.06615245,0.06615245 0 1 0 0.082,-0.10352 l -0.27344,-0.2207 a 0.06615245,0.06615245 0 0 0 -0.0508,-0.0156 z" id="path14106" style="color:#000000;font-style:normal;font-variant:normal;font-weight:normal;font-stretch:normal;font-size:medium;line-height:normal;font-family:sans-serif;font-variant-ligatures:normal;font-variant-position:normal;font-variant-caps:normal;font-variant-numeric:normal;font-variant-alternates:normal;font-feature-settings:normal;text-indent:0;text-align:start;text-decoration:none;text-decoration-line:none;text-decoration-style:solid;text-decoration-color:#000000;letter-spacing:normal;word-spacing:normal;text-transform:none;writing-mode:lr-tb;direction:ltr;text-orientation:mixed;dominant-baseline:auto;baseline-shift:baseline;text-anchor:start;white-space:normal;shape-padding:0;clip-rule:nonzero;display:inline;overflow:visible;visibility:visible;opacity:1;isolation:auto;mix-blend-mode:normal;color-interpolation:sRGB;color-interpolation-filters:linearRGB;solid-color:#000000;solid-opacity:1;vector-effect:none;fill:#000000;fill-opacity:1;fill-rule:nonzero;stroke:none;stroke-width:0.13229167;stroke-linecap:round;stroke-linejoin:round;stroke-miterlimit:4;stroke-dasharray:none;stroke-dashoffset:0;stroke-opacity:1;color-rendering:auto;image-rendering:auto;shape-rendering:auto;text-rendering:auto;enable-background:accumulate"/><path d="m 3.81902,295.41355 a 0.06615245,0.06615245 0 0 0 -0.0332,0.11719 l 0.41602,0.33984 a 0.06615245,0.06615245 0 0 0 0.084,-0.10156 l -0.41601,-0.33984 a 0.06615245,0.06615245 0 0 0 -0.0508,-0.0156 z" id="path14108" style="color:#000000;font-style:normal;font-variant:normal;font-weight:normal;font-stretch:normal;font-size:medium;line-height:normal;font-family:sans-serif;font-variant-ligatures:normal;font-variant-position:normal;font-variant-caps:normal;font-variant-numeric:normal;font-variant-alternates:normal;font-feature-settings:normal;text-indent:0;text-align:start;text-decoration:none;text-decoration-line:none;text-decoration-style:solid;text-decoration-color:#000000;letter-spacing:normal;word-spacing:normal;text-transform:none;writing-mode:lr-tb;direction:ltr;text-orientation:mixed;dominant-baseline:auto;baseline-shift:baseline;text-anchor:start;white-space:normal;shape-padding:0;clip-rule:nonzero;display:inline;overflow:visible;visibility:visible;opacity:1;isolation:auto;mix-blend-mode:normal;color-interpolation:sRGB;color-interpolation-filters:linearRGB;solid-color:#000000;solid-opacity:1;vector-effect:none;fill:#000000;fill-opacity:1;fill-rule:nonzero;stroke:none;stroke-width:0.13229167;stroke-linecap:round;stroke-linejoin:round;stroke-miterlimit:4;stroke-dasharray:none;stroke-dashoffset:0;stroke-opacity:1;color-rendering:auto;image-rendering:auto;shape-rendering:auto;text-rendering:auto;enable-background:accumulate"/><path d="m 5.76629,292.87644 a 0.06615245,0.06615245 0 0 0 -0.0508,0.0723 c 0,0 0.0471,0.49105 0.0488,0.72851 0.002,0.20924 0.006,0.4165 -0.0312,0.61328 -0.033,0.17584 -0.17969,0.54883 -0.17969,0.54883 a 0.06615245,0.06615245 0 1 0 0.12109,0.0488 c 0,0 0.1481,-0.36226 0.1875,-0.57227 0.04,-0.21414 0.0372,-0.42984 0.0352,-0.63867 -0.002,-0.25352 -0.0508,-0.74023 -0.0508,-0.74023 a 0.06615245,0.06615245 0 0 0 -0.0801,-0.0605 z" id="path14110" style="color:#000000;font-style:normal;font-variant:normal;font-weight:normal;font-stretch:normal;font-size:medium;line-height:normal;font-family:sans-serif;font-variant-ligatures:normal;font-variant-position:normal;font-variant-caps:normal;font-variant-numeric:normal;font-variant-alternates:normal;font-feature-settings:normal;text-indent:0;text-align:start;text-decoration:none;text-decoration-line:none;text-decoration-style:solid;text-decoration-color:#000000;letter-spacing:normal;word-spacing:normal;text-transform:none;writing-mode:lr-tb;direction:ltr;text-orientation:mixed;dominant-baseline:auto;baseline-shift:baseline;text-anchor:start;white-space:normal;shape-padding:0;clip-rule:nonzero;display:inline;overflow:visible;visibility:visible;opacity:1;isolation:auto;mix-blend-mode:normal;color-interpolation:sRGB;color-interpolation-filters:linearRGB;solid-color:#000000;solid-opacity:1;vector-effect:none;fill:#000000;fill-opacity:1;fill-rule:nonzero;stroke:none;stroke-width:0.13229167;stroke-linecap:round;stroke-linejoin:round;stroke-miterlimit:4;stroke-dasharray:none;stroke-dashoffset:0;stroke-opacity:1;color-rendering:auto;image-rendering:auto;shape-rendering:auto;text-rendering:auto;enable-background:accumulate"/><path d="m 2.20574,293.41355 a 0.06615245,0.06615245 0 0 0 -0.0644,0.0742 l 0.0117,0.14453 a 0.06615245,0.06615245 0 0 0 0.0508,0.0586 l 0.1875,0.043 a 0.06615245,0.06615245 0 1 0 0.0312,-0.12695 l -0.14258,-0.0352 -0.008,-0.0957 a 0.06615245,0.06615245 0 0 0 -0.0664,-0.0625 z" id="path14112" style="color:#000000;font-style:normal;font-variant:normal;font-weight:normal;font-stretch:normal;font-size:medium;line-height:normal;font-family:sans-serif;font-variant-ligatures:normal;font-variant-position:normal;font-variant-caps:normal;font-variant-numeric:normal;font-variant-alternates:normal;font-feature-settings:normal;text-indent:0;text-align:start;text-decoration:none;text-decoration-line:none;text-decoration-style:solid;text-decoration-color:#000000;letter-spacing:normal;word-spacing:normal;text-transform:none;writing-mode:lr-tb;direction:ltr;text-orientation:mixed;dominant-baseline:auto;baseline-shift:baseline;text-anchor:start;white-space:normal;shape-padding:0;clip-rule:nonzero;display:inline;overflow:visible;visibility:visible;opacity:1;isolation:auto;mix-blend-mode:normal;color-interpolation:sRGB;color-interpolation-filters:linearRGB;solid-color:#000000;solid-opacity:1;vector-effect:none;fill:#000000;fill-opacity:1;fill-rule:nonzero;stroke:none;stroke-width:0.13229167;stroke-linecap:round;stroke-linejoin:round;stroke-miterlimit:4;stroke-dasharray:none;stroke-dashoffset:0;stroke-opacity:1;color-rendering:auto;image-rendering:auto;shape-rendering:auto;text-rendering:auto;enable-background:accumulate"/><path d="m 6.62371,290.65574 a 0.06615245,0.06615245 0 0 0 -0.0137,0.1289 l 0.13281,0.0508 a 0.06675442,0.06675442 0 1 0 0.0469,-0.125 l -0.13281,-0.0508 a 0.06615245,0.06615245 0 0 0 -0.0332,-0.004 z" id="path14114" style="color:#000000;font-style:normal;font-variant:normal;font-weight:normal;font-stretch:normal;font-size:medium;line-height:normal;font-family:sans-serif;font-variant-ligatures:normal;font-variant-position:normal;font-variant-caps:normal;font-variant-numeric:normal;font-variant-alternates:normal;font-feature-settings:normal;text-indent:0;text-align:start;text-decoration:none;text-decoration-line:none;text-decoration-style:solid;text-decoration-color:#000000;letter-spacing:normal;word-spacing:normal;text-transform:none;writing-mode:lr-tb;direction:ltr;text-orientation:mixed;dominant-baseline:auto;baseline-shift:baseline;text-anchor:start;white-space:normal;shape-padding:0;clip-rule:nonzero;display:inline;overflow:visible;visibility:visible;opacity:1;isolation:auto;mix-blend-mode:normal;color-interpolation:sRGB;color-interpolation-filters:linearRGB;solid-color:#000000;solid-opacity:1;vector-effect:none;fill:#000000;fill-opacity:1;fill-rule:nonzero;stroke:none;stroke-width:0.13229167;stroke-linecap:round;stroke-linejoin:round;stroke-miterlimit:4;stroke-dasharray:none;stroke-dashoffset:0;stroke-opacity:1;color-rendering:auto;image-rendering:auto;shape-rendering:auto;text-rendering:auto;enable-background:accumulate"/><path d="m 6.72332,290.9155 a 0.06615245,0.06615245 0 0 0 -0.0117,0.13086 l 0.22266,0.0645 a 0.06615245,0.06615245 0 1 0 0.0371,-0.12696 l -0.22266,-0.0645 a 0.06615245,0.06615245 0 0 0 -0.0254,-0.004 z" id="path14116" style="color:#000000;font-style:normal;font-variant:normal;font-weight:normal;font-stretch:normal;font-size:medium;line-height:normal;font-family:sans-serif;font-variant-ligatures:normal;font-variant-position:normal;font-variant-caps:normal;font-variant-numeric:normal;font-variant-alternates:normal;font-feature-settings:normal;text-indent:0;text-align:start;text-decoration:none;text-decoration-line:none;text-decoration-style:solid;text-decoration-color:#000000;letter-spacing:normal;word-spacing:normal;text-transform:none;writing-mode:lr-tb;direction:ltr;text-orientation:mixed;dominant-baseline:auto;baseline-shift:baseline;text-anchor:start;white-space:normal;shape-padding:0;clip-rule:nonzero;display:inline;overflow:visible;visibility:visible;opacity:1;isolation:auto;mix-blend-mode:normal;color-interpolation:sRGB;color-interpolation-filters:linearRGB;solid-color:#000000;solid-opacity:1;vector-effect:none;fill:#000000;fill-opacity:1;fill-rule:nonzero;stroke:none;stroke-width:0.13229167;stroke-linecap:round;stroke-linejoin:round;stroke-miterlimit:4;stroke-dasharray:none;stroke-dashoffset:0;stroke-opacity:1;color-rendering:auto;image-rendering:auto;shape-rendering:auto;text-rendering:auto;enable-background:accumulate"/><path d="m 6.73113,291.1323 a 0.06615245,0.06615245 0 0 0 -0.01,0.12891 l 0.20508,0.0664 a 0.06615245,0.06615245 0 1 0 0.041,-0.125 l -0.20312,-0.0684 a 0.06615245,0.06615245 0 0 0 -0.0332,-0.002 z" id="path14118" style="color:#000000;font-style:normal;font-variant:normal;font-weight:normal;font-stretch:normal;font-size:medium;line-height:normal;font-family:sans-serif;font-variant-ligatures:normal;font-variant-position:normal;font-variant-caps:normal;font-variant-numeric:normal;font-variant-alternates:normal;font-feature-settings:normal;text-indent:0;text-align:start;text-decoration:none;text-decoration-line:none;text-decoration-style:solid;text-decoration-color:#000000;letter-spacing:normal;word-spacing:normal;text-transform:none;writing-mode:lr-tb;direction:ltr;text-orientation:mixed;dominant-baseline:auto;baseline-shift:baseline;text-anchor:start;white-space:normal;shape-padding:0;clip-rule:nonzero;display:inline;overflow:visible;visibility:visible;opacity:1;isolation:auto;mix-blend-mode:normal;color-interpolation:sRGB;color-interpolation-filters:linearRGB;solid-color:#000000;solid-opacity:1;vector-effect:none;fill:#000000;fill-opacity:1;fill-rule:nonzero;stroke:none;stroke-width:0.13229167;stroke-linecap:round;stroke-linejoin:round;stroke-miterlimit:4;stroke-dasharray:none;stroke-dashoffset:0;stroke-opacity:1;color-rendering:auto;image-rendering:auto;shape-rendering:auto;text-rendering:auto;enable-background:accumulate"/><path d="m 6.67645,291.33542 a 0.06615245,0.06615245 0 0 0 -0.0117,0.12696 l 0.16992,0.0703 a 0.06615245,0.06615245 0 1 0 0.0508,-0.12109 l -0.16992,-0.0703 a 0.06615245,0.06615245 0 0 0 -0.0391,-0.006 z" id="path14120" style="color:#000000;font-style:normal;font-variant:normal;font-weight:normal;font-stretch:normal;font-size:medium;line-height:normal;font-family:sans-serif;font-variant-ligatures:normal;font-variant-position:normal;font-variant-caps:normal;font-variant-numeric:normal;font-variant-alternates:normal;font-feature-settings:normal;text-indent:0;text-align:start;text-decoration:none;text-decoration-line:none;text-decoration-style:solid;text-decoration-color:#000000;letter-spacing:normal;word-spacing:normal;text-transform:none;writing-mode:lr-tb;direction:ltr;text-orientation:mixed;dominant-baseline:auto;baseline-shift:baseline;text-anchor:start;white-space:normal;shape-padding:0;clip-rule:nonzero;display:inline;overflow:visible;visibility:visible;opacity:1;isolation:auto;mix-blend-mode:normal;color-interpolation:sRGB;color-interpolation-filters:linearRGB;solid-color:#000000;solid-opacity:1;vector-effect:none;fill:#000000;fill-opacity:1;fill-rule:nonzero;stroke:none;stroke-width:0.13229167;stroke-linecap:round;stroke-linejoin:round;stroke-miterlimit:4;stroke-dasharray:none;stroke-dashoffset:0;stroke-opacity:1;color-rendering:auto;image-rendering:auto;shape-rendering:auto;text-rendering:auto;enable-background:accumulate"/><path d="m 6.52801,291.50339 a 0.06615245,0.06615245 0 0 0 -0.0215,0.125 l 0.16407,0.0859 a 0.06615245,0.06615245 0 1 0 0.0605,-0.11719 l -0.16406,-0.0859 a 0.06615245,0.06615245 0 0 0 -0.0391,-0.008 z" id="path14122" style="color:#000000;font-style:normal;font-variant:normal;font-weight:normal;font-stretch:normal;font-size:medium;line-height:normal;font-family:sans-serif;font-variant-ligatures:normal;font-variant-position:normal;font-variant-caps:normal;font-variant-numeric:normal;font-variant-alternates:normal;font-feature-settings:normal;text-indent:0;text-align:start;text-decoration:none;text-decoration-line:none;text-decoration-style:solid;text-decoration-color:#000000;letter-spacing:normal;word-spacing:normal;text-transform:none;writing-mode:lr-tb;direction:ltr;text-orientation:mixed;dominant-baseline:auto;baseline-shift:baseline;text-anchor:start;white-space:normal;shape-padding:0;clip-rule:nonzero;display:inline;overflow:visible;visibility:visible;opacity:1;isolation:auto;mix-blend-mode:normal;color-interpolation:sRGB;color-interpolation-filters:linearRGB;solid-color:#000000;solid-opacity:1;vector-effect:none;fill:#000000;fill-opacity:1;fill-rule:nonzero;stroke:none;stroke-width:0.13229167;stroke-linecap:round;stroke-linejoin:round;stroke-miterlimit:4;stroke-dasharray:none;stroke-dashoffset:0;stroke-opacity:1;color-rendering:auto;image-rendering:auto;shape-rendering:auto;text-rendering:auto;enable-background:accumulate"/></g></svg>