<?xml version="1.0" ?><svg id="Capa_1" style="enable-background:new 76 -76 512 512;" version="1.1" viewBox="76 -76 512 512" xml:space="preserve" xmlns="http://www.w3.org/2000/svg" xmlns:xlink="http://www.w3.org/1999/xlink"><style type="text/css">
	.st0{fill:#2D2D2D;}
</style><g><path class="st0" d="M211,432.4c-0.4-0.1-0.9-0.3-1.3-0.4c-2.7-1-4.4-3.5-4-6.4c0.9-5.6,1.9-11.3,2.8-16.9c0.2-0.9,0-1.6-0.7-2.3   c-4.1-3.8-8.1-7.8-12.1-11.7c-1.8-1.8-2.5-3.9-1.7-6.3c0.8-2.4,2.5-3.8,5-4.2c5.6-0.8,11.2-1.6,16.8-2.4c0.9-0.1,1.5-0.5,1.9-1.3   c2.4-5,4.9-9.9,7.4-14.9c1.2-2.4,3-3.7,5.7-3.7c2.6,0,4.4,1.4,5.6,3.7c2.5,5.1,5,10.1,7.5,15.2c0.3,0.7,0.7,0.9,1.4,1   c5.3,0.7,10.6,1.5,15.9,2.3c2.7,0.4,5,1.4,6,4.3c0.8,2.4,0.3,4.6-1.5,6.4c-4,3.9-8,7.8-12,11.7c-0.7,0.7-0.8,1.3-0.7,2.2   c1,5.6,2,11.2,2.8,16.8c0.5,3.6-1.2,5.9-4.8,6.9c-0.1,0-0.2,0.1-0.3,0.2c-0.6,0-1.1,0-1.7,0c-0.9-0.4-1.9-0.7-2.8-1.2   c-4.8-2.5-9.6-5-14.4-7.6c-0.7-0.4-1.3-0.4-2,0c-5.7,3-11.5,5.9-17.3,8.8C212,432.4,211.5,432.4,211,432.4z M230.8,368   c-0.3,0.6-0.5,0.9-0.7,1.3c-2.5,5-5,10-7.5,15c-0.9,1.8-2.3,3-4.3,3.2c-3.5,0.5-7,1-10.4,1.5c-2.6,0.4-5.2,0.8-8.1,1.2   c0.5,0.4,0.7,0.6,0.9,0.8c4.2,4,8.3,8.1,12.5,12.1c1.4,1.3,2,2.9,1.6,4.8c-0.6,3.4-1.2,6.8-1.7,10.2c-0.5,2.7-0.9,5.3-1.4,8.1   c0.4-0.2,0.7-0.3,1-0.5c4.9-2.6,9.8-5.1,14.7-7.8c2.2-1.2,4.3-1.2,6.5,0c3.3,1.8,6.6,3.5,10,5.3c1.9,1,3.8,1.9,5.8,3   c0-0.6,0-0.9-0.1-1.3c-1-5.5-1.9-11.1-2.9-16.6c-0.4-2.1,0.1-3.9,1.7-5.3c2.1-2.1,4.3-4.1,6.4-6.3c2.1-2.1,4.1-4.3,6.2-6.5   c-0.1,0-0.4-0.1-0.7-0.2c-5.6-0.8-11.1-1.6-16.7-2.4c-2-0.3-3.6-1.1-4.6-3c-1.1-2.3-2.3-4.7-3.4-7C234,374.4,232.4,371.3,230.8,368   z"/><path class="st0" d="M467.1,432.4c-5.7-2.9-11.3-5.8-17-8.8c-0.8-0.4-1.3-0.4-2.1,0c-4.7,2.5-9.5,5-14.2,7.5   c-1.6,0.8-3.2,1.3-5,0.9c-3.2-0.7-5.3-3.7-4.7-7c1-5.6,2-11.2,2.9-16.8c0.1-0.5-0.1-1.2-0.4-1.6c-3.5-3.5-7.1-6.9-10.7-10.4   c-0.3-0.3-0.6-0.5-0.9-0.8c-2.2-1.6-3.1-3.9-2.5-6.4c0.6-2.8,2.5-4.7,5.2-5.1c5.6-0.9,11.3-1.7,16.9-2.6c0.4-0.1,1-0.5,1.2-0.9   c2.6-5.1,5.1-10.2,7.6-15.3c1.1-2.3,2.9-3.5,5.4-3.5c2.6,0,4.4,1.2,5.6,3.5c2.5,5.1,5.1,10.2,7.5,15.4c0.3,0.6,0.7,0.9,1.4,1   c5.3,0.7,10.5,1.5,15.8,2.3c2.2,0.3,4.2,1,5.5,3c1.5,2.3,1.3,5.2-0.6,7.3c-2.2,2.3-4.5,4.5-6.8,6.8c-2,1.9-4,3.8-5.9,5.8   c-0.3,0.3-0.4,0.8-0.3,1.2c0.9,5.2,1.8,10.5,2.7,15.7c0.8,4.6-0.5,6.8-5,8.6C468.2,432.4,467.6,432.4,467.1,432.4z M467.9,426.2   c-0.1-0.8-0.1-1.3-0.2-1.8c-0.9-5.4-1.8-10.8-2.8-16.2c-0.3-2,0.1-3.6,1.5-5.1c3-3,6.1-5.9,9.1-8.9c1.3-1.3,2.6-2.6,4-4   c-0.4-0.1-0.7-0.2-0.9-0.2c-5.6-0.8-11.2-1.6-16.8-2.4c-2.1-0.3-3.7-1.2-4.7-3.2c-2.2-4.5-4.4-9-6.6-13.5c-0.4-0.9-0.9-1.8-1.5-2.9   c-0.4,0.7-0.6,1.1-0.9,1.6c-2.4,4.8-4.8,9.5-7,14.3c-1.1,2.2-2.7,3.3-5.1,3.6c-5.5,0.8-11,1.6-16.5,2.4c-0.4,0.1-0.7,0.2-1.1,0.3   c4.6,4.4,9,8.7,13.4,13c1.3,1.3,1.8,2.8,1.4,4.6c-0.8,4.6-1.6,9.2-2.4,13.8c-0.2,1.4-0.4,2.8-0.7,4.4c0.7-0.3,1.1-0.5,1.5-0.7   c4.8-2.5,9.5-5,14.3-7.6c2.1-1.1,4.1-1.1,6.2,0c3,1.6,6,3.2,9,4.8C463.4,423.8,465.5,425,467.9,426.2z"/><path class="st0" d="M355.5,378.3c-5.7-2.9-11.3-5.8-17-8.8c-0.8-0.4-1.3-0.4-2.1,0c-4.7,2.5-9.5,5-14.2,7.5   c-1.6,0.8-3.2,1.3-5,0.9c-3.2-0.7-5.3-3.7-4.7-7c1-5.6,2-11.2,2.9-16.8c0.1-0.5-0.1-1.2-0.4-1.6c-3.5-3.5-7.1-6.9-10.7-10.4   c-0.3-0.3-0.6-0.5-0.9-0.8c-2.2-1.6-3.1-3.9-2.5-6.4c0.6-2.8,2.5-4.7,5.2-5.1c5.6-0.9,11.3-1.7,16.9-2.6c0.4-0.1,1-0.5,1.2-0.9   c2.6-5.1,5.1-10.2,7.6-15.3c1.1-2.3,2.9-3.5,5.4-3.5c2.6,0,4.4,1.2,5.6,3.5c2.5,5.1,5.1,10.2,7.5,15.4c0.3,0.6,0.7,0.9,1.4,1   c5.3,0.7,10.5,1.5,15.8,2.3c2.2,0.3,4.2,1,5.5,3c1.5,2.3,1.3,5.2-0.6,7.3c-2.2,2.3-4.5,4.5-6.8,6.8c-2,1.9-4,3.8-5.9,5.8   c-0.3,0.3-0.4,0.8-0.3,1.2c0.9,5.2,1.8,10.5,2.7,15.7c0.8,4.6-0.5,6.8-5,8.6C356.6,378.3,356.1,378.3,355.5,378.3z M356.4,372.1   c-0.1-0.8-0.1-1.3-0.2-1.8c-0.9-5.4-1.8-10.8-2.8-16.2c-0.3-2,0.1-3.6,1.5-5.1c3-3,6.1-5.9,9.1-8.9c1.3-1.3,2.6-2.6,4-4   c-0.4-0.1-0.7-0.2-0.9-0.2c-5.6-0.8-11.2-1.6-16.8-2.4c-2.1-0.3-3.7-1.2-4.7-3.2c-2.2-4.5-4.4-9-6.6-13.5c-0.4-0.9-0.9-1.8-1.5-2.9   c-0.4,0.7-0.6,1.1-0.9,1.6c-2.4,4.8-4.8,9.5-7,14.3c-1.1,2.2-2.7,3.3-5.1,3.6c-5.5,0.8-11,1.6-16.5,2.4c-0.4,0.1-0.7,0.2-1.1,0.3   c4.6,4.4,9,8.7,13.4,13c1.3,1.3,1.8,2.8,1.4,4.6c-0.8,4.6-1.6,9.2-2.4,13.8c-0.2,1.4-0.4,2.8-0.7,4.4c0.7-0.3,1.1-0.5,1.5-0.7   c4.8-2.5,9.5-5,14.3-7.6c2.1-1.1,4.1-1.1,6.2,0c3,1.6,6,3.2,9,4.8C351.8,369.7,354,370.9,356.4,372.1z"/><path class="st0" d="M172.8,167.9c0.9-2.5,2.8-3.7,5.1-4.8c8.1-3.8,14-9.7,17.3-18c1-2.5,2.8-4,5.5-4.1c2.6-0.1,4.5,1.1,5.7,3.4   c4.7,8.6,11.6,15,20.2,19.6c2.3,1.2,3.6,3,3.5,5.7c0,2.6-1.4,4.3-3.6,5.5c-8.7,4.5-15.6,10.8-20.2,19.5c-1.2,2.3-3.2,3.4-5.7,3.2   c-2.6-0.1-4.4-1.5-5.3-3.9c-3.5-9-9.8-15.3-18.8-18.9c-2-0.8-3-2.4-3.8-4.2C172.8,169.9,172.8,168.9,172.8,167.9z M201,147.1   c-4.3,10.5-11.7,17.7-22.1,22.3c5.2,2.2,9.7,5,13.5,8.8c3.8,3.8,6.5,8.3,8.6,13.4c2.7-5,5.9-9.2,9.8-12.9c3.9-3.7,8.3-6.7,13.3-9.3   C214.3,164.2,206.4,157,201,147.1z"/></g><path class="st0" d="M486.8,255.4c-8.8-4.8-15.7-11.6-20.6-20.4c-1.3-2.3-3.2-3.6-5.8-3.4c-2.6,0.2-4.4,1.6-5.4,4.1  c-1.3,3.3-2.9,6.3-5.2,9c-1.3,1.5-2.7,2.9-4,4.4c-13.1-9-26-17.9-38.8-26.7c-0.6-0.4-0.7-0.8-0.6-1.5c0.8-4.1-0.4-7.6-3.5-10.4  c-5.1-4.4-10.2-8.7-15.4-13c-1.5-1.3-3.2-2.2-5.2-2.6c-0.5-0.1-1.1-0.2-1.7-0.3c0-0.5,0-1,0-1.4c0-6.4,0-12.8,0-19.2  c0-1-0.1-1.9-0.3-2.8c-0.2-0.8,0.1-1.1,0.6-1.4c5.3-3.6,10-8,14.2-12.8c8.5-9.8,14.2-20.9,16.5-33.7c0.4-2.2,0.7-4.4,1.1-6.6  c1.5,0,3,0,4.5,0c4.5,0,8.7-0.8,12.7-2.9c9.2-4.8,14.6-15.1,13.2-25.4c-0.7-5.2-2.9-9.8-6.4-13.7c-0.2-0.3-0.4-0.7-0.4-1  c0.5-3.6,1.2-7.2,1.7-10.8c1.5-10.5,2.9-21,4.5-31.4c1.1-7.4,1.5-14.7-0.1-22c-4.6-20.5-17-34-36.7-40.8c-3.3-1.1-6.9-1.4-10.3-2  c-0.7-0.1-1.1-0.3-1.5-0.9C391.3-38,389-42,386-45.4c-13.1-14.8-29.8-22.8-49.1-25.7c-1.8-0.3-3.6-0.5-5.4-0.7c-3.6,0-7.2,0-10.8,0  c-0.3,0.1-0.5,0.2-0.8,0.2c-4,0.6-8,0.9-12,1.7c-20.2,4.2-36.6,14.4-49.2,30.8c-14.3,18.8-21.1,40.1-22,63.5  c-0.6,16.1,2.3,31.6,8.3,46.5c0.4,1.1,0.4,1.7-0.5,2.5c-11.8,10.8-10.2,30.3,3.1,39.1c4.3,2.8,9,4.2,14.1,4.3c1.7,0,3.5,0,5.3,0  c0.1,0.7,0.2,1.2,0.3,1.8c0.6,5,1.7,9.9,3.4,14.7c5.2,15.2,14.8,27.1,27.9,36.2c0.7,0.5,1.2,0.9,0.8,1.9c-0.3,0.6-0.2,1.4-0.2,2.1  c0,6.6,0,13.3,0,19.9c0,0.5,0,0.9,0,1.4c-2.6,0.2-4.9,1.1-6.8,2.7c-5.1,4.3-10.2,8.5-15.2,12.9c-3.2,2.8-4.7,6.2-3.8,10.5  c0.2,0.9-0.4,1.1-0.9,1.5c-11.1,7.6-22.2,15.3-33.3,22.9c-6.5,4.4-12.9,8.9-18.3,14.7c-11.5,12.2-17.7,26.8-18.8,43.4  c-0.5,8.5-0.3,17.1-0.3,25.7c0,3.6,0,7.3,0.1,10.9c0.2,6.6,4.7,12.4,11,14c2.6,0.6,5.4,0.7,8.1,0.7c19.8,0.1,39.7,0,59.5,0  c0.4,0,0.8,0,1.4,0c0,0,0,0,0,0H305h12.1h1.3v-6.1h-2.9c0,0,0,0,0,0H305v0c-0.8,0-1.5,0-2.3,0h-13.7v0c-22.9,0-45.8,0-68.7,0  c-1.6,0-3.2,0-4.8-0.3c-4.7-0.9-7.6-4.6-7.6-9.8c0-10.1-0.1-20.2,0-30.2c0.2-13.4,3.7-25.9,11.5-37c5.2-7.3,11.7-13.2,19.1-18.2  c12.5-8.5,24.9-17.1,37.3-25.7c0.2-0.2,0.5-0.3,0.8-0.5c2.5,3.4,5,6.7,7.5,10c3.7,5,7.5,10,11.2,15c3.1,4.1,7.7,5.6,12.7,4.1  c10.1-3.1,20.3-6.1,30.4-9.3c1.2-0.4,2.2-0.3,3.4,0c9.9,3.1,19.8,6.1,29.8,9.1c5.4,1.6,10,0.1,13.3-4.4c5.8-7.8,11.7-15.5,17.5-23.3  c0.3-0.3,0.5-0.7,0.8-1.1c12.5,8.6,24.9,17.1,37.5,25.8c-2.2,1.1-4.1,2.1-6.1,3.1c-1.8,0.9-3,2.2-3.5,4.2c-0.7,3.1,0.8,5.9,3.7,7.1  c3.5,1.4,6.7,3.1,9.7,5.5c5,4,8.3,9.1,10.6,15c1.2,3.1,4.1,4.6,7.2,3.8c1.7-0.4,2.9-1.4,3.8-2.9c0.5-0.9,1-1.9,1.7-3  c0.2,0.4,0.4,0.7,0.4,1c2.6,7,3.9,14.2,3.8,21.7c0,10,0,20.1,0,30.1c0,6.5-3.8,10.3-10.3,10.3c-25.4,0-50.8,0-76.2,0v0h-21.4  c0,0,0,0,0,0h-7.6v6.1h7.2h21.8h19v0c19.3,0,38.6,0,57.8,0c2.9,0,5.7-0.6,8.2-2.1c5.1-3.1,7.4-7.7,7.5-13.5c0.1-10.3,0-20.6,0-31  c0-5.4-0.6-10.8-1.9-16c-1.1-4.2-2.2-8.3-4.3-12.3c0.3-0.3,0.6-0.8,1-1.2c4-4.4,8.6-8,13.9-10.7c2.6-1.3,4.5-2.9,5-5.9  c0-0.2,0-0.5,0-0.7C491.3,258.3,489.3,256.8,486.8,255.4z M437.2,93.5c-1,8.7-7.5,15.5-15.9,16.7c-2.9,0.4-6,0.3-9.1,0.5  c0-12.8,0-25.3,0-38.1c4.7,0,9.3-0.4,13.7,1.6C433.9,77.8,438.1,86,437.2,93.5z M409.3-23.5c16.5,7.8,25.5,21,28,38.8  c0.7,5.1,0,10.2-0.8,15.3c-1.4,9.9-2.8,19.9-4.2,29.8c-0.4,3.1-0.9,6.2-1.4,9.6c-5.9-3.6-12.2-3.7-18.8-3.4c0-0.7,0-1.2,0-1.8  c0-7.3-0.3-14.5-2.5-21.6c-2-6.7-5-12.9-9.1-18.5c-0.9-1.2-1.1-2.3-0.7-3.9c4.3-15.9,3.1-31.5-3.2-46.7c-0.2-0.4-0.4-0.9-0.6-1.5  C400.8-26.7,405.1-25.5,409.3-23.5z M267.6,110.6c-2.3,0-4.6,0.1-6.9,0c-9.8-0.4-17.9-8.5-18.1-18c-0.2-10.3,7.1-18.9,17.1-19.8  c2.6-0.2,5.2,0,7.9,0C267.6,85.4,267.6,97.9,267.6,110.6z M270.1,44.5c-1.6,5-2.1,10.2-2.2,15.4c0,2.2,0,4.4,0,6.8  c-5.8-0.1-11.6-0.6-17.1,2.4c-0.8-2-1.5-3.9-2.2-5.8c-4.2-12-6.3-24.3-5.9-37c0.6-24.5,7.9-46.6,23.9-65.4  c10.9-12.9,24.8-20.8,41.1-24.6c14.1-3.2,28-3,41.7,1.6c13.6,4.6,25.5,11.9,34.3,23.5c2.2,2.9,3.9,6,5.8,9.1  c0.3,0.5,0.3,1.1,0.4,1.7c0.2,1.1,0.3,2.2,0.7,3.2c4.2,9.6,6.2,19.6,5.6,30c-0.2,3.6-0.9,7.1-1.4,10.7c0,0.3-0.2,0.6-0.3,1  c-0.8-0.7-1.6-1.4-2.3-2.1c-3.6-3.1-7.1-6.3-10.7-9.4c-3.7-3.2-8-3.2-11.9-0.1c-2.5,2.1-5.1,4.1-7.7,6.2c-0.9,0.8-2,1.1-3.2,1.1  c-15,0-30,0-45,0C294.1,12.9,276.2,25.9,270.1,44.5z M293.2,157.1c-4.3-4.1-8.1-8.6-11.1-13.7c-0.1-0.1-0.1-0.2-0.2-0.3  c-2.1-3.6-3.7-7.3-5-11.2l0,0c-3.6-10.1-4.2-28.6-3.8-45.6c-0.1-3.1-0.1-7-0.1-11.9c0-24.6,2.1-25.1,2.1-25.1l0,0  c0.2-0.7,0.3-1.3,0.5-2c0,0,0,0,0,0l0,0c2-6.9,5.9-12.8,11.5-17.8c6.8-6.1,14.7-9.7,23.9-10.3c2.3-0.2,4.7-0.1,7.1-0.1  c5.9,0,11.8,0,17.6,0c7.8,0,15.7,0,23.5,0c2.3,0,4.2-0.7,6-2.1c2.7-2.1,5.4-4.3,8.1-6.4c1.8-1.4,2.6-1.4,4.4,0.1  c4.5,3.9,8.9,7.9,13.4,11.8c1.4,1.2,2.7,2.2,3.2,4c0.1,0.6,0.6,1.1,1,1.6c3.6,5,6.5,10.5,8.3,16.4c2.1,6.8,2.3,13.6,2.4,20.6  c0,7.9,0,15.8,0.1,23.6c0.1,7.2,0,14.3,0,21.5c0,1,0.4,1.9,0.4,2.9c0.1,1.2,0.1,2.4,0,3.6c-1.6,14.8-7.6,27.5-17.8,38.3  c-4,4.3-8.4,8.1-13.4,11.2c-0.5,0.3-1.1,0.4-1.6,0.6c-0.8,0.3-1.6,0.4-2.4,0.8c-8.6,4.3-17.5,7.1-27.1,7.8c-9.7,0.7-19-0.9-28.1-4.4  c-2.7-1-5.3-2.5-8-3.4C302.1,165.4,297.6,161.3,293.2,157.1z M337.5,230.1C337.5,230.1,337.5,230.1,337.5,230.1c0,3.1-0.1,6.2,0,9.2  c0,1-0.4,1.5-1.3,1.8c-9.9,3-19.7,6-29.5,9c-2.9,0.9-4.8,0.3-6.6-2.2c-6.4-8.5-12.8-17.1-19.2-25.6c-2.4-3.2-2.1-5.3,0.9-7.8  c4.8-4.1,9.6-8.2,14.5-12.2c0.8-0.7,1.9-1.1,2.9-1.4c0.8-0.3,1.6,0.1,2.4,0.7c1.4,1.1,3,2,4.6,2.8c10.3,5.1,20.6,10.1,30.9,15.1  c0.3,0.1,0.6,0.7,0.6,1.1C337.5,223.8,337.5,227,337.5,230.1z M341.2,213.7c-0.9,0.4-1.6,0.4-2.5,0c-9.3-4.6-18.6-9.1-27.9-13.6  c-1.4-0.7-2.9-1.3-4.3-2.1c-0.6-0.3-1.2-1.1-1.2-1.7c-0.1-7.6-0.1-15.3,0-22.9c0-0.1,0.1-0.2,0.1-0.5c23,11.5,46,11.6,69.1-0.1  c0.1,0.6,0.1,1,0.1,1.5c0,7.2,0,14.4,0,21.6c0,1-0.3,1.7-1.3,2.2C362.6,203.2,351.9,208.4,341.2,213.7z M399.5,221.8  c-6.6,8.8-13.2,17.6-19.8,26.4c-1.7,2.2-3.7,2.8-6.5,1.9c-6.3-1.9-12.6-3.8-18.9-5.8c-3.6-1.1-7.2-2.2-10.8-3.3c0-7.1,0-14.1,0-21  c0-0.4,0.5-1,0.9-1.2c7.5-3.7,15.1-7.4,22.7-11.1c3.1-1.5,6.3-3,9.4-4.6c0.8-0.4,1.6-0.9,2.1-1.5c0.9-1,1.9-1,2.9-0.7  c0.7,0.3,1.5,0.7,2.1,1.2c5.1,4.2,10.1,8.5,15.1,12.8C401,216.9,401.3,219.3,399.5,221.8z M460.7,285.6c-4.4-11.5-12.1-19.5-23.7-24  c11.1-4.9,19.2-12.5,23.7-23.9c5.8,10.6,14.1,18.4,24.8,24C474.8,267.2,466.4,274.8,460.7,285.6z"/></svg>