<?xml version="1.0" encoding="utf-8"?>
<!-- Generator: Adobe Illustrator 23.0.2, SVG Export Plug-In . SVG Version: 6.00 Build 0)  -->
<svg version="1.1" id="Layer_1" xmlns="http://www.w3.org/2000/svg" xmlns:xlink="http://www.w3.org/1999/xlink" x="0px" y="0px"
	 viewBox="0 0 112.3357 239.2861" enable-background="new 0 0 112.3357 239.2861" xml:space="preserve">
<g>
	<path d="M44.4999,239.2861c4.3056,0,7.9668-2.7275,9.374-6.5459c-7.0527-0.0527-13.6816-0.3554-19.0478-0.9589
		C35.9364,236.0957,39.8397,239.2861,44.4999,239.2861z"/>
	<path d="M67.8339,239.2861c4.6572,0,8.5625-3.1904,9.6728-7.5048c-5.3652,0.6035-11.9941,0.9062-19.0478,0.9589
		C59.8661,236.5586,63.5262,239.2861,67.8339,239.2861z"/>
	<path d="M63.3495,65.9727l-0.207-0.6084L63.33,64.751c0.0205-0.0703,0.6025-1.9932,1.4541-4.9902
		c-2.7715-0.4258-5.6446-0.6729-8.6163-0.6778c-2.9736,0.0049-5.8486,0.253-8.622,0.6787c0.8515,2.9961,1.4336,4.919,1.4551,4.9893
		l0.1884,0.6133l-0.208,0.6084c-0.7519,2.2285-7.0215,20.1875-14.7558,25.3105c0.8408,4.0166,1.5371,8.1055,1.8652,11.7793
		l1.0752,0.5576c2.0176,1.0469,3.5039,2.8145,4.1914,4.9805c0.1006,0.3164,0.1768,0.6367,0.2393,0.958l14.5703,2.8399
		l14.5722-2.8399c0.0625-0.3213,0.1387-0.6416,0.2393-0.958c0.6875-2.166,2.1738-3.9336,4.1914-4.9805l1.0742-0.5566
		c0.3281-3.6738,1.0235-7.7627,1.8643-11.7783C70.3729,86.1641,64.1024,68.2012,63.3495,65.9727z"/>
	<path d="M56.1669,138.834l-25.3555-11.2148c-2.2812,10.9668-8.8066,46.7656-8.8066,97.3818c0,0.0137,0.0048,0.0273,0.0048,0.041
		c0.1114,3.9697,16.0586,5.542,34.1573,5.542c18.0986,0,34.0459-1.5723,34.1572-5.542c0-0.0137,0.0049-0.0273,0.0049-0.041
		c0-50.6162-6.5254-86.415-8.8067-97.3818L56.1669,138.834z"/>
	<path d="M79.0848,119.667c-3.1884,0-6.081-1.7568-7.5488-4.584c-0.6621-1.2734-0.9824-2.6621-0.957-4.0576l-14.4121,2.8086
		l-14.4102-2.8086c0.0254,1.3955-0.2959,2.7842-0.957,4.0576c-1.4678,2.8272-4.3604,4.584-7.5488,4.584
		c-0.3623,0-0.7247-0.0273-1.084-0.0742l-2,6.2412l0.3633,0.1602l25.6367,11.3398l25.6367-11.3398l0.3633-0.1602l-2-6.2412
		C79.8075,119.6397,79.4462,119.667,79.0848,119.667z"/>
	<path d="M67.0233,51.5664c2.1279-8.1289,4.4697-18.2012,4.9522-24.7324H40.3553c0.4825,6.5332,2.8252,16.6084,4.9542,24.7373
		c1.8437,1.1143,3.8847,1.9707,6.0966,2.4863C56.9579,55.3496,62.5028,54.2998,67.0233,51.5664z"/>
	<path d="M56.1669,16.667c-4.5635,0-10.9795,1.1533-14.041,4.4024c-0.8565,0.9082-1.4043,1.9335-1.6582,3.0986h31.3964
		c-0.2539-1.1651-0.8017-2.1904-1.6562-3.0986C67.1464,17.8203,60.7303,16.667,56.1669,16.667z"/>
	<path d="M36.246,105.3965l-3.3653-1.7441l-1.4541-1.711l-1.4726,14.836l0.3066,0.1582c0.9571,0.497,1.9805,0.7324,2.9893,0.7324
		c2.3496,0,4.6181-1.2783,5.7744-3.5078C40.6786,110.9736,39.4325,107.0488,36.246,105.3965z"/>
	<path d="M29.6259,99.8242L19.1942,87.5606c2.0596-1.7745,4.8281-3.9532,8.1445-6.0938c-0.3886-4.2558-0.5312-9.3525-0.5126-14.7353
		c-2.5723,1.3437-4.9444,2.7627-7.0909,4.1699C10.8934,76.7217,5.6903,82.4483,5.4403,82.7168
		c-1.6484,1.8135-2.0859,4.3496-1.3037,6.5527C4.702,97.46,5.954,119.085,3.9032,125.2373
		c-2.5469,7.6397-5.7646,28.2705-2.5645,29.5967c3.2002,1.3262,8.6836-0.9844,11.5831,0.333c3.6669,1.666,6.833-0.833,10.083,0
		c2.8203,0.7227-0.0821-12.999,1.5839-16.666c0.834-1.8369,2.129-11.4473,3.2129-20.5859c0.0625-0.5225,0.1241-1.043,0.1836-1.5606
		L29.6259,99.8242z"/>
	<path d="M80.9091,101.9395l-1.459,1.7148l-3.3604,1.7422c-3.1865,1.6523-4.4326,5.5771-2.7783,8.7637
		c1.1563,2.2295,3.4248,3.5078,5.7744,3.5078c1.0088,0,2.0322-0.2354,2.9893-0.7324l0.3056-0.1582L80.9091,101.9395z"/>
	<path d="M108.1991,89.2656c0.7803-2.2021,0.3418-4.7363-1.3037-6.5488c-0.25-0.2685-5.4551-5.9951-14.2969-11.8154
		c-2.1465-1.4072-4.5195-2.8272-7.0928-4.1709c0.0196,5.3828-0.123,10.4795-0.5127,14.7363
		c0.1543,0.0996,0.3145,0.1983,0.4668,0.2988c3.1094,2.045,5.7168,4.1026,7.6817,5.794L82.7098,99.8223l1.6231,16.3867
		c0.0664,0.5654,0.1328,1.1348,0.2012,1.7061c1.0839,9.1386,2.3789,18.749,3.2129,20.5859c1.666,3.667-1.2364,17.3887,1.5839,16.666
		c3.25-0.833,6.4161,1.666,10.083,0c2.8995-1.3174,8.3829,0.9932,11.5831-0.333c3.2001-1.3262-0.0176-21.957-2.5645-29.5967
		C106.3817,119.084,107.6337,97.4531,108.1991,89.2656z"/>
	<path d="M31.2538,90.502c8.0488-2.167,15.8349-25.169,15.8349-25.169s-8.0156-26.3203-8.7685-38.916
		c-0.583-9.75,11.8457-11.751,17.8457-11.751s18.4287,2.001,17.8457,11.751c-0.7529,12.5957-8.7686,38.916-8.7686,38.916
		s7.7862,23.002,15.835,25.169c4.9824-9.166,0.8994-59.9951,0.0869-66.169C80.3358,18.0303,79.16,0.1777,56.1659,0
		C33.1718,0.1777,31.996,18.0303,31.1669,24.333C30.3544,30.5069,26.2714,81.336,31.2538,90.502z"/>
</g>
</svg>
