<?xml version="1.0" ?><svg viewBox="0 0 60 60" xmlns="http://www.w3.org/2000/svg"><title/><g data-name="Layer 1" id="Layer_1"><path d="M15.52565,5.58528,12.607,14.3419A.5.5,0,0,0,13.08139,15h5.83722a.5.5,0,0,0,.47435-.6581L16.47435,5.58528A.5.5,0,0,0,15.52565,5.58528Z"/><path d="M33,17H27V27h6Zm-2,4a1,1,0,0,1-2,0V20a1,1,0,0,1,2,0Z"/><rect height="2" width="6" x="27" y="29"/><polygon points="34.523 12 25.477 12 26.677 15 33.323 15 34.523 12"/><rect height="2" width="4" x="14" y="21"/><path d="M9.57125,23.65846,5.1665,31h9.667l-4.40475-7.34154A.5.5,0,0,0,9.57125,23.65846Z"/><rect height="2" width="4" x="14" y="17"/><polygon points="14 25.723 18 32.39 18 25 14 25 14 25.723"/><path d="M43.52565,5.58528,40.607,14.3419A.5.5,0,0,0,41.08139,15h5.83722a.5.5,0,0,0,.47435-.6581L44.47435,5.58528A.5.5,0,0,0,43.52565,5.58528Z"/><rect height="2" width="4" x="42" y="21"/><path d="M35,10V6a1,1,0,0,0-2,0V8H31V6a1,1,0,0,0-2,0V8H27V6a1,1,0,0,0-2,0v4Z"/><rect height="2" width="4" x="42" y="17"/><path d="M43.64968,35H56.35032a.5.5,0,0,0,.42875-.75724L56.03345,33H43.96655l-.74563,1.24276A.5.5,0,0,0,43.64968,35Z"/><path d="M16.03345,33H3.96655l-.74563,1.24276A.5.5,0,0,0,3.64968,35H16.35032a.5.5,0,0,0,.42875-.75724Z"/><path d="M54.8335,31l-4.40475-7.34154a.5.5,0,0,0-.8575,0L45.1665,31Z"/><polygon points="42 32.39 46 25.723 46 25 42 25 42 32.39"/><path d="M37.02832,45h1.94336A8.10664,8.10664,0,0,0,38,41.08984,8.10664,8.10664,0,0,0,37.02832,45Z"/><path d="M21.02832,45h1.94336A8.10664,8.10664,0,0,0,22,41.08984,8.10664,8.10664,0,0,0,21.02832,45Z"/><path d="M40.6543,36.9303c-.02808-.01044-.0542-.02112-.08105-.03394a.99457.99457,0,0,1-.27344-.18433l-.00806-.00623a1.00325,1.00325,0,0,1-.16187-.21265c-.01221-.02173-.01685-.0459-.02734-.06824-.01318-.02765-.02319-.05505-.03369-.084a.99825.99825,0,0,1-.06519-.32239C40.00366,36.012,40,36.00659,40,36V33H20v3c0,.00659-.00366.012-.00366.01849a.99743.99743,0,0,1-.06506.32239c-.01062.029-.02063.05652-.03381.08417-.0105.02234-.01514.04645-.02734.06812a1.00325,1.00325,0,0,1-.16187.21265l-.00806.00623a.99073.99073,0,0,1-.27344.18427c-.02686.01288-.053.02356-.08105.034A.98918.98918,0,0,1,19,37H17V54h6.43726C24.604,48.04492,27.88013,47,30,47s5.396,1.04492,6.56274,7H43V37H41A.9878.9878,0,0,1,40.6543,36.9303ZM24,47H20a.99942.99942,0,0,1-1-1c0-3.48437.92773-7,3-7s3,3.51563,3,7A.99942.99942,0,0,1,24,47Zm8-4H28a.99942.99942,0,0,1-1-1c0-3.48437.92773-7,3-7s3,3.51563,3,7A.99942.99942,0,0,1,32,43Zm8,4H36a.99942.99942,0,0,1-1-1c0-3.48437.92773-7,3-7s3,3.51563,3,7A.99942.99942,0,0,1,40,47Z"/><path d="M29.02832,41h1.94336A8.10664,8.10664,0,0,0,30,37.08984,8.10664,8.10664,0,0,0,29.02832,41Z"/><path d="M45.5,58H49V55a1,1,0,0,1,2,0v3h3.5a.5.5,0,0,0,.5-.5V37H45V57.5A.5.5,0,0,0,45.5,58ZM50,39c2.0706,0,2.99851,3.51,3,6.99159A1.004,1.004,0,0,1,52,47H48a1.004,1.004,0,0,1-1-1.00842C47.00149,42.51,47.9294,39,50,39Z"/><path d="M50,41.08984A8.10664,8.10664,0,0,0,49.02832,45h1.94336A8.10664,8.10664,0,0,0,50,41.08984Z"/><path d="M36.9863,58,42.5,58a.5.5,0,0,0,.5-.5V56H36.85486C36.917,56.62772,36.96582,57.284,36.9863,58Z"/><path d="M17.5,58l5.5137,0c.02048-.716.06931-1.37226.13144-2H17v1.5A.5.5,0,0,0,17.5,58Z"/><path d="M5.5,58H9V55a1,1,0,0,1,2,0v3h3.5a.5.5,0,0,0,.5-.5V37H5V57.5A.5.5,0,0,0,5.5,58ZM10,39c2.07061,0,2.99852,3.51,2.99993,6.99164A1.004,1.004,0,0,1,12,47H8a1.004,1.004,0,0,1-.99993-1.00837C7.00148,42.51,7.92939,39,10,39Z"/><path d="M30,49c-3.83447,0-4.85608,4.681-4.98389,9h9.96777C34.85608,53.681,33.83447,49,30,49Z"/><path d="M10,41.08984A8.10664,8.10664,0,0,0,9.02832,45h1.94336A8.10664,8.10664,0,0,0,10,41.08984Z"/></g></svg>