<?xml version="1.0" ?><svg viewBox="0 0 64 64" xmlns="http://www.w3.org/2000/svg"><path d="M6.454 7.874c-.092-.114-1.037.1-1.076.16-.16.253.435 3.552.503 3.92.07.366 1.1.045 1.168-.07.07-.115-.503-3.895-.594-4.01zm16.314 4.4c-.32-1.4-.883-1.3-.984-1.284-.847.137-.938 3.162-.96 3.39-.024.23 1.99.253 2.104.138.115-.114.16-.847-.16-2.245zM34.62 7.92c-.113-2.222-3.526-2-3.706-1.604-.114.252-.183 3.597.16 3.803.343.206 3.66.022 3.547-2.2zm-2.493-.412c.164-.094.915-.115.984.412.07.527-.8.802-1.006.642-.206-.16-.137-.963.023-1.054zm11.212 1.74c.64.16 3.385-.274 3.225-2.015-.16-1.74-3.425-1.66-3.524-1.443-.113.25-.342 3.298.3 3.46zm1.006-2.244c.128-.055.664 0 .71.298.045.298-.62.71-.825.596s-.045-.826.116-.894zM8.742 27.92c-.137.23-.183 3.78-.07 3.896s.87.137 1.008.092c.137-.046.183-3.757.07-4.01-.116-.252-.788-.344-1.008.023zm51.3-4.26c-.16.182-.23 3.07-.183 3.413s1.303.115 1.35-.16c.045-.275-.047-3.093-.092-3.276-.046-.184-.885-.196-1.076.022zM8.88 51.38c-.16.184-1.763 3.965-1.81 4.262-.045.298.893.137 1.03 0 .138-.137 1.648-3.85 1.74-4.032.092-.183-.777-.44-.96-.23zm27.983 1.42c.183-.068-1.388-4.002-1.487-3.94-.183.115-1.876 3.597-1.968 3.826-.09.23 3.272.184 3.455.115zm2.38 4.72c.206 0-.77-2.186-.984-2.22-.138-.024-.87 0-1.076.09-.206.093.595 1.925.755 2.177s1.097-.046 1.303-.046zm.572-35.03c.618.482 4.988-.068 5.194-.48.205-.412-.276-8.798-.276-8.958 0-.16 1.007-.458 1.58-.733.57-.276 2.493-1.65 2.86-3.804.365-2.154-.62-3.597-2.793-4.972-2.173-1.375-6.886.275-6.978.39-.09.114.32 4.283.412 8.59.093 4.308-.307 9.728 0 9.967zm.87-17.388c.113-.137 3.363-1.466 5.513-.115 2.15 1.352 1.693 3.666.938 4.834s-2.06 1.376-2.425 1.49c-.365.115-1.395.802-1.303 1.512.092.71.23 7.285 0 7.79-.23.503-2.014.732-2.357.457-.357-.287.183-4.17.07-8.547-.115-4.374-.55-7.284-.436-7.42zm10.983 46.76s1.12-2.222 1.144-3.528c.023-1.306-1.396-3.986-4.85-4.147-3.456-.16-5.81 1.03-6.042 1.237-.23.206.595 2.36 1.236 5.75.64 3.392 1.12 8.5 1.12 8.592 0 .092 5.127.16 5.332.137.206-.023-.206-2.795-.023-2.726s1.487 2.59 1.648 2.658c.16.07 5.057.23 5.33.137.276-.092.32-.527.3-.756-.024-.23-5.195-7.354-5.195-7.354zm.16 6.598c-.07-.23-2.448-4.72-2.86-4.857-.412-.137-1.19.183-1.19.344s.618 4.56.503 4.56c-.113 0-2.676-.07-2.676-.07s-.206-3.116-.915-6.804c-.71-3.69-1.03-5.5-.94-5.567.17-.127 2.884-.733 4.783-.573 1.9.16 3.112 1.74 2.975 3s-1.304 2.934-1.327 3.277 4.532 6.53 4.463 6.644c-.07.115-2.747.275-2.815.046zm8.466-5.2c-2.448.23-3.432 2.75-2.288 4.95 1.144 2.198 4.92 1.053 5.286-1.192.366-2.246-1.354-3.912-2.998-3.758zm1.693 3.44c-.2 1.22-2.25 1.84-2.87.646s-.088-2.564 1.242-2.688c.892-.084 1.826.82 1.627 2.04zM48.99 21.207c-.023.458 4.393.32 4.6.206.205-.115 9.45-14.25 9.93-15.03s.663-1.992.252-2.382c-.412-.39-3.66-.435-3.867-.412-.206.023-3.226 4.307-3.34 4.284-.115-.023-1.67-3.505-1.946-3.826-.276-.32-4.872.173-4.898.252-.252.78 3.844 6.46 3.867 6.53s-4.577 9.92-4.6 10.378zm2.998-15.762c0-.154 1.442-.183 1.625.023.183.205 2.425 4.146 2.654 4.33.23.182.984-.39 1.236-.71.252-.322 2.952-3.92 3.112-3.965.16-.046 1.876.046 1.876.115 0 .07-.365.848-.525.893-.16.046-.984-.115-1.144 0-.16.115-2.356 3.024-2.15 3.23.206.206 1.007.458 1.007.458S53.04 19.926 52.88 19.95c-.16.023-2.448.07-2.288-.137s4.28-7.926 4.44-8.5c.16-.572-.024-1.213-.367-1.694-.343-.482-2.677-3.827-2.677-4.17zM40.616 42.492c.595-.275 5.72-4.834 5.95-4.81.228.022 2.95 2.313 4.255 3.39 1.305 1.077 2.495 1.74 3.32 1.558.823-.183 1.235-.687 1.326-1.26.092-.573.137-16.198.046-16.404-.09-.206-4.645-.23-4.782-.07-.137.16-.343 9.165-.503 9.142-.16-.023-3.043-2.222-3.25-2.222s-3.27 2.955-3.386 2.955c-.113 0-.548-9.324-.685-9.6-.137-.274-4.37-.39-4.485-.113-.16.39.183 16.106.23 16.68.044.572 1.37 1.03 1.966.755zm-.893-16.083c.042-.254 1.99.068 1.99.068s.413 10.15.687 10.355c.275.206.938.07 1.007.023.07-.046 3.66-3.39 3.66-3.39s3.57 2.91 3.845 3.046c.275.137 1.03-.412.96-.87-.068-.46-.09-9.348.253-9.486.343-.137 2.242-.092 2.31.115.07.207-.113 14.687-.388 14.824-.275.137-1.396-.137-2.975-1.512-1.58-1.375-3.73-3.368-4.28-3.505-.548-.137-5.948 4.857-6.314 4.926-.366.068-.8-14.32-.755-14.594zm21.83-5.89c-.893.184-3.64 1-3.8 1.376-.205.48.413 8.683.527 12.715.114 4.033.23 15.534.23 16.267 0 .733 3.797.55 4.118.458.32-.092.687-.115.732-1.764.046-1.65.343-27.377.39-28.087.045-.71-1.305-1.146-2.198-.962zm.434 28.845c-.114.504-1.9.916-2.128.23-.23-.688.09-10.288-.253-15.763-.343-5.476-.48-11.203-.297-11.5.19-.31 3.02-.55 3.02-.276 0 .275-.228 26.805-.343 27.31zm-40.18-30.173c.092-.183.16-.115.343-.046.183.07.778 3.14.824 3.55.046.413 3.913-.114 4.05-.205.137-.09.16-.09.252-.824.092-.733-5.034-16.587-5.217-17.23-.184-.64-1.626-.182-1.854.093-.23.274-.892 4.925-1.51 9.278-.618 4.353-.664 8.11-.664 8.11.137.275 2.77.64 3.043.64.275.002.64-3.183.732-3.366zm-1.12-1.306c-.16.458-.46 3.207-.573 3.23-.114.023-.938.023-1.053-.16-.137-.22.665-5.132 1.145-9.14s1.167-5.866 1.304-5.797c.136.068 2.95 10.01 3.637 12.44.686 2.427.96 2.634.732 2.84-.23.206-1.488.55-1.626.16s-1.053-4.147-1.258-4.216c-.205-.068-2.15.184-2.31.642zm-4.83 12.234c-.09.023-4.758-4.926-5.08-5.178-.32-.252-3.34-.298-3.843.16-.503.458-.572 2.36-.458 6.025.114 3.666.347 6.71.64 7.102.276.366 4.51.732 4.646.297.137-.435-.252-5.155-.114-5.132.137.023 4.12 4.238 4.302 4.445.183.206 3.5.252 3.798.206.297-.046.915-.78.96-1.03.047-.253 0-11.18.024-11.594.023-.412-4.85-.367-4.988-.275-.138.093.206 4.95.114 4.973zm1.374-3.55c.16-.047 2.472.068 2.472.136s-.458 9.577-.503 9.76c-.047.183-2.358.092-2.358.092s-5.263-5.11-5.514-5.27c-.252-.16-.847.047-.96.574-.115.527-.047 5.476-.047 5.476s-1.967.023-2.058-.137c-.036-.062-.297-3.71-.458-6.803-.16-3.093-.092-3.78.275-4.147s1.898-.275 2.24.046c.344.32 6.11 6.507 6.568 6.644.458.137.595-.39.595-.48 0-.095-.412-5.845-.252-5.89zm2.495 28.202c-.183-.023.297-.94.297-.94s3.57 0 3.82-.022c.253-.023.893-3.597.87-3.826-.023-.23-2.837-.435-3.02-.458-.183-.023 1.007-2.543 1.098-2.68.092-.138 4.485 1.1 4.92 1.167.435.07 1.144-3.734 1.144-4.124s-8.896-2.7-9.084-2.613c-.39.183-1.556 1.672-3.158 5.75-1.602 4.078-4.12 11.386-3.958 11.64.16.25 13.203.503 13.34.457.137-.046.55-4.01.435-4.215-.115-.207-6.522-.115-6.705-.138zm5.057 3.047s-10.32-.024-10.388-.276c-.07-.252 1.9-5.613 3.02-9.073 1.12-3.458 2.403-5.59 2.7-5.84.28-.238 7.3 1.9 7.23 2.107-.068.206-.365 1.695-.525 1.695s-4.6-1.214-4.875-1.077c-.275.137-1.876 5.224-1.785 5.224s3.066.136 3.066.32c0 .183-.412 1.74-.503 1.764-.092.023-3.112-.252-3.318-.092-.206.16-1.396 3.3-1.327 3.322.07.023 6.933.115 6.933.183s-.228 1.742-.228 1.742zM11.854 40.13c-.32-.023-2.082 4.124-2.288 4.284-.206.16-6.132-8.053-6.453-7.973-.275.07-3.18 2.91-3.112 3.14.07.228 7.392 9.644 7.392 9.828 0 .184-3.318 9.348-3.226 9.6.092.253 5.01.07 5.148-.022.137-.092 7.208-17.137 7.208-17.343 0-.207-4.348-1.49-4.668-1.513zm-3.5 17.687c-.093.022-2.54.068-2.495-.093.045-.16 2.905-8.362 2.905-8.683S1.9 39.788 1.9 39.674c0-.115 1.098-1.283 1.213-1.237.242.097 6.475 7.95 6.68 8.02s2.61-4.698 2.838-4.675c.23.023 2.266.62 2.266.733 0 .114-6.452 15.28-6.543 15.304zm1.624-34.756c.23-.16-.412-5.247-.412-5.315 0-.07 1.647-.482 1.808-.482s1.098 4.834 1.19 5.2c.092.368 4.462.093 4.576-.09.114-.184-.915-18.856-1.03-19.017-.115-.16-6.018.734-6.11.78-.09.046.412 6.896.435 7.24.023.344-.96.07-1.075.07-.114 0-.915-6.256-1.144-6.416-.23-.16-5.1.845-5.126.94-.206.778 2.47 17.044 2.654 17.456.184.413 4.005-.206 4.234-.366zM7.3 6.362c.023.092 1.053 6.484 1.373 6.507.32.022 3.272-.184 3.25-.482-.024-.298-.94-7.285-.78-7.308s3.845-.48 3.914-.206c.07.275.778 16.22.686 16.266s-2.128.298-2.242.137c-.113-.16-.64-5.544-1.166-5.66-.526-.114-3.913 1.33-3.913 1.582s.482 4.902.367 4.902-2.014.344-2.014.115c0-.23-2.197-13.196-2.174-15.19.003-.217 2.678-.757 2.7-.665zm28.648 37.344c-.664-.092-1.785 1.97-2.997 4.536s-5.285 10.722-5.353 11.043c-.07.32 5.01.114 5.17.07.16-.047 1.946-3.002 2.13-2.934.182.07.914 2.59 1.12 2.956.206.366 4.187.412 5.034.183.848-.23.87-.734.825-1.147-.046-.41-5.56-14.657-5.927-14.707zM37 58.3c-.068-.092-1.12-3.918-1.486-4.147-.366-.23-.915.23-1.03.435-.114.206-2.197 3.55-2.357 3.574-.16.023-2.7.206-2.63-.046s2.22-4.88 3.477-7.56c1.258-2.68 2.197-4.674 2.334-4.697.182-.03 5.034 12.348 4.897 12.44-.138.092-3.136.092-3.204 0zm-4.027-36.336c.458-.367-.114-7.606-.023-8.042.092-.435 1.167-.344 1.762-.62.595-.274 2.77-2.107 3.043-4.375.275-2.268-.915-4.445-4.187-5.384-3.272-.94-6.727.55-6.887.756-.16.205 1.298 17.87 1.35 17.915.276.23 4.486.116 4.943-.25zM28.145 4.987c.23-.137 5.972-1.214 7.62 1.237 1.647 2.45-.206 5.544-1.968 5.91-1.762.368-2.334.62-2.334 1.513s.366 7.17.183 7.217c-.183.046-2.403 0-2.403 0s-.023-4.032-.39-8.34c-.364-4.306-.936-7.4-.708-7.537zm7.55 24.698c.253-.046.482-4.1.207-4.56-.275-.457-10.952.333-11.326.39-.595.092-.595 1.168-.595 3.69 0 2.52-.136 10.057.07 10.652.206.596 1.464 1.19 2.38 1.49.915.297 9.107 1.74 9.198 1.603.092-.137.824-3.368.39-4.01-.436-.64-6.202-1.557-6.293-1.58-.092-.023-.07-2.085-.046-2.177.022-.092 5.81.23 5.834.16.023-.07.252-3.276.092-3.482-.16-.205-6.27-.526-6.338-.526s0-2.2.07-2.268c.066-.068 6.107.665 6.358.62zm-7.572 2.818c.458.115 6.2.367 6.27.48s-.024 1.215-.093 1.238c-.07.024-5.377-.41-5.926-.25s-.32 4.512 0 4.65c.32.137 6.43.893 6.407 1.077-.022.183.024 1.764-.045 1.81-.07.046-9.084-1.65-9.175-1.993-.092-.344-.114-13.013 0-13.357.058-.174 8.764.092 8.9.23.138.136-.022 1.81-.022 1.81s-5.537-.642-5.995-.39-.39.298-.435 1.123c-.046.824-.343 3.458.115 3.573zm18.076 14.8c-.138.206.32 3.414.663 3.69.343.274 3.203-.528 2.792-2.52-.413-1.995-3.36-1.315-3.456-1.17zm1.555 2.085c-.16-.183-.183-1.077-.114-1.1.198-.066.62.023.664.367.046.343-.39.916-.55.733z"/></svg>