<svg xmlns="http://www.w3.org/2000/svg" width="30.105" height="28.488" viewBox="0 0 30.105 28.488">
  <g id="announcement" transform="translate(0 0)">
    <path id="Path_443" data-name="Path 443" d="M122.846,290.672a.588.588,0,1,0-.8-.215A.588.588,0,0,0,122.846,290.672Zm0,0" transform="translate(-114.792 -272.548)" fill="#333"/>
    <path id="Path_444" data-name="Path 444" d="M5.644,43.223,8.6,48.352A2.352,2.352,0,1,0,12.679,46l-1.764-3.056,1.528-.882a.588.588,0,0,0,.215-.8l-.765-1.324,11.262-2.209a1.764,1.764,0,0,0,1.43-2.643L22.631,31.7l1.249-1.891a.588.588,0,0,0,.019-.618l-1.176-2.037a.589.589,0,0,0-.545-.293L19.915,27l-2.169-3.758a1.749,1.749,0,0,0-1.506-.882h-.023a1.748,1.748,0,0,0-1.485.813L7.052,32.954,2.058,35.837a4.116,4.116,0,0,0,3.586,7.386Zm6.017,3.366a1.176,1.176,0,0,1-2.037,1.176l-2.94-5.093L8.72,41.5l2.94,5.093Zm-1.334-4.663-.588-1.018,1.018-.588.588,1.018ZM21.885,28.055l.813,1.408-.725,1.1-1.4-2.426Zm-6.169-4.241a.588.588,0,0,1,1.011.012l6.839,11.846a.588.588,0,0,1-.495.882,2.159,2.159,0,0,0-.322.055l-7.234-12.53c.152-.2.171-.214.2-.263Zm-.984,1.26,6.8,11.773L11.271,38.859l-3.119-5.4ZM1.57,40.871a2.938,2.938,0,0,1,1.076-4.016l4.583-2.646,2.94,5.092L5.586,41.948A2.944,2.944,0,0,1,1.57,40.871Zm0,0" transform="translate(0 -21.041)" fill="#333"/>
    <path id="Path_445" data-name="Path 445" d="M46.4,309.867a.588.588,0,0,0-.8-.215l-1.018.588a.589.589,0,0,1-.8-.215.588.588,0,0,0-1.018.588,1.766,1.766,0,0,0,2.41.646l1.018-.588a.588.588,0,0,0,.215-.8Zm0,0" transform="translate(-40.172 -291.37)" fill="#333"/>
    <path id="Path_446" data-name="Path 446" d="M439.854,42.555l-3.276,1.823a.588.588,0,0,0,.572,1.028l3.276-1.823a.588.588,0,0,0-.572-1.028Zm0,0" transform="translate(-410.622 -39.983)" fill="#333"/>
    <path id="Path_447" data-name="Path 447" d="M443.075,137.25l-2.272-.609a.588.588,0,1,0-.3,1.136l2.272.609a.588.588,0,1,0,.3-1.136Zm0,0" transform="translate(-414.188 -128.587)" fill="#333"/>
    <path id="Path_448" data-name="Path 448" d="M384.122.436l-.609,2.272a.588.588,0,0,0,1.136.3l.609-2.272a.588.588,0,1,0-1.136-.3Zm0,0" transform="translate(-360.943 0)" fill="#333"/>
  </g>
</svg>
