<svg xmlns="http://www.w3.org/2000/svg" width="44.082" height="44.025" viewBox="0 0 44.082 44.025">
  <g id="booking-white" transform="translate(-105.6 -155.487)">
    <path id="XMLID_1149_" d="M113.767,158.186c.2-1.122-.315-2.716,1.417-2.7,1.673.02,1.082,1.614,1.3,2.637h5.569c.256-.984-.315-2.637,1.378-2.637,1.732,0,1.141,1.633,1.378,2.657h5.569c.315-1-.354-2.7,1.417-2.657,1.653.02,1.161,1.574,1.358,2.637h5.589c.3-.945-.433-2.716,1.417-2.637,1.633.059,1.122,1.614,1.3,2.7h3.267a4.753,4.753,0,0,1,4.959,4.959v31.389a4.741,4.741,0,0,1-5.018,4.979H110.618a4.741,4.741,0,0,1-5.018-4.979V163.145a4.764,4.764,0,0,1,4.959-4.959Zm-5.648,10.922v24.973c0,2.066.787,2.854,2.854,2.854h33.238c2.086,0,2.854-.767,2.854-2.834V169.108Zm0-2.716h38.945c0-1.2.039-2.322,0-3.424a2.112,2.112,0,0,0-1.909-2.145c-1.22-.1-2.48-.02-3.739-.02-.2,1.063.354,2.558-1.22,2.676-1.968.138-1.181-1.673-1.5-2.637h-5.569c-.236,1.063.335,2.617-1.358,2.637-1.811.02-1.063-1.673-1.417-2.657h-5.491c-.374.964.394,2.676-1.417,2.657-1.751-.02-1.1-1.653-1.4-2.657H116.5c-.3,1,.413,2.6-1.3,2.657-1.83.059-1.141-1.673-1.5-2.7-1.181,0-2.322-.039-3.464.02a2.177,2.177,0,0,0-2.106,2.184C108.08,164.07,108.119,165.192,108.119,166.392Z" fill="#fdfdfe"/>
    <path id="XMLID_900_" d="M200.733,302.964c.846,0,1.692-.02,2.558,0,1,.02,1.476.453,1.5,1.437q.059,2.6,0,5.2c-.02,1-.551,1.456-1.574,1.476-1.673.02-3.346.02-5,0a1.353,1.353,0,0,1-1.535-1.5c-.039-1.692-.039-3.4,0-5.1.02-1.043.492-1.456,1.535-1.5C199.041,302.945,199.887,302.964,200.733,302.964Zm1.4,2.617H199.3v2.854h2.834Z" transform="translate(-73.132 -118.448)" fill="#fdfdfe"/>
    <path id="XMLID_897_" d="M264.548,250.473c0,.846.02,1.712,0,2.558-.02.984-.453,1.476-1.437,1.5q-2.6.059-5.2,0c-1.023-.02-1.456-.531-1.476-1.574q-.029-2.509,0-5.018a1.367,1.367,0,0,1,1.5-1.555c1.692-.039,3.4-.039,5.1,0,1.043.02,1.476.492,1.515,1.515Zm-2.657-1.417h-2.814v2.814h2.814Z" transform="translate(-121.144 -72.982)" fill="#fdfdfe"/>
    <path id="XMLID_894_" d="M137,250.394v-2.558a1.314,1.314,0,0,1,1.378-1.456c1.771-.039,3.542-.039,5.294,0,.964.02,1.417.531,1.437,1.515.02,1.692.02,3.4,0,5.117-.02.984-.472,1.476-1.437,1.5-1.771.039-3.542.039-5.294,0A1.3,1.3,0,0,1,137,253.051Zm2.637,1.476h2.834v-2.814h-2.834Z" transform="translate(-25.221 -72.982)" fill="#fdfdfe"/>
    <path id="XMLID_891_" d="M260.314,302.964h2.657c.905.02,1.417.453,1.417,1.378v5.313a1.271,1.271,0,0,1-1.417,1.4c-1.771.02-3.542.039-5.313,0a1.286,1.286,0,0,1-1.378-1.358c-.039-1.811-.039-3.6,0-5.412a1.237,1.237,0,0,1,1.378-1.319c.905-.02,1.791,0,2.657,0Zm1.417,5.471v-2.854h-2.775v2.854Z" transform="translate(-121.003 -118.448)" fill="#fdfdfe"/>
    <path id="XMLID_888_" d="M136.864,306.922c0-.827-.02-1.633,0-2.46.02-1.063.433-1.515,1.476-1.515,1.732-.02,3.464-.02,5.215.02.984.02,1.417.472,1.437,1.476.02,1.712.02,3.4,0,5.117a1.345,1.345,0,0,1-1.535,1.5c-1.712.02-3.4.02-5.117,0a1.315,1.315,0,0,1-1.456-1.476c-.02-.886,0-1.771-.02-2.657Zm2.7-1.338V308.4h2.794v-2.814Z" transform="translate(-25.105 -118.431)" fill="#fdfdfe"/>
    <path id="XMLID_887_" d="M199.372,254.128c.905-.984,1.751-1.929,2.637-2.854.728-.748,1.5-.807,2.047-.236s.472,1.338-.256,2.066c-1.141,1.161-2.3,2.322-3.464,3.464a1.363,1.363,0,0,1-2.2-.02c-.59-.571-1.161-1.141-1.712-1.751a1.2,1.2,0,0,1-.039-1.771,1.241,1.241,0,0,1,1.85-.039C198.545,253.3,198.84,253.636,199.372,254.128Z" transform="translate(-72.616 -76.44)" fill="#fdfdfe"/>
  </g>
</svg>
