<svg xmlns="http://www.w3.org/2000/svg" width="22.851" height="20.62" viewBox="0 0 22.851 20.62">
  <g id="calendar" transform="translate(0 -25)">
    <path id="Path_179" data-name="Path 179" d="M22.851,31.427V28.794a2.011,2.011,0,0,0-2.008-2.008h-.268V29.24a.669.669,0,1,1-1.339,0V25.669a.669.669,0,0,0-1.339,0v1.116H13.434V29.24a.669.669,0,1,1-1.339,0V25.669a.669.669,0,1,0-1.339,0v1.116H6.293V29.24a.669.669,0,1,1-1.339,0V25.669a.669.669,0,1,0-1.339,0v1.116H2.008A2.011,2.011,0,0,0,0,28.794v2.633Z" fill="#ababab"/>
    <path id="Path_180" data-name="Path 180" d="M0,199v10.846a2.011,2.011,0,0,0,2.008,2.008H20.843a2.011,2.011,0,0,0,2.008-2.008V199Zm6.427,9.283H5a.669.669,0,1,1,0-1.339H6.427a.669.669,0,1,1,0,1.339Zm0-2.856H5a.669.669,0,0,1,0-1.339H6.427a.669.669,0,0,1,0,1.339Zm0-2.856H5a.669.669,0,0,1,0-1.339H6.427a.669.669,0,0,1,0,1.339Zm5.713,5.713H10.712a.669.669,0,1,1,0-1.339H12.14a.669.669,0,1,1,0,1.339Zm0-2.856H10.712a.669.669,0,0,1,0-1.339H12.14a.669.669,0,0,1,0,1.339Zm0-2.856H10.712a.669.669,0,0,1,0-1.339H12.14a.669.669,0,0,1,0,1.339Zm5.713,5.713H16.424a.669.669,0,1,1,0-1.339h1.428a.669.669,0,1,1,0,1.339Zm0-2.856H16.424a.669.669,0,0,1,0-1.339h1.428a.669.669,0,0,1,0,1.339Zm0-2.856H16.424a.669.669,0,0,1,0-1.339h1.428a.669.669,0,0,1,0,1.339Z" transform="translate(0 -166.234)" fill="#ababab"/>
  </g>
</svg>
