<svg id="celeb_received_request" data-name="celeb received request" xmlns="http://www.w3.org/2000/svg" width="49.391" height="49.391" viewBox="0 0 49.391 49.391">
  <g id="XMLID_637_" transform="translate(0)">
    <path id="XMLID_640_" d="M39.165,8.489H38.3V6.56h2.894a3.28,3.28,0,0,0,0-6.56H36.947a5.215,5.215,0,0,0-5.209,5.209v3.28h-16.3a10.224,10.224,0,0,0-10.044,8.3H.965A.965.965,0,0,0,0,17.75V29.326a.965.965,0,0,0,.965.965H5.209v2.894a.965.965,0,0,0,.965.965h4.92a.965.965,0,1,0,0-1.929H7.138V30.29H23.731V32.22H19.776a.965.965,0,0,0,0,1.929h3.955V48.426a.965.965,0,0,0,.965.965H34.728a.965.965,0,0,0,.965-.965V34.149H48.426a.965.965,0,0,0,.965-.965V18.714A10.237,10.237,0,0,0,39.165,8.489Zm-4.148,6.589a2.7,2.7,0,1,1-2.7,2.7A2.7,2.7,0,0,1,35.017,15.078ZM36.947,1.929h4.245a1.351,1.351,0,0,1,0,2.7H37.332a.965.965,0,0,0-.965.965V13.35a4.628,4.628,0,0,0-2.7,0V5.209A3.284,3.284,0,0,1,36.947,1.929ZM17.364,27,13.9,23.538l3.459-3.459Zm-5.481-4.166a3.185,3.185,0,0,1-4.505,0L3.262,18.714H16ZM1.929,20.11l3.443,3.443L1.929,27Zm1.364,8.251,3.515-3.515a5.123,5.123,0,0,0,5.663-.013L16,28.361Zm16,0V17.75a.965.965,0,0,0-.965-.965H7.366a8.3,8.3,0,0,1,16.365,1.929v9.647Zm6.367,5.788h2.7V47.461h-2.7Zm8.1,13.312H30.29V34.149h3.473Zm13.7-15.242H25.66V18.714a10.219,10.219,0,0,0-4.255-8.3H31.737v4.1a4.63,4.63,0,1,0,6.56,0v-4.1h.868a8.305,8.305,0,0,1,8.3,8.3Z" transform="translate(0)" fill="#fff"/>
    <path id="XMLID_1147_" d="M150.965,334a.965.965,0,1,0,.682.283A.972.972,0,0,0,150.965,334Z" transform="translate(-135.53 -301.78)" fill="#fff"/>
  </g>
</svg>
