<svg xmlns="http://www.w3.org/2000/svg" width="56.396" height="60.426" viewBox="0 0 56.396 60.426">
  <g id="choose" transform="translate(-0.008 0.001)">
    <path id="Path_110" data-name="Path 110" d="M32.677,14.1c.135,0,.271,0,.4-.011a6.92,6.92,0,0,0,2.485-.62,7.024,7.024,0,0,0,6.165,3.652c.14,0,.281,0,.422-.013a7.019,7.019,0,0,0,5.76-3.639,6.913,6.913,0,0,0,2.876.631c.141,0,.282,0,.423-.012a6.922,6.922,0,0,0,2.486-.62,7.024,7.024,0,0,0,6.161,3.653c.14,0,.281,0,.422-.013a7,7,0,0,0,4.855-2.352,7.1,7.1,0,0,0,.906-1.285,6.935,6.935,0,0,0,2.876.629c.141,0,.283,0,.424-.012A7.05,7.05,0,1,0,62.769,3.644a7.041,7.041,0,0,0-5.793,0,7.04,7.04,0,0,0-12.335,0,7.042,7.042,0,0,0-5.793,0A7.048,7.048,0,1,0,32.677,14.1ZM68.637,2.024a5.033,5.033,0,1,1-1.885,9.557,7.031,7.031,0,0,0-2.2-6.776c-.028-.025-.059-.047-.088-.071a4.988,4.988,0,0,1,4.171-2.71ZM59.573,5.045c.1-.006.2-.009.3-.009a5.055,5.055,0,1,1-.3.009ZM50.51,2.024a5.029,5.029,0,0,1,4.757,2.719,6.961,6.961,0,0,0-2.437,5.745,7.126,7.126,0,0,0,.159,1.108,4.926,4.926,0,0,1-1.891.491,4.978,4.978,0,0,1-2.474-.5,7.031,7.031,0,0,0-2.2-6.785c-.028-.025-.059-.047-.088-.071a4.988,4.988,0,0,1,4.173-2.71ZM41.446,5.045c.1-.006.2-.009.3-.009a5.055,5.055,0,1,1-.3.009ZM28.916,3.7a5.027,5.027,0,0,1,8.225,1.037A6.961,6.961,0,0,0,34.7,10.484a7.174,7.174,0,0,0,.159,1.108,4.917,4.917,0,0,1-1.89.491A5.035,5.035,0,0,1,28.916,3.7Zm0,0" transform="translate(-22.599)" fill="#fff"/>
    <path id="Path_111" data-name="Path 111" d="M3.029,150.646H9.072a3.021,3.021,0,0,0,3.021,3.021h4.028v10.086l-.993-.992a3.461,3.461,0,0,0-2.491-1.037,3.525,3.525,0,0,0-2.665,1.209,3.625,3.625,0,0,0,.28,4.915l2.363,2.363a51.808,51.808,0,0,1,5.349,6.546,9.859,9.859,0,0,0,7.976,4.1h2.266a1.07,1.07,0,0,0,.126-.025,1.07,1.07,0,0,0,.126.025,9.83,9.83,0,0,0,9.819-9.819V160.213a3.513,3.513,0,0,0-5.569-2.86,3.5,3.5,0,0,0-5.036-1.007,3.481,3.481,0,0,0-4.5-1.318v-1.36h3.021a3,3,0,0,0,2.014-.786,3,3,0,0,0,2.014.786h14.1a3.021,3.021,0,0,0,3.021-3.021h6.042a3.021,3.021,0,0,0,3.021-3.021V144.6a8.066,8.066,0,0,0-8.057-8.056H44.319a8.031,8.031,0,0,0-6.268,3.021H36.488a8.031,8.031,0,0,0-6.268-3.021H26.192a8.029,8.029,0,0,0-6.267,3.021H18.359a8.028,8.028,0,0,0-6.267-3.021H8.064A8.066,8.066,0,0,0,.008,144.6v3.021a3.021,3.021,0,0,0,3.021,3.021Zm21.652,6.043a1.5,1.5,0,0,1,1.511,1.51v6.546a1.007,1.007,0,0,0,2.014,0v-5.539a1.51,1.51,0,1,1,3.021,0v5.539a1.007,1.007,0,0,0,2.014,0v-4.532a1.511,1.511,0,0,1,3.021,0v10.826a7.813,7.813,0,0,1-7.8,7.8,1.068,1.068,0,0,0-.126.025,1.068,1.068,0,0,0-.126-.025H25.94a7.836,7.836,0,0,1-6.344-3.256,53.464,53.464,0,0,0-5.56-6.8l-2.363-2.363a1.627,1.627,0,0,1-.185-2.17,1.54,1.54,0,0,1,2.207-.08l1,1a2.014,2.014,0,0,0,3.442-1.424V148.29a1.621,1.621,0,0,1,1.393-1.672,1.521,1.521,0,0,1,1.188.441,1.5,1.5,0,0,1,.44,1.07v16.617a1.007,1.007,0,0,0,2.014,0V158.2a1.51,1.51,0,0,1,1.511-1.51Zm1.511-5.036H23.17v-3.525a3.5,3.5,0,0,0-1.03-2.494A3.542,3.542,0,0,0,19.4,144.6a3.617,3.617,0,0,0-3.275,3.686v3.363H12.093a1.007,1.007,0,0,1-1.007-1.007v-3.021a6.048,6.048,0,0,1,6.042-6.042h4.028a6.048,6.048,0,0,1,6.042,6.042v3.021a1.007,1.007,0,0,1-1.007,1.007Zm19.134-1.007a1.007,1.007,0,0,1-1.007,1.007H30.22a1.007,1.007,0,0,1-1.007-1.007v-3.021a6.049,6.049,0,0,1,6.042-6.042h4.029a6.049,6.049,0,0,1,6.042,6.042Zm3.021-12.085A6.049,6.049,0,0,1,54.39,144.6v3.021a1.007,1.007,0,0,1-1.007,1.007H47.34v-1.007a8.068,8.068,0,0,0-6.559-7.912,6.03,6.03,0,0,1,3.538-1.152Zm-18.127,0a6.03,6.03,0,0,1,3.538,1.152,8.077,8.077,0,0,0-5.552,4.02,8.078,8.078,0,0,0-5.551-4.02,6.025,6.025,0,0,1,3.537-1.152ZM2.022,144.6a6.048,6.048,0,0,1,6.042-6.042h4.028a6.026,6.026,0,0,1,3.537,1.152,8.066,8.066,0,0,0-6.558,7.912v1.007H3.029a1.007,1.007,0,0,1-1.007-1.007Zm0,0" transform="translate(0 -120.433)" fill="#fff"/>
    <path id="Path_112" data-name="Path 112" d="M205.816,462.827h4.028a1.007,1.007,0,1,0,0-2.014h-4.028a1.007,1.007,0,0,0,0,2.014Zm0,0" transform="translate(-180.631 -406.43)" fill="#fff"/>
  </g>
</svg>
