<svg xmlns="http://www.w3.org/2000/svg" width="55.55" height="49.695" viewBox="0 0 55.55 49.695">
  <g id="friend-request" transform="translate(0 -26.981)">
    <path id="Path_120" data-name="Path 120" d="M43.863,274.152a.814.814,0,0,0-.236,1.126,7.487,7.487,0,0,1,1.223,4.109v4.829H32.16a12.423,12.423,0,0,0-5.735-9.816,7.556,7.556,0,0,1,5.628-2.534H37.33a7.507,7.507,0,0,1,3.861,1.067.814.814,0,0,0,.837-1.4,9.137,9.137,0,0,0-4.7-1.3H32.054a9.189,9.189,0,0,0-7.086,3.363,12.342,12.342,0,0,0-5.207-1.146H12.416A12.43,12.43,0,0,0,0,284.872v6.962a1.709,1.709,0,0,0,1.707,1.707H21.244a.814.814,0,1,0,0-1.627H1.707a.08.08,0,0,1-.08-.08v-6.962a10.8,10.8,0,0,1,10.789-10.789h7.345A10.8,10.8,0,0,1,30.55,284.872v6.962a.08.08,0,0,1-.08.08H24.989a.814.814,0,1,0,0,1.627H30.47a1.709,1.709,0,0,0,1.707-1.707v-5.991H45.022a1.457,1.457,0,0,0,1.456-1.456v-5a9.11,9.11,0,0,0-1.488-5,.814.814,0,0,0-1.126-.236Z" transform="translate(0 -216.865)" fill="#fff"/>
    <path id="Path_121" data-name="Path 121" d="M69.111,122.768a9.636,9.636,0,1,0-5.693-17.409.814.814,0,1,0,.962,1.312,8.008,8.008,0,1,1-2.259,2.553.814.814,0,0,0-1.42-.8,9.635,9.635,0,0,0,8.409,14.34Z" transform="translate(-53.022 -68.213)" fill="#fff"/>
    <path id="Path_122" data-name="Path 122" d="M278.817,26.981h-13.3a3.036,3.036,0,0,0-3.033,3.033v7.923A7.151,7.151,0,1,0,268,46.344h10.816a3.036,3.036,0,0,0,3.033-3.033v-13.3A3.036,3.036,0,0,0,278.817,26.981ZM260.992,50.454a5.523,5.523,0,1,1,1.5-10.841v3.7a3.036,3.036,0,0,0,3.033,3.033h.811A5.542,5.542,0,0,1,260.992,50.454Zm19.231-7.143a1.407,1.407,0,0,1-1.405,1.405h-13.3a1.407,1.407,0,0,1-1.405-1.405v-13.3a1.407,1.407,0,0,1,1.405-1.405h13.3a1.407,1.407,0,0,1,1.405,1.405Z" transform="translate(-226.3 0)" fill="#fff"/>
    <path id="Path_123" data-name="Path 123" d="M397.259,72.68a2.576,2.576,0,1,0-4.023.011,3.415,3.415,0,1,0,4.023-.011Zm-2.016-2.549a.948.948,0,1,1-.948.948A.949.949,0,0,1,395.243,70.131Zm.012,7.1a1.787,1.787,0,1,1,1.787-1.787A1.789,1.789,0,0,1,395.255,77.229Z" transform="translate(-349.327 -37.018)" fill="#fff"/>
  </g>
</svg>
