<svg xmlns="http://www.w3.org/2000/svg" width="32.398" height="27.024" viewBox="0 0 32.398 27.024">
  <path id="graaduation" d="M31.767,49.693a.949.949,0,0,0,0-1.789l-15.25-5.381a.949.949,0,0,0-.632,0L.633,47.9a.949.949,0,0,0,0,1.789l6.041,2.148v6.192c0,1.022,1.066,1.886,3.169,2.568a21.221,21.221,0,0,0,6.358.922,21.222,21.222,0,0,0,6.358-.922c2.1-.682,3.169-1.547,3.169-2.568V51.841l2.494-.887v8.579a2.855,2.855,0,0,0,0,5.385v3.625a.949.949,0,0,0,1.9,0V64.919a2.855,2.855,0,0,0,0-5.385V50.279Zm-2.6,13.49a.957.957,0,1,1,.957-.957A.958.958,0,0,1,29.169,63.183ZM16.2,44.425,28.606,48.8,16.2,53.213,3.792,48.8Zm7.629,13.465a5.863,5.863,0,0,1-2.3,1.042,20.012,20.012,0,0,1-5.325.694,20.013,20.013,0,0,1-5.325-.694,5.861,5.861,0,0,1-2.3-1.042V52.516l7.311,2.6a.949.949,0,0,0,.636,0l7.311-2.6v5.374Z" transform="translate(0 -42.469)" fill="#333"/>
</svg>
