<svg xmlns="http://www.w3.org/2000/svg" width="24.741" height="22.011" viewBox="0 0 24.741 22.011">
  <path id="heart" d="M12.37,22.011a1.451,1.451,0,0,1-.956-.359c-1-.874-1.963-1.7-2.813-2.42l0,0a52.32,52.32,0,0,1-6.142-5.765A9.209,9.209,0,0,1,0,7.435,7.733,7.733,0,0,1,1.963,2.154,6.653,6.653,0,0,1,6.912,0,6.223,6.223,0,0,1,10.8,1.342,7.953,7.953,0,0,1,12.37,2.983a7.954,7.954,0,0,1,1.572-1.641A6.223,6.223,0,0,1,17.829,0a6.653,6.653,0,0,1,4.949,2.154,7.733,7.733,0,0,1,1.963,5.281,9.207,9.207,0,0,1-2.454,6.028,52.314,52.314,0,0,1-6.142,5.765c-.852.726-1.817,1.548-2.819,2.424a1.452,1.452,0,0,1-.956.359ZM6.912,1.449A5.22,5.22,0,0,0,3.028,3.136a6.29,6.29,0,0,0-1.579,4.3,7.748,7.748,0,0,0,2.12,5.1,51.486,51.486,0,0,0,5.967,5.587l0,0c.853.727,1.821,1.552,2.828,2.432,1.013-.882,1.982-1.708,2.837-2.436a51.5,51.5,0,0,0,5.966-5.587,7.749,7.749,0,0,0,2.12-5.1,6.29,6.29,0,0,0-1.579-4.3,5.219,5.219,0,0,0-3.883-1.687,4.807,4.807,0,0,0-3,1.039,7.033,7.033,0,0,0-1.672,1.935.915.915,0,0,1-1.572,0A7.026,7.026,0,0,0,9.912,2.488a4.806,4.806,0,0,0-3-1.039Zm0,0" transform="translate(0)" fill="#333"/>
</svg>
