<svg xmlns="http://www.w3.org/2000/svg" width="25.904" height="25.784" viewBox="0 0 25.904 25.784">
  <g id="karaoke" transform="translate(0 0.001)">
    <path id="Path_365" data-name="Path 365" d="M76.681,75.052a.417.417,0,0,0,.3.125.43.43,0,0,0,.168-.03.461.461,0,0,0,.233-.233.433.433,0,0,0,.03-.168.417.417,0,0,0-.125-.3.439.439,0,0,0-.138-.1.5.5,0,0,0-.25-.026l-.082.026a.393.393,0,0,0-.074.039.6.6,0,0,0-.121.121c-.013.022-.026.047-.039.073a.585.585,0,0,0-.026.082.532.532,0,0,0,0,.082.4.4,0,0,0,.125.307Zm0,0" transform="translate(-72.424 -70.307)" fill="#333"/>
    <path id="Path_366" data-name="Path 366" d="M59.649,91.494a.42.42,0,0,0-.1.471.376.376,0,0,0,.1.138.423.423,0,0,0,.307.13.448.448,0,0,0,.164-.035.377.377,0,0,0,.138-.1.439.439,0,0,0,.1-.138.432.432,0,0,0-.7-.471Zm0,0" transform="translate(-56.307 -86.442)" fill="#333"/>
    <path id="Path_367" data-name="Path 367" d="M43.3,108.32a.423.423,0,0,0-.609,0,.36.36,0,0,0-.1.143.42.42,0,0,0,.1.471.432.432,0,0,0,.609,0,.434.434,0,0,0,.125-.307.425.425,0,0,0-.03-.164A.414.414,0,0,0,43.3,108.32Zm0,0" transform="translate(-40.262 -102.353)" fill="#333"/>
    <path id="Path_368" data-name="Path 368" d="M76.912,109.059a.454.454,0,0,0,.168-.034.428.428,0,0,0,.138-.091.435.435,0,0,0,.125-.307.428.428,0,0,0-.03-.164.417.417,0,0,0-.1-.143.424.424,0,0,0-.609,0,.413.413,0,0,0-.095.143.427.427,0,0,0,.4.6Zm0,0" transform="translate(-72.353 -102.354)" fill="#333"/>
    <path id="Path_369" data-name="Path 369" d="M60.258,125.442a.446.446,0,0,0-.609,0,.36.36,0,0,0-.1.143.43.43,0,1,0,.8,0,.412.412,0,0,0-.1-.143Zm0,0" transform="translate(-56.307 -118.56)" fill="#333"/>
    <path id="Path_370" data-name="Path 370" d="M93.951,58.23a.424.424,0,0,0,.164-.03.436.436,0,0,0,.138-.095.378.378,0,0,0,.095-.138.446.446,0,0,0,.035-.164.424.424,0,0,0-.129-.307.381.381,0,0,0-.138-.1.441.441,0,0,0-.471.1.42.42,0,0,0-.125.307.428.428,0,0,0,.432.428Zm0,0" transform="translate(-88.472 -54.275)" fill="#333"/>
    <path id="Path_371" data-name="Path 371" d="M110.747,41.25a.428.428,0,0,0,.164.03.435.435,0,0,0,.307-.125.432.432,0,0,0-.471-.7.358.358,0,0,0-.143.095.44.44,0,0,0-.1.138.428.428,0,0,0-.03.164.42.42,0,0,0,.125.307A.413.413,0,0,0,110.747,41.25Zm0,0" transform="translate(-104.516 -38.24)" fill="#333"/>
    <path id="Path_372" data-name="Path 372" d="M43.3,40.506a.439.439,0,0,0-.471-.091.388.388,0,0,0-.233.233.434.434,0,0,0-.035.164.446.446,0,0,0,.125.307.634.634,0,0,0,.143.1.429.429,0,0,0,.164.03.291.291,0,0,0,.086-.009.552.552,0,0,0,.078-.021.714.714,0,0,0,.078-.043.67.67,0,0,0,.065-.052.634.634,0,0,0,.052-.065.7.7,0,0,0,.043-.078.494.494,0,0,0,.021-.078.289.289,0,0,0,.009-.086.424.424,0,0,0-.03-.164A.627.627,0,0,0,43.3,40.506Zm0,0" transform="translate(-40.262 -38.204)" fill="#333"/>
    <path id="Path_373" data-name="Path 373" d="M60.258,23.507l-.065-.052a.469.469,0,0,0-.155-.065.415.415,0,0,0-.25.026.422.422,0,0,0-.138.091.449.449,0,0,0-.13.307.6.6,0,0,0,.009.086l.026.078a.67.67,0,0,0,.039.078.746.746,0,0,0,.056.065.422.422,0,0,0,.138.091.361.361,0,0,0,.164.035.569.569,0,0,0,.086-.009.468.468,0,0,0,.155-.065.7.7,0,0,0,.065-.052.341.341,0,0,0,.052-.065.717.717,0,0,0,.043-.078.522.522,0,0,0,.022-.078.291.291,0,0,0,.009-.086.428.428,0,0,0-.03-.164A.518.518,0,0,0,60.258,23.507Zm0,0" transform="translate(-56.307 -22.121)" fill="#333"/>
    <path id="Path_374" data-name="Path 374" d="M26.34,57.431a.784.784,0,0,0-.065-.056.65.65,0,0,0-.078-.039l-.078-.026a.413.413,0,0,0-.25.026.43.43,0,0,0-.142.1.448.448,0,0,0-.125.3.564.564,0,0,0,.009.086.47.47,0,0,0,.065.156l.052.065a.509.509,0,0,0,.142.095.425.425,0,0,0,.164.03.3.3,0,0,0,.086-.009.519.519,0,0,0,.078-.022.65.65,0,0,0,.078-.043.335.335,0,0,0,.065-.052.687.687,0,0,0,.052-.065.466.466,0,0,0,.065-.156.622.622,0,0,0,.009-.086.362.362,0,0,0-.035-.164.431.431,0,0,0-.091-.138Zm0,0" transform="translate(-24.22 -54.21)" fill="#333"/>
    <path id="Path_375" data-name="Path 375" d="M60.258,57.433a.78.78,0,0,0-.065-.056.611.611,0,0,0-.073-.039l-.082-.026a.417.417,0,0,0-.25.026.461.461,0,0,0-.233.233.432.432,0,0,0-.035.164.591.591,0,0,0,.009.086c.009.026.017.056.026.082a.6.6,0,0,0,.039.074.779.779,0,0,0,.056.065.433.433,0,0,0,.138.095.424.424,0,0,0,.164.03.3.3,0,0,0,.086-.009.58.58,0,0,0,.082-.022.625.625,0,0,0,.073-.043.374.374,0,0,0,.117-.116.658.658,0,0,0,.043-.074.579.579,0,0,0,.022-.082.291.291,0,0,0,.009-.086.429.429,0,0,0-.03-.164A.439.439,0,0,0,60.258,57.433Zm0,0" transform="translate(-56.307 -54.212)" fill="#333"/>
    <path id="Path_376" data-name="Path 376" d="M76.586,40.946c.013.026.026.047.039.073a.78.78,0,0,0,.056.065.248.248,0,0,0,.065.052.415.415,0,0,0,.074.043.609.609,0,0,0,.082.022.263.263,0,0,0,.082.009.428.428,0,0,0,.307-.125.42.42,0,0,0,.125-.307.263.263,0,0,0-.009-.082.456.456,0,0,0-.021-.082.515.515,0,0,0-.1-.143.424.424,0,0,0-.138-.091.418.418,0,0,0-.25-.026.3.3,0,0,0-.082.026.239.239,0,0,0-.074.039c-.022.017-.047.035-.065.052a.435.435,0,0,0-.125.307.588.588,0,0,0,0,.086c.009.026.017.056.026.082Zm0,0" transform="translate(-72.424 -38.169)" fill="#333"/>
    <path id="Path_377" data-name="Path 377" d="M93.644,24.118a.248.248,0,0,0,.065.052.675.675,0,0,0,.073.043.574.574,0,0,0,.082.021.289.289,0,0,0,.086.009.418.418,0,0,0,.3-.125.358.358,0,0,0,.095-.143.43.43,0,0,0,.035-.164.44.44,0,0,0-.129-.307.425.425,0,0,0-.138-.091.411.411,0,0,0-.25-.026.468.468,0,0,0-.156.065c-.021.017-.047.035-.065.052a.435.435,0,0,0-.125.307.428.428,0,0,0,.03.164.413.413,0,0,0,.1.143Zm0,0" transform="translate(-88.472 -22.118)" fill="#333"/>
    <path id="Path_378" data-name="Path 378" d="M43.392,74.565a.414.414,0,0,0-.043-.073.241.241,0,0,0-.052-.065.682.682,0,0,0-.065-.056l-.073-.039a.614.614,0,0,0-.082-.026.454.454,0,0,0-.393.121.819.819,0,0,0-.052.065.236.236,0,0,0-.039.073.31.31,0,0,0-.026.082.567.567,0,0,0-.009.082.436.436,0,0,0,.035.168.426.426,0,0,0,.091.138.514.514,0,0,0,.143.1.461.461,0,0,0,.082.021.263.263,0,0,0,.082.009.419.419,0,0,0,.307-.125.426.426,0,0,0,.125-.307.263.263,0,0,0-.009-.082A.552.552,0,0,0,43.392,74.565Zm0,0" transform="translate(-40.262 -70.29)" fill="#333"/>
    <path id="Path_379" data-name="Path 379" d="M26.435,91.554a.625.625,0,0,0-.043-.073.236.236,0,0,0-.052-.065.414.414,0,0,0-.143-.1.44.44,0,0,0-.471.1.79.79,0,0,0-.052.065.468.468,0,0,0-.065.155.564.564,0,0,0-.009.086.447.447,0,0,0,.125.3.42.42,0,0,0,.471.1.36.36,0,0,0,.143-.1.418.418,0,0,0,.125-.3.3.3,0,0,0-.009-.086A.58.58,0,0,0,26.435,91.554Zm0,0" transform="translate(-24.22 -86.364)" fill="#333"/>
    <path id="Path_380" data-name="Path 380" d="M93.945,92.172a.434.434,0,0,0,.164-.035.461.461,0,0,0,.233-.233.431.431,0,0,0,.035-.164.424.424,0,0,0-.129-.307.431.431,0,0,0-.389-.117.548.548,0,0,0-.082.021l-.073.039a.6.6,0,0,0-.121.121c-.013.026-.026.047-.039.073a.608.608,0,0,0-.022.082.291.291,0,0,0-.009.086.417.417,0,0,0,.125.3.424.424,0,0,0,.307.13Zm0,0" transform="translate(-88.466 -86.382)" fill="#333"/>
    <path id="Path_381" data-name="Path 381" d="M110.6,75.073a.41.41,0,0,0,.143.1.424.424,0,0,0,.164.03.433.433,0,0,0,.307-.125.422.422,0,0,0,.091-.138.452.452,0,0,0,.035-.168.435.435,0,0,0-.125-.3.443.443,0,0,0-.471-.1.41.41,0,0,0-.143.1.417.417,0,0,0-.125.3.4.4,0,0,0,.125.307Zm0,0" transform="translate(-104.516 -70.328)" fill="#333"/>
    <path id="Path_382" data-name="Path 382" d="M127.7,58.209a.425.425,0,0,0,.164.03.432.432,0,0,0,.307-.734.445.445,0,0,0-.471-.1.36.36,0,0,0-.142.1.432.432,0,0,0,0,.609A.41.41,0,0,0,127.7,58.209Zm0,0" transform="translate(-120.558 -54.284)" fill="#333"/>
    <path id="Path_383" data-name="Path 383" d="M27.724,24.93l-1.978-.979a2.146,2.146,0,0,1-1.2-1.935v-.342a3.03,3.03,0,0,0-1.524-2.626l-2.334-1.332a1.3,1.3,0,0,0-.294-1.371l-.315-.315a1.291,1.291,0,0,0-.043-1.678L12.747,6.288l.626-.626a.432.432,0,0,0,0-.611L12.151,3.83a.432.432,0,0,0-.305-.126.422.422,0,0,0-.233.078A4.749,4.749,0,1,0,6,9.4a.423.423,0,0,0-.078.233.432.432,0,0,0,.126.305l1.221,1.221a.432.432,0,0,0,.611,0l.625-.625,8.066,7.291a1.281,1.281,0,0,0,1.678.043l.315.315a1.282,1.282,0,0,0,1.552.206l2.48,1.416a2.163,2.163,0,0,1,1.088,1.872v.342a3,3,0,0,0,1.684,2.708l1.978.979a.439.439,0,0,0,.615-.29.432.432,0,0,0-.232-.487ZM4.214,2A3.885,3.885,0,0,1,10.841,4.53l-.216.216a.432.432,0,0,0-.47-.7.518.518,0,0,0-.143.1.437.437,0,0,0-.125.3.564.564,0,0,0,.009.086.31.31,0,0,0,.026.082.236.236,0,0,0,.039.073.424.424,0,0,0,.052.065.449.449,0,0,0,.307.13.44.44,0,0,0,.305-.13l-.913.914a.436.436,0,0,0,.125-.3A.47.47,0,0,0,9.8,5.188a.429.429,0,0,0-.091-.138.444.444,0,0,0-.471-.095A.413.413,0,0,0,9.1,5.05a.429.429,0,0,0-.091.138.47.47,0,0,0-.034.168.435.435,0,0,0,.125.3.36.36,0,0,0,.142.1.432.432,0,0,0,.164.034.439.439,0,0,0,.306-.129L8.8,6.565a.451.451,0,0,0,.117-.293.431.431,0,0,0-.035-.164.406.406,0,0,0-.091-.143.626.626,0,0,0-.143-.095.431.431,0,0,0-.328,0,.436.436,0,0,0-.238.237.461.461,0,0,0,0,.328.626.626,0,0,0,.1.142.4.4,0,0,0,.143.091.43.43,0,0,0,.164.035.449.449,0,0,0,.293-.117l-.906.907A.439.439,0,0,0,8,7.189a.431.431,0,0,0-.035-.164.362.362,0,0,0-.095-.143.437.437,0,0,0-.609,0,.415.415,0,0,0-.1.143.428.428,0,0,0-.03.164.434.434,0,0,0,.125.307.424.424,0,0,0,.138.091.467.467,0,0,0,.168.035.434.434,0,0,0,.3-.125l-.914.914A.44.44,0,0,0,7.09,8.1.447.447,0,0,0,6.961,7.8.426.426,0,0,0,6.9,7.746a.245.245,0,0,0-.073-.039.3.3,0,0,0-.082-.026.442.442,0,0,0-.389.117.51.51,0,0,0-.095.143.431.431,0,0,0,.7.471l-.216.216A3.886,3.886,0,0,1,4.214,2Zm3.358,8.243-.611-.61,4.885-4.885.61.611-.61.61Zm9.575,6.94L9.114,9.92,12.136,6.9,19.4,14.932a.432.432,0,0,1-.015.595l-1.64,1.641a.432.432,0,0,1-.593.013Zm2.025.389-.305-.305.611-.611.3.305a.432.432,0,0,1-.61.611Zm0,0" transform="translate(-2.095 0)" fill="#333"/>
    <path id="Path_384" data-name="Path 384" d="M328.455,29.866a.432.432,0,0,0-.388-.06l-5.181,1.727a.432.432,0,0,0-.3.41v3.694a1.709,1.709,0,0,0-.863-.24,1.727,1.727,0,1,0,1.727,1.727v-4.87l4.317-1.439v3.1a1.709,1.709,0,0,0-.863-.24,1.727,1.727,0,1,0,1.727,1.727V30.216a.431.431,0,0,0-.18-.35Zm-6.728,8.121a.863.863,0,1,1,.863-.863A.863.863,0,0,1,321.727,37.987Zm5.181-1.727a.863.863,0,1,1,.863-.863A.863.863,0,0,1,326.908,36.26Zm0,0" transform="translate(-302.731 -28.178)" fill="#333"/>
    <path id="Path_385" data-name="Path 385" d="M8.948,293.8,2.9,295.53a.432.432,0,0,0-.313.415V300.5a1.708,1.708,0,0,0-.863-.24,1.727,1.727,0,1,0,1.727,1.727V298l5.181-1.471v2.248a1.709,1.709,0,0,0-.863-.24A1.727,1.727,0,1,0,9.5,300.263v-6.044a.432.432,0,0,0-.55-.415Zm-7.221,9.05a.863.863,0,1,1,.863-.863A.863.863,0,0,1,1.727,302.853ZM3.454,297.1v-.83l5.181-1.48v.84Zm4.317,4.025a.863.863,0,1,1,.863-.863A.863.863,0,0,1,7.771,301.126Zm0,0" transform="translate(0 -277.933)" fill="#333"/>
  </g>
</svg>
