<svg xmlns="http://www.w3.org/2000/svg" width="30.035" height="30.036" viewBox="0 0 30.035 30.036">
  <g id="mothers_day" data-name="mothers day" transform="translate(-0.004)">
    <g id="XMLID_34_" transform="translate(0.004)">
      <g id="XMLID_36_" transform="translate(0)">
        <g id="XMLID_2121_">
          <path id="XMLID_2124_" d="M27.4,6.739q-.128-.128-.262-.251a2.308,2.308,0,0,0-.425-1.519,2.286,2.286,0,0,0-2.087-3.615,2.286,2.286,0,0,0-4.174,0,2.284,2.284,0,0,0-2.321,3.206,9.023,9.023,0,0,0-3.1,1.79A9.046,9.046,0,0,0,4.936,5.077a.587.587,0,1,0,.534,1.045A7.847,7.847,0,0,1,14.61,7.568a.587.587,0,0,0,.83,0,7.868,7.868,0,0,1,2.531-1.7,2.282,2.282,0,0,0,2.476,2.712,2.286,2.286,0,0,0,4.174,0,2.3,2.3,0,0,0,2.059-.9,7.877,7.877,0,0,1-.114,11.009l-9.2,9.2a3.315,3.315,0,0,1-4.682,0l-.886-.886a2.263,2.263,0,0,0,.478-.577,2.3,2.3,0,0,0-.128-2.484,2.286,2.286,0,0,0-2.087-3.615,2.286,2.286,0,0,0-4.174,0,2.288,2.288,0,0,0-.721.044L3.484,18.695A7.847,7.847,0,0,1,2.037,9.554.587.587,0,1,0,.992,9.021a9.045,9.045,0,0,0,1.662,10.5l1.424,1.424a2.261,2.261,0,0,0-.407.515A2.3,2.3,0,0,0,3.8,23.947a2.286,2.286,0,0,0,2.087,3.615,2.286,2.286,0,0,0,4.174,0,2.283,2.283,0,0,0,.61-.022l1.184,1.184a4.489,4.489,0,0,0,6.342,0l9.2-9.2a9.051,9.051,0,0,0,0-12.786ZM25.542,5.431a1.114,1.114,0,0,1-1.1,1.91.587.587,0,0,0-.8.463,1.114,1.114,0,0,1-2.206,0,.587.587,0,0,0-.8-.463,1.114,1.114,0,0,1-1.1-1.91.587.587,0,0,0,0-.926,1.114,1.114,0,0,1,1.1-1.91.587.587,0,0,0,.8-.463,1.114,1.114,0,0,1,2.206,0,.587.587,0,0,0,.8.463,1.114,1.114,0,0,1,1.1,1.91.587.587,0,0,0,0,.926ZM9.878,26.32a.587.587,0,0,0-.8.463,1.114,1.114,0,0,1-2.206,0,.587.587,0,0,0-.8-.463,1.114,1.114,0,0,1-1.1-1.91.587.587,0,0,0,0-.926,1.114,1.114,0,0,1,1.1-1.91.587.587,0,0,0,.8-.463,1.114,1.114,0,0,1,2.206,0,.587.587,0,0,0,.8.463,1.114,1.114,0,0,1,1.1,1.91.587.587,0,0,0,0,.926,1.114,1.114,0,0,1-1.1,1.91Z" transform="translate(-0.004)" fill="#333"/>
          <path id="XMLID_2126_" d="M42.829,113.1a.587.587,0,1,0-.415-.172A.59.59,0,0,0,42.829,113.1Z" transform="translate(-39.764 -105.363)" fill="#333"/>
          <path id="XMLID_2127_" d="M88.271,210.772a.587.587,0,0,0,.587-.587v-2.552a1.957,1.957,0,0,0-3.329-1.4,1.953,1.953,0,0,0-2.247-.354.586.586,0,0,0-1.082.313v3.989a.587.587,0,1,0,1.173,0v-2.552a.785.785,0,0,1,1.569,0s0,0,0,0v2.552a.587.587,0,1,0,1.173,0v-2.552s0,0,0,0a.785.785,0,0,1,1.569,0v2.552A.587.587,0,0,0,88.271,210.772Z" transform="translate(-77.377 -193.546)" fill="#333"/>
          <path id="XMLID_2128_" d="M322.526,210.772a.587.587,0,0,0,.587-.587v-2.552a4.978,4.978,0,0,0-5.577-1.751.586.586,0,0,0-1.082.313v3.989a.587.587,0,1,0,1.173,0v-2.552a.785.785,0,0,1,1.569,0s0,0,0,0v2.552a.587.587,0,1,0,1.173,0v-2.552s0,0,0,0a.785.785,0,0,1,1.569,0v2.552A.587.587,0,0,0,322.526,210.772Z" transform="translate(-297.888 -193.546)" fill="#333"/>
          <path id="XMLID_2131_" d="M226.62,208.907v-1.234a1.958,1.958,0,0,0-3.916,0v1.234a1.958,1.958,0,1,0,3.916,0Zm-2.743,0v-1.234a.785.785,0,1,1,1.569,0v1.234a.785.785,0,1,1-1.569,0Z" transform="translate(-209.639 -193.646)" fill="#333"/>
          <path id="XMLID_2132_" d="M126.419,398.18a.587.587,0,1,0,.415.172A.591.591,0,0,0,126.419,398.18Z" transform="translate(-118.45 -374.819)" fill="#333"/>
          <path id="XMLID_2133_" d="M374.619,74.68a.587.587,0,1,0,.415.172A.591.591,0,0,0,374.619,74.68Z" transform="translate(-352.088 -70.299)" fill="#333"/>
        </g>
      </g>
    </g>
  </g>
</svg>
