<svg id="name" xmlns="http://www.w3.org/2000/svg" width="17.5" height="24.02" viewBox="0 0 17.5 24.02">
  <path id="Path_243" data-name="Path 243" d="M122.27,139.683a1.984,1.984,0,1,1-1.984-1.984A1.985,1.985,0,0,1,122.27,139.683Zm0,0" transform="translate(-111.535 -129.824)" fill="#ababab"/>
  <path id="Path_244" data-name="Path 244" d="M94.45,260.1a3.491,3.491,0,0,0-2.522,1.052,3.746,3.746,0,0,0-1.029,2.276H98a3.732,3.732,0,0,0-1.029-2.276A3.491,3.491,0,0,0,94.45,260.1Zm0,0" transform="translate(-85.7 -245.225)" fill="#ababab"/>
  <path id="Path_245" data-name="Path 245" d="M15.613,0H1.887A1.889,1.889,0,0,0,0,1.887V22.133A1.889,1.889,0,0,0,1.887,24.02H15.613A1.889,1.889,0,0,0,17.5,22.133V1.887A1.889,1.889,0,0,0,15.613,0ZM6.365,1.893h4.575a.4.4,0,0,1,0,.8H6.365a.4.4,0,0,1,0-.8ZM8.75,7.074a2.782,2.782,0,1,1-2.785,2.78A2.782,2.782,0,0,1,8.75,7.074ZM12.719,19H4.781a.4.4,0,0,1-.4-.4,4.58,4.58,0,0,1,1.275-3.237,4.35,4.35,0,0,1,6.188,0A4.58,4.58,0,0,1,13.119,18.6a.4.4,0,0,1-.4.4Zm0,0" fill="#ababab"/>
</svg>
