<svg xmlns="http://www.w3.org/2000/svg" width="41.788" height="26.532" viewBox="0 0 41.788 26.532">
  <g id="olimpics-games" transform="translate(0 -39.253)">
    <g id="Group_481" data-name="Group 481" transform="translate(0 39.253)">
      <g id="Group_480" data-name="Group 480">
        <g id="Group_479" data-name="Group 479">
          <path id="Path_390" data-name="Path 390" d="M19.292,52.907a5.638,5.638,0,1,0,0,11.276.663.663,0,1,0,0-1.326,4.314,4.314,0,1,1,3.689-2.082.663.663,0,0,0,1.134.688,5.637,5.637,0,0,0-4.823-8.556Z" transform="translate(-11.001 -50.254)" fill="#333"/>
          <path id="Path_391" data-name="Path 391" d="M8.291,39.253a8.291,8.291,0,0,0-1.1,16.51.623.623,0,0,0,.089.006.663.663,0,0,0,.086-1.321,6.962,6.962,0,1,1,7.558-4.785.663.663,0,1,0,1.263.4,8.293,8.293,0,0,0-7.9-10.815Z" transform="translate(0 -39.253)" fill="#333"/>
        </g>
      </g>
    </g>
    <g id="Group_484" data-name="Group 484" transform="translate(14.257 39.253)">
      <g id="Group_483" data-name="Group 483">
        <g id="Group_482" data-name="Group 482">
          <path id="Path_392" data-name="Path 392" d="M80,39.253a8.253,8.253,0,0,0-6.492,3.14.663.663,0,1,0,1.038.826,6.964,6.964,0,0,1,12.123,6.334.663.663,0,1,0,1.27.383A8.293,8.293,0,0,0,80,39.253Z" transform="translate(-73.368 -39.253)" fill="#333"/>
          <path id="Path_393" data-name="Path 393" d="M84.145,52.907a5.638,5.638,0,0,0-5.224,7.76.663.663,0,0,0,1.229-.5,4.312,4.312,0,1,1,7.686.606.663.663,0,0,0,1.134.688,5.636,5.636,0,0,0-4.825-8.553Z" transform="translate(-77.508 -50.254)" fill="#333"/>
        </g>
      </g>
    </g>
    <g id="Group_487" data-name="Group 487" transform="translate(6.633 49.203)">
      <g id="Group_486" data-name="Group 486" transform="translate(0 0)">
        <g id="Group_485" data-name="Group 485">
          <path id="Path_394" data-name="Path 394" d="M42.424,90.453a8.291,8.291,0,1,0,8.291,8.291A8.3,8.3,0,0,0,42.424,90.453Zm0,15.256a6.965,6.965,0,1,1,6.965-6.965A6.972,6.972,0,0,1,42.424,105.709Z" transform="translate(-34.133 -90.453)" fill="#333"/>
          <path id="Path_395" data-name="Path 395" d="M53.425,104.107a5.638,5.638,0,1,0,5.638,5.638A5.644,5.644,0,0,0,53.425,104.107Zm0,9.95a4.312,4.312,0,1,1,4.312-4.312A4.317,4.317,0,0,1,53.425,114.057Z" transform="translate(-45.134 -101.454)" fill="#333"/>
        </g>
      </g>
    </g>
    <g id="Group_490" data-name="Group 490" transform="translate(26.51 39.253)">
      <g id="Group_489" data-name="Group 489">
        <g id="Group_488" data-name="Group 488">
          <path id="Path_396" data-name="Path 396" d="M154.636,58.545a5.638,5.638,0,1,0-10.622,2.634.663.663,0,1,0,1.172-.621,4.311,4.311,0,1,1,4.251,2.278.663.663,0,0,0,.133,1.32A5.62,5.62,0,0,0,154.636,58.545Z" transform="translate(-142.012 -50.254)" fill="#333"/>
          <path id="Path_397" data-name="Path 397" d="M143.407,39.253a8.29,8.29,0,0,0-6.873,3.658.663.663,0,1,0,1.1.743,6.964,6.964,0,1,1,7.288,10.689.663.663,0,1,0,.288,1.3,8.292,8.292,0,0,0-1.8-16.385Z" transform="translate(-136.421 -39.253)" fill="#333"/>
        </g>
      </g>
    </g>
    <g id="Group_493" data-name="Group 493" transform="translate(20.576 49.203)">
      <g id="Group_492" data-name="Group 492" transform="translate(0 0)">
        <g id="Group_491" data-name="Group 491">
          <path id="Path_398" data-name="Path 398" d="M112.835,90.453a8.238,8.238,0,0,0-6.59,3.265.663.663,0,0,0,1.054.806,6.964,6.964,0,1,1-.205,8.159.663.663,0,1,0-1.093.752,8.29,8.29,0,1,0,6.834-12.981Z" transform="translate(-105.884 -90.453)" fill="#333"/>
          <path id="Path_399" data-name="Path 399" d="M118.278,115.383a5.638,5.638,0,1,0-5.638-5.638A5.644,5.644,0,0,0,118.278,115.383Zm0-9.95a4.312,4.312,0,1,1-4.312,4.312A4.317,4.317,0,0,1,118.278,105.433Z" transform="translate(-111.327 -101.454)" fill="#333"/>
        </g>
      </g>
    </g>
  </g>
</svg>
