<svg id="select-all" xmlns="http://www.w3.org/2000/svg" width="39.999" height="39.999" viewBox="0 0 39.999 39.999">
  <g id="Group_66" data-name="Group 66">
    <path id="Path_62" data-name="Path 62" d="M39.332,19.333H28V12.666A.666.666,0,0,0,27.333,12H20.666V.667a.667.667,0,0,0-1.333,0V12H12.666a.666.666,0,0,0-.667.667v6.666H.667a.667.667,0,0,0,0,1.333H12v6.666a.666.666,0,0,0,.667.667h6.666V39.332a.667.667,0,1,0,1.333,0V28h6.666A.666.666,0,0,0,28,27.333V20.666H39.332a.667.667,0,0,0,0-1.333Zm-20,7.333h-6v-6h6Zm0-7.333h-6v-6h6Zm7.333,7.333h-6v-6h6Zm0-7.333h-6v-6h6Z" transform="translate(0 0)" fill="#0cf"/>
  </g>
</svg>
