<svg xmlns="http://www.w3.org/2000/svg" width="51.153" height="58.495" viewBox="0 0 51.153 58.495">
  <path id="tik-tok" d="M49.439,12.849A11.148,11.148,0,0,1,38.3,1.714,1.714,1.714,0,0,0,36.59,0H27.412A1.714,1.714,0,0,0,25.7,1.714v37.63A6.546,6.546,0,1,1,19.151,32.8a1.714,1.714,0,0,0,1.714-1.714V21.905a1.714,1.714,0,0,0-1.714-1.714A19.152,19.152,0,1,0,38.3,39.344V22.687a23.575,23.575,0,0,0,11.135,2.768,1.714,1.714,0,0,0,1.714-1.714V14.563a1.714,1.714,0,0,0-1.714-1.714Zm-1.714,9.107A20.142,20.142,0,0,1,37.59,18.215a1.714,1.714,0,0,0-2.714,1.391V39.344A15.725,15.725,0,1,1,17.438,23.712v5.805a9.974,9.974,0,1,0,11.688,9.827V3.428h5.851A14.594,14.594,0,0,0,47.725,16.177Zm0,0" transform="translate(0 0)" fill="#fff"/>
</svg>
