<svg xmlns="http://www.w3.org/2000/svg" width="32" height="26.311" viewBox="0 0 32 26.311">
  <g id="wedding-rings" transform="translate(0 -45.517)">
    <g id="Group_540" data-name="Group 540" transform="translate(0 45.517)">
      <path id="Path_449" data-name="Path 449" d="M21.929,51.686A9.961,9.961,0,0,0,16,53.617a9.947,9.947,0,0,0-3.55-1.65l2.706-3.1,0,0a.467.467,0,0,0,.043-.06l.006-.01a.469.469,0,0,0,.031-.065l0-.011a.465.465,0,0,0,.02-.07v-.007a.475.475,0,0,0,.007-.069s0-.006,0-.009,0,0,0-.005a.476.476,0,0,0-.005-.066l0-.013a.456.456,0,0,0-.017-.069l0-.009a.469.469,0,0,0-.031-.069l0,0a.465.465,0,0,0-.045-.066v0l0,0L13.072,45.69a.47.47,0,0,0-.364-.173H7.433a.47.47,0,0,0-.364.173L4.977,48.259l0,0v0a.47.47,0,0,0-.045.066l0,0A.475.475,0,0,0,4.9,48.4l0,.009a.475.475,0,0,0-.017.069l0,.013a.468.468,0,0,0-.005.066s0,0,0,.005,0,.006,0,.009a.465.465,0,0,0,.007.069v.007a.461.461,0,0,0,.02.07l0,.011a.469.469,0,0,0,.031.065l.006.01a.475.475,0,0,0,.043.06l0,0,2.709,3.1a10.071,10.071,0,0,0,2.377,19.857A9.962,9.962,0,0,0,16,69.9a9.962,9.962,0,0,0,5.929,1.93,10.071,10.071,0,0,0,0-20.141Zm-9.445-5.23,1.329,1.631H12.285l-.526-1.631Zm-.207,2.571h1.491l-2.393,2.742-.043-.006ZM9.369,46.456h1.4l.526,1.631H8.843Zm1.915,2.571-.92,2.664c-.1,0-.2,0-.293,0l-.185,0-.109,0-.92-2.664ZM7.657,46.456h.725l-.526,1.631H6.328ZM6.372,49.027H7.863l.945,2.738-.043.005Zm3.7,21.861A9.131,9.131,0,0,1,8.658,52.735q.164-.025.328-.045l.041,0c.147-.017.3-.029.444-.039h.007c.109-.007.209-.012.3-.016s.192-.006.288-.006c.192,0,.383.012.591.026h.03l.022,0c.251.019.506.048.771.09a.471.471,0,0,0,.072.006h0a9.023,9.023,0,0,1,4.149,1.829q.189.149.371.308t.346.319q.091.089.18.18.253.26.486.539h0a9.131,9.131,0,0,1,.282,11.317l-.008-.006q-.1-.081-.192-.166l-.036-.033c-.051-.046-.1-.092-.15-.14l-.064-.063c-.039-.039-.078-.077-.116-.117l-.069-.072-.106-.115-.032-.036a8.046,8.046,0,0,0,1.446-3.536.47.47,0,1,0-.929-.138A7.1,7.1,0,0,1,16,65.71,7.13,7.13,0,0,1,16,57.8a7.08,7.08,0,0,1,1.16,3.217.47.47,0,0,0,.467.422l.049,0a.47.47,0,0,0,.419-.515,8.027,8.027,0,0,0-1.727-4.209A8.108,8.108,0,0,0,15.037,55.4q-.105-.083-.214-.161a8.066,8.066,0,0,0-10.034.42.47.47,0,1,0,.615.71,7.126,7.126,0,0,1,8.461-.645,10.068,10.068,0,0,0,0,12.063A7.127,7.127,0,0,1,4.214,57.7a.47.47,0,1,0-.771-.536,8.067,8.067,0,0,0,11.025,11.36l.035.038.094.1.091.1.1.1.093.093.1.1.1.09.1.093.067.062A9.027,9.027,0,0,1,10.071,70.888Zm11.859,0a9.038,9.038,0,0,1-5.639-1.949,9.132,9.132,0,0,1-1.665-12.662l.007.006q.1.081.193.166l.037.034c.05.046.1.092.149.139l.065.064c.039.038.077.077.115.116l.07.073.1.113.032.036a8.067,8.067,0,0,0,1.779,11.248,8.066,8.066,0,0,0,10.371-.729.47.47,0,1,0-.654-.674,7.125,7.125,0,0,1-8.758.917,10.068,10.068,0,0,0,0-12.063A7.127,7.127,0,0,1,28,65.491a.47.47,0,0,0,.8.493A8.067,8.067,0,0,0,17.532,54.994l-.034-.037-.1-.1-.088-.093-.1-.1-.09-.09-.1-.1-.092-.087-.105-.1-.065-.059a9.029,9.029,0,0,1,5.17-1.6,9.131,9.131,0,1,1,0,18.262Z" transform="translate(0 -45.517)" fill="#333"/>
    </g>
  </g>
</svg>
