<svg xmlns="http://www.w3.org/2000/svg" width="30.402" height="24.998" viewBox="0 0 30.402 24.998">
  <g id="wifi" transform="translate(0 -45.5)">
    <g id="Group_354" data-name="Group 354" transform="translate(13.364 66.72)">
      <g id="Group_353" data-name="Group 353" transform="translate(0 0)">
        <circle id="Ellipse_123" data-name="Ellipse 123" cx="2" cy="2" r="2" transform="translate(-0.163 -0.222)" fill="#333"/>
      </g>
    </g>
    <g id="Group_356" data-name="Group 356" transform="translate(0 45.5)">
      <g id="Group_355" data-name="Group 355" transform="translate(0 0)">
        <path id="Path_322" data-name="Path 322" d="M30.084,51.994a20.3,20.3,0,0,0-29.765,0,1.188,1.188,0,0,0,1.738,1.619,17.925,17.925,0,0,1,26.289,0,1.188,1.188,0,0,0,1.738-1.619Z" transform="translate(0 -45.5)" fill="#333"/>
      </g>
    </g>
    <g id="Group_358" data-name="Group 358" transform="translate(4.335 52.391)">
      <g id="Group_357" data-name="Group 357" transform="translate(0 0)">
        <path id="Path_323" data-name="Path 323" d="M94.386,166.055a14.534,14.534,0,0,0-21.044,0,1.188,1.188,0,0,0,1.686,1.673,12.161,12.161,0,0,1,17.672,0,1.188,1.188,0,0,0,1.686-1.673Z" transform="translate(-72.998 -161.547)" fill="#333"/>
      </g>
    </g>
    <g id="Group_360" data-name="Group 360" transform="translate(8.971 59.335)">
      <g id="Group_359" data-name="Group 359">
        <path id="Path_324" data-name="Path 324" d="M163.075,280.982a8.57,8.57,0,0,0-5.78-2.482h-.087a8.57,8.57,0,0,0-5.78,2.482,1.188,1.188,0,1,0,1.672,1.687,6.2,6.2,0,0,1,4.109-1.794h.087a6.2,6.2,0,0,1,4.108,1.794,1.188,1.188,0,0,0,1.672-1.687Z" transform="translate(-151.076 -278.5)" fill="#333"/>
      </g>
    </g>
  </g>
</svg>
