<svg xmlns="http://www.w3.org/2000/svg" width="30.696" height="29.087" viewBox="0 0 30.696 29.087">
  <path id="XMLID_113_" d="M7.76,26.47a8.106,8.106,0,0,0-2.353,1,.623.623,0,0,1-.774-.976,9.51,9.51,0,0,1,2.775-1.216.623.623,0,0,1,.352,1.2Zm8.437,4.1a5.292,5.292,0,0,1-.9,4.336,5.56,5.56,0,0,1-3.391,2.05,6.005,6.005,0,0,1-1.147.112A5.4,5.4,0,0,1,8,36.331a5.292,5.292,0,0,1-2.46-3.682l-.006-.032a.623.623,0,0,1,.362-.689c.455-.2.972-.394,1.537-.578a.623.623,0,0,1,.531.069c2.147,1.388,4.059,1.016,5.528-1.076a.623.623,0,0,1,.467-.264c.593-.041,1.145-.055,1.642-.041a.623.623,0,0,1,.594.5l.006.031Zm-1.153.707c-.228,0-.467.011-.716.025A4.908,4.908,0,0,1,10.4,33.5a5.609,5.609,0,0,1-2.862-.871q-.353.121-.673.246a4,4,0,0,0,4.8,2.864A4,4,0,0,0,15.045,31.281Zm-3.228-5.6a8.108,8.108,0,0,1,2.555.042.623.623,0,0,0,.352-1.2,9.218,9.218,0,0,0-3.029-.086.623.623,0,1,0,.122,1.24Zm7.333-7.949.059,0a.623.623,0,0,0,.058-1.243,8.106,8.106,0,0,1-2.5-.529.623.623,0,0,0-.573,1.106A9.509,9.509,0,0,0,19.15,17.731Zm4.308,0,.059,0a9.217,9.217,0,0,0,2.957-.664.623.623,0,0,0-.574-1.106,8.106,8.106,0,0,1-2.5.529.623.623,0,0,0,.058,1.243ZM20.069,29.889c.848,4.355-2.237,8.888-7.336,10.778a.625.625,0,0,1-.2.039c-.138,0-.276.006-.412.006-5.253,0-9.605-3-10.432-7.244L.02,24.89c-.166-.853.669-1.638,2.629-2.47a31.854,31.854,0,0,1,6.086-1.753,31.777,31.777,0,0,1,6.3-.659c2.129.036,3.2.45,3.364,1.3Zm-1.223.238-1.659-8.519a5.325,5.325,0,0,0-2.56-.356,32.128,32.128,0,0,0-5.653.638,32.132,32.132,0,0,0-5.48,1.53,5.28,5.28,0,0,0-2.239,1.29L2.914,33.23c.726,3.727,4.705,6.336,9.482,6.233C16.862,37.766,19.572,33.854,18.846,30.127Zm8.8-17.945a31.859,31.859,0,0,0-6.309-.557,31.854,31.854,0,0,0-6.309.557c-2.083.442-3.053,1.053-3.053,1.922v3.822a.623.623,0,0,0,1.246,0V14.164a5.278,5.278,0,0,1,2.445-.838,32.13,32.13,0,0,1,5.671-.454,32.13,32.13,0,0,1,5.671.454,5.278,5.278,0,0,1,2.445.838v8.679c0,3.5-2.845,6.6-7.079,7.706a.623.623,0,1,0,.316,1.205,11.772,11.772,0,0,0,5.71-3.314,8.184,8.184,0,0,0,2.3-5.6V14.1C30.7,13.235,29.726,12.625,27.643,12.182ZM24.249,26.676a.616.616,0,0,0,.076,0c.59-.073,1.135-.165,1.62-.274a.623.623,0,0,0,.487-.608v-.031a5.311,5.311,0,0,0-1.646-4.022,5.613,5.613,0,0,0-4.253-1.41.623.623,0,0,0,.1,1.242,4.365,4.365,0,0,1,3.31,1.082,3.967,3.967,0,0,1,1.226,2.634c-.225.041-.461.079-.707.113a5.326,5.326,0,0,0-3.121-1.466.623.623,0,1,0-.1,1.242A4.279,4.279,0,0,1,23.817,26.5.623.623,0,0,0,24.249,26.676Z" transform="translate(0 -11.625)" fill="#333"/>
</svg>
