<svg xmlns="http://www.w3.org/2000/svg" width="28" height="25.813" viewBox="0 0 28 25.813">
  <g id="anniversary" transform="translate(0 -20)">
    <path id="XMLID_2772_" d="M26.359,22.188H24.293v-.426a1.762,1.762,0,0,0-3.524,0v.426H18.606v-.426a1.762,1.762,0,0,0-3.524,0v.426H12.918v-.426a1.762,1.762,0,0,0-3.524,0v.426H7.231v-.426a1.762,1.762,0,0,0-3.524,0v.426H1.641A1.642,1.642,0,0,0,0,23.828V44.172a1.642,1.642,0,0,0,1.641,1.641H26.359A1.642,1.642,0,0,0,28,44.172V23.828A1.642,1.642,0,0,0,26.359,22.188Zm-4.5-.426a.668.668,0,0,1,1.336,0v2.82a.668.668,0,0,1-1.336,0Zm-5.688,0a.668.668,0,1,1,1.336,0v2.82a.668.668,0,1,1-1.336,0Zm-5.688,0a.668.668,0,0,1,1.336,0v2.82a.668.668,0,0,1-1.336,0Zm-5.688,0a.668.668,0,0,1,1.336,0v2.82a.668.668,0,0,1-1.336,0Zm-3.16,1.519H3.707v1.3a1.762,1.762,0,0,0,3.524,0v-1.3H9.394v1.3a1.762,1.762,0,0,0,3.524,0v-1.3h2.164v1.3a1.762,1.762,0,0,0,3.524,0v-1.3h2.164v1.3a1.762,1.762,0,0,0,3.524,0v-1.3h2.066a.547.547,0,0,1,.547.547v5.688H1.094V23.828a.547.547,0,0,1,.547-.547ZM1.094,44.172V30.609H26.906v8.914H22.8a1.094,1.094,0,0,0-1.094,1.094v4.1H1.641a.547.547,0,0,1-.547-.547Zm25.266.547h-4.1l4.648-4.648v4.1A.547.547,0,0,1,26.359,44.719Z" fill="#333"/>
    <path id="XMLID_2779_" d="M187.6,266.525a2.435,2.435,0,0,0-3.443,0,2.435,2.435,0,0,0-3.443,3.443l3.443,3.443,3.443-3.443A2.435,2.435,0,0,0,187.6,266.525Z" transform="translate(-170.157 -232.369)" fill="#333"/>
  </g>
</svg>
