<svg xmlns="http://www.w3.org/2000/svg" width="55.766" height="55.869" viewBox="0 0 55.766 55.869">
  <g id="booking" transform="translate(-0.474)">
    <path id="Path_113" data-name="Path 113" d="M360.487,83.037h4.2a.819.819,0,1,0,0-1.638h-4.2a.819.819,0,1,0,0,1.638Z" transform="translate(-319.963 -72.509)" fill="#fff"/>
    <path id="Path_114" data-name="Path 114" d="M52.3,81.4H48.214a.819.819,0,1,0,0,1.638H52.3A2.309,2.309,0,0,1,54.6,85.344v28.969H10.55a.819.819,0,1,0,0,1.638H54.6v.882a2.309,2.309,0,0,1-2.306,2.306H4.419a2.309,2.309,0,0,1-2.306-2.306v-.882H7.059a.819.819,0,1,0,0-1.638H2.112V85.344a2.309,2.309,0,0,1,2.306-2.306H16.19a.819.819,0,0,0,0-1.638H4.419A3.949,3.949,0,0,0,.474,85.344v31.489a3.949,3.949,0,0,0,3.945,3.945H17.981v3.2L15.92,126.74h-.989a.819.819,0,0,0,0,1.638H42.012a.819.819,0,0,0,0-1.638H40.9l-2.061-2.764v-3.2H52.3a3.949,3.949,0,0,0,3.945-3.945V85.344A3.95,3.95,0,0,0,52.3,81.4ZM37.366,124.737l1.493,2h-20.9l1.493-2a.818.818,0,0,0,.163-.49v-3.47H37.2v3.47a.819.819,0,0,0,.163.49Z" transform="translate(0 -72.509)" fill="#fff"/>
    <path id="Path_115" data-name="Path 115" d="M176.579,19.419a9.709,9.709,0,1,0-9.709-9.71A9.72,9.72,0,0,0,176.579,19.419Zm0-17.781a8.071,8.071,0,1,1-8.071,8.071,8.08,8.08,0,0,1,8.071-8.071Z" transform="translate(-148.222)" fill="#fff"/>
    <path id="Path_116" data-name="Path 116" d="M220.577,68.6a.819.819,0,0,0,1.12-.017l5.825-5.624a.819.819,0,0,0-1.138-1.179l-5.273,5.091-1.642-1.492a.819.819,0,1,0-1.1,1.212Z" transform="translate(-193.857 -54.826)" fill="#fff"/>
    <path id="Path_117" data-name="Path 117" d="M99.938,210.748h23.045a.819.819,0,1,0,0-1.638H99.938a2.136,2.136,0,0,0-2.133,2.133v4.84a2.136,2.136,0,0,0,2.133,2.133H113.4a.819.819,0,0,0,0-1.638H99.938a.5.5,0,0,1-.495-.5v-4.84A.5.5,0,0,1,99.938,210.748Z" transform="translate(-86.701 -186.271)" fill="#fff"/>
    <path id="Path_118" data-name="Path 118" d="M353.618,210.748h3.7a.5.5,0,0,1,.495.5v4.84a.5.5,0,0,1-.495.5h-3.13a.819.819,0,0,0,0,1.638h3.13a2.136,2.136,0,0,0,2.133-2.133v-4.84a2.136,2.136,0,0,0-2.133-2.133h-3.7a.819.819,0,1,0,0,1.638Z" transform="translate(-313.844 -186.271)" fill="#fff"/>
    <path id="Path_119" data-name="Path 119" d="M269.342,267.445a1.314,1.314,0,0,0-.907-1.067l-6.174-1.967a1.323,1.323,0,0,0-1.722,1.183l-.378,6.469a1.323,1.323,0,0,0,2.069,1.167l1.222-.84,1.5,2.185a1.286,1.286,0,0,0,.831.54,1.3,1.3,0,0,0,.239.022,1.286,1.286,0,0,0,.731-.228l1.973-1.355a1.3,1.3,0,0,0,.334-1.8l-1.5-2.185,1.222-.84A1.314,1.314,0,0,0,269.342,267.445Zm-3.232,5.92-1.771-2.577a.819.819,0,0,0-.526-.341.808.808,0,0,0-.149-.014.819.819,0,0,0-.464.144l-1.366.939.316-5.42,5.173,1.648-1.366.939a.819.819,0,0,0-.211,1.139l1.771,2.578Z" transform="translate(-231.322 -235.476)" fill="#fff"/>
  </g>
</svg>
