<svg xmlns="http://www.w3.org/2000/svg" width="14.957" height="21.557" viewBox="0 0 14.957 21.557">
  <g id="building" transform="translate(-4.847)">
    <path id="Path_363" data-name="Path 363" d="M9.343,21.557v-4h5.965v4h4.5V0H4.847V21.557ZM15.309,1.98h2.516V4.5H15.309Zm0,3.658h2.516V8.155H15.309Zm0,3.658h2.516v2.515H15.309Zm0,3.657h2.516v2.517H15.309ZM11.068,1.98h2.517V4.5H11.068Zm0,3.658h2.517V8.155H11.068Zm0,3.658h2.517v2.515H11.068Zm0,3.657h2.517v2.517H11.068ZM6.828,1.98H9.344V4.5H6.828Zm0,3.658H9.344V8.155H6.828Zm0,3.658H9.344v2.515H6.828Zm0,3.657H9.344v2.517H6.828Z" fill="#ababab"/>
  </g>
</svg>
