<svg xmlns="http://www.w3.org/2000/svg" width="32" height="30.673" viewBox="0 0 32 30.673">
  <g id="cake_1_" data-name="cake (1)" transform="translate(0 -10.614)">
    <g id="Group_516" data-name="Group 516" transform="translate(10.454 28.742)">
      <g id="Group_515" data-name="Group 515">
        <path id="Path_427" data-name="Path 427" d="M168.5,301.159a.631.631,0,0,0-.036-.117.617.617,0,0,0-.057-.108.638.638,0,0,0-.078-.1.624.624,0,0,0-.681-.135.615.615,0,0,0-.108.057.608.608,0,0,0-.173.172.618.618,0,0,0-.057.108.632.632,0,0,0-.036.117.616.616,0,0,0-.012.122.628.628,0,0,0,.012.123.662.662,0,0,0,.036.117.635.635,0,0,0,.057.108.6.6,0,0,0,.078.1.639.639,0,0,0,.095.078.617.617,0,0,0,.108.057.63.63,0,0,0,.117.036.613.613,0,0,0,.122.012.63.63,0,0,0,.442-.183.622.622,0,0,0,.136-.2.661.661,0,0,0,.036-.117.627.627,0,0,0,.012-.122A.616.616,0,0,0,168.5,301.159Z" transform="translate(-167.26 -300.657)" fill="#333"/>
      </g>
    </g>
    <g id="Group_518" data-name="Group 518" transform="translate(0 10.614)">
      <g id="Group_517" data-name="Group 517">
        <path id="Path_428" data-name="Path 428" d="M31.375,40.037H30.08V30.612a1.873,1.873,0,0,0-1.871-1.871H27.142V22.576a1.873,1.873,0,0,0-1.871-1.871H23.353V18.891A2.536,2.536,0,0,0,25,15.309l-1.715-3.475a.625.625,0,0,0-1.121,0l-1.715,3.475A2.536,2.536,0,0,0,22.1,18.891v1.815H16.625V18.019a2.536,2.536,0,0,0,1.651-3.582L16.56,10.962a.625.625,0,0,0-1.121,0l-1.715,3.475a2.536,2.536,0,0,0,1.651,3.582v2.687H9.9V18.893a2.539,2.539,0,0,0,1.651-3.584L9.833,11.835a.625.625,0,0,0-1.121,0L7,15.309a2.539,2.539,0,0,0,1.651,3.584v1.813H6.729a1.873,1.873,0,0,0-1.871,1.871v6.165H3.79A1.873,1.873,0,0,0,1.92,30.612v9.425H.625a.625.625,0,0,0,0,1.25h30.75a.625.625,0,0,0,0-1.25ZM21.817,17.343a1.287,1.287,0,0,1-.244-1.48l1.155-2.339,1.155,2.339a1.288,1.288,0,0,1-2.065,1.48Zm-6.728-.872a1.287,1.287,0,0,1-.244-1.48L16,12.651l1.155,2.339a1.288,1.288,0,0,1-2.065,1.48Zm-6.728.872a1.287,1.287,0,0,1-.244-1.48l1.155-2.339,1.155,2.339a1.288,1.288,0,0,1-2.065,1.48ZM6.729,21.956H25.271a.622.622,0,0,1,.621.621v1.962a3.024,3.024,0,0,1-.922.126,2.927,2.927,0,0,1-1.9-.643,4.359,4.359,0,0,0-5.179,0,3.118,3.118,0,0,1-3.792,0,4.139,4.139,0,0,0-2.589-.853,4.139,4.139,0,0,0-2.589.853,2.926,2.926,0,0,1-1.9.643,3.026,3.026,0,0,1-.922-.126V22.576h0A.622.622,0,0,1,6.729,21.956Zm22.1,18.082H3.17V34.03a3.173,3.173,0,0,1,1.271.59,4.138,4.138,0,0,0,2.589.853,4.139,4.139,0,0,0,2.589-.853,2.926,2.926,0,0,1,1.9-.643,2.927,2.927,0,0,1,1.9.643,4.358,4.358,0,0,0,5.178,0,3.118,3.118,0,0,1,3.792,0,4.359,4.359,0,0,0,5.179,0,3.174,3.174,0,0,1,1.271-.59Zm0-7.271a4.218,4.218,0,0,0-1.964.815,3.119,3.119,0,0,1-3.792,0,4.359,4.359,0,0,0-5.179,0,3.118,3.118,0,0,1-3.792,0,4.138,4.138,0,0,0-2.589-.853,4.139,4.139,0,0,0-2.589.853,2.926,2.926,0,0,1-1.9.643,2.926,2.926,0,0,1-1.9-.643,4.218,4.218,0,0,0-1.964-.815V30.612a.622.622,0,0,1,.621-.621h4.8a.625.625,0,0,0,0-1.25H6.108V25.827a4.573,4.573,0,0,0,.922.088,4.139,4.139,0,0,0,2.589-.853,2.926,2.926,0,0,1,1.9-.643,2.926,2.926,0,0,1,1.9.643,4.358,4.358,0,0,0,5.178,0,3.118,3.118,0,0,1,3.792,0,4.139,4.139,0,0,0,2.589.853,4.576,4.576,0,0,0,.922-.088v2.915H13.571a.625.625,0,1,0,0,1.25H28.21a.622.622,0,0,1,.621.621v2.154Z" transform="translate(0 -10.614)" fill="#333"/>
      </g>
    </g>
    <g id="Group_520" data-name="Group 520" transform="translate(4.858 37.982)">
      <g id="Group_519" data-name="Group 519">
        <path id="Path_429" data-name="Path 429" d="M78.968,449a.63.63,0,0,0-.036-.117.616.616,0,0,0-.136-.2.626.626,0,0,0-.884,0,.658.658,0,0,0-.078.1.665.665,0,0,0-.057.108.63.63,0,0,0-.036.117.634.634,0,0,0,0,.244.631.631,0,0,0,.036.117.627.627,0,0,0,.135.2.63.63,0,0,0,.442.183.621.621,0,0,0,.122-.012.632.632,0,0,0,.319-.171.616.616,0,0,0,.136-.2.631.631,0,0,0,.036-.117.6.6,0,0,0,0-.244Z" transform="translate(-77.73 -448.501)" fill="#333"/>
      </g>
    </g>
    <g id="Group_522" data-name="Group 522" transform="translate(11.575 36.113)">
      <g id="Group_521" data-name="Group 521">
        <path id="Path_430" data-name="Path 430" d="M186.438,419.1a.631.631,0,0,0-.036-.117.617.617,0,0,0-.136-.2.6.6,0,0,0-.095-.078.637.637,0,0,0-.107-.057.661.661,0,0,0-.117-.036.617.617,0,0,0-.244,0,.63.63,0,0,0-.117.036.619.619,0,0,0-.108.057.6.6,0,0,0-.095.078.624.624,0,0,0-.078.1.665.665,0,0,0-.057.108.632.632,0,0,0-.036.117.6.6,0,0,0,0,.244.633.633,0,0,0,.036.117.665.665,0,0,0,.057.108.606.606,0,0,0,.173.172.615.615,0,0,0,.108.057.63.63,0,0,0,.117.036.616.616,0,0,0,.122.013.627.627,0,0,0,.122-.013.661.661,0,0,0,.117-.036.635.635,0,0,0,.2-.135.671.671,0,0,0,.078-.1.663.663,0,0,0,.058-.108.632.632,0,0,0,.036-.117.635.635,0,0,0,0-.244Z" transform="translate(-185.2 -418.594)" fill="#333"/>
      </g>
    </g>
    <g id="Group_524" data-name="Group 524" transform="translate(18.801 37.982)">
      <g id="Group_523" data-name="Group 523">
        <path id="Path_431" data-name="Path 431" d="M302.057,449a.631.631,0,0,0-.036-.117.667.667,0,0,0-.057-.108.658.658,0,0,0-.078-.1.635.635,0,0,0-.1-.078.618.618,0,0,0-.108-.057.633.633,0,0,0-.117-.036.618.618,0,0,0-.244,0,.664.664,0,0,0-.117.036.634.634,0,0,0-.2.135.708.708,0,0,0-.078.1.665.665,0,0,0-.057.108.629.629,0,0,0-.036.117.633.633,0,0,0,0,.244.629.629,0,0,0,.036.117.665.665,0,0,0,.057.108.672.672,0,0,0,.078.1.6.6,0,0,0,.1.077.634.634,0,0,0,.107.057.664.664,0,0,0,.117.036.622.622,0,0,0,.642-.266.667.667,0,0,0,.057-.108.631.631,0,0,0,.036-.117.6.6,0,0,0,0-.244Z" transform="translate(-300.82 -448.494)" fill="#333"/>
      </g>
    </g>
    <g id="Group_526" data-name="Group 526" transform="translate(25.892 36.486)">
      <g id="Group_525" data-name="Group 525">
        <path id="Path_432" data-name="Path 432" d="M415.517,425.073a.631.631,0,0,0-.036-.117.638.638,0,0,0-.057-.108.625.625,0,0,0-.962-.1.666.666,0,0,0-.077.1.638.638,0,0,0-.058.108.631.631,0,0,0-.036.117.613.613,0,0,0-.012.122.62.62,0,0,0,.012.123.625.625,0,0,0,.093.224.671.671,0,0,0,.077.1.7.7,0,0,0,.1.077.662.662,0,0,0,.108.058.631.631,0,0,0,.117.036.619.619,0,0,0,.122.012.625.625,0,0,0,.577-.386.646.646,0,0,0,.036-.117.621.621,0,0,0,.013-.123A.613.613,0,0,0,415.517,425.073Z" transform="translate(-414.28 -424.57)" fill="#333"/>
      </g>
    </g>
    <g id="Group_528" data-name="Group 528" transform="translate(19.673 26.27)">
      <g id="Group_527" data-name="Group 527">
        <path id="Path_433" data-name="Path 433" d="M316.008,261.617a.66.66,0,0,0-.036-.117.624.624,0,0,0-.136-.2.6.6,0,0,0-.1-.078.633.633,0,0,0-.107-.057.661.661,0,0,0-.117-.036.618.618,0,0,0-.244,0,.631.631,0,0,0-.117.036.617.617,0,0,0-.108.057.6.6,0,0,0-.1.078.6.6,0,0,0-.077.1.631.631,0,0,0-.058.107.66.66,0,0,0-.036.117.625.625,0,0,0-.013.122.614.614,0,0,0,.013.122.63.63,0,0,0,.036.117.64.64,0,0,0,.058.108.608.608,0,0,0,.172.172.617.617,0,0,0,.108.057.633.633,0,0,0,.117.036.619.619,0,0,0,.122.012.63.63,0,0,0,.122-.012.664.664,0,0,0,.117-.036.633.633,0,0,0,.107-.057.6.6,0,0,0,.1-.078.628.628,0,0,0,.171-.32.613.613,0,0,0,.012-.122A.624.624,0,0,0,316.008,261.617Z" transform="translate(-314.77 -261.114)" fill="#333"/>
      </g>
    </g>
    <g id="Group_530" data-name="Group 530" transform="translate(11.513 25.419)">
      <g id="Group_529" data-name="Group 529">
        <path id="Path_434" data-name="Path 434" d="M185.447,248a.63.63,0,0,0-.036-.117.663.663,0,0,0-.058-.108.608.608,0,0,0-.173-.173.665.665,0,0,0-.108-.057.63.63,0,0,0-.117-.036.618.618,0,0,0-.244,0,.631.631,0,0,0-.117.036.621.621,0,0,0-.338.338.63.63,0,0,0-.036.117.634.634,0,0,0,0,.244.631.631,0,0,0,.036.117.663.663,0,0,0,.058.108.607.607,0,0,0,.173.172.662.662,0,0,0,.108.058.631.631,0,0,0,.117.036.623.623,0,0,0,.122.013.616.616,0,0,0,.122-.013.63.63,0,0,0,.117-.036.629.629,0,0,0,.2-.135.7.7,0,0,0,.077-.1.663.663,0,0,0,.058-.108.631.631,0,0,0,.036-.117.635.635,0,0,0,0-.244Z" transform="translate(-184.21 -247.495)" fill="#333"/>
      </g>
    </g>
  </g>
</svg>
