<svg id="celeb_fulfil_request" data-name="celeb fulfil request" xmlns="http://www.w3.org/2000/svg" width="49.184" height="49.184" viewBox="0 0 49.184 49.184">
  <g id="XMLID_1021_" transform="translate(0)">
    <path id="XMLID_1068_" d="M47.286,63.574a.961.961,0,0,0-.4-1.3,15.065,15.065,0,0,0-16.613,1.659l-1.552-1.552,2.535-2.535A.961.961,0,1,0,29.9,58.488l-2.535,2.535L21.18,54.838a13.43,13.43,0,0,0,1.091-14.33.961.961,0,0,0-1.7.9,11.44,11.44,0,0,1-.769,12.054L15.73,49.387a2.357,2.357,0,0,0-3.88.856L.147,82.167a2.362,2.362,0,0,0,2.2,3.172,2.384,2.384,0,0,0,.821-.147L35.1,73.49a2.357,2.357,0,0,0,.856-3.88L31.642,65.3a13.141,13.141,0,0,1,14.345-1.329.961.961,0,0,0,1.3-.4ZM15.3,78.7,6.639,70.039l2.4-6.547L21.847,76.3Zm-4.694,1.721L4.919,74.733l.992-2.706,7.4,7.4Zm-8.1,2.967a.436.436,0,0,1-.56-.56L4.19,76.721,8.618,81.15Zm32.2-12.018a.424.424,0,0,1-.276.316l-5.906,2.165-5.464-5.464a.961.961,0,1,0-1.359,1.358l4.834,4.834-2.706.992L9.768,61.5,10.76,58.8l4.834,4.834a.961.961,0,1,0,1.358-1.359L11.489,56.81,13.653,50.9a.425.425,0,0,1,.316-.276.463.463,0,0,1,.1-.011.418.418,0,0,1,.3.128L34.593,70.968A.425.425,0,0,1,34.711,71.37Z" transform="translate(0 -36.156)" fill="#fff"/>
    <path id="XMLID_1441_" d="M292.558,16.188a.961.961,0,0,0,.961-.961,1.461,1.461,0,0,1,1.459-1.459,3.384,3.384,0,0,0,3.38-3.38.961.961,0,1,0-1.921,0,1.461,1.461,0,0,1-1.459,1.459,3.384,3.384,0,0,0-3.38,3.38A.961.961,0,0,0,292.558,16.188Z" transform="translate(-263.586 -8.522)" fill="#fff"/>
    <path id="XMLID_1462_" d="M381.28,108.495A3.5,3.5,0,0,0,384.771,105a1.572,1.572,0,0,1,1.57-1.57.961.961,0,0,0,0-1.921A3.5,3.5,0,0,0,382.849,105a1.572,1.572,0,0,1-1.57,1.57.961.961,0,0,0,0,1.921Z" transform="translate(-343.785 -91.762)" fill="#fff"/>
    <path id="XMLID_1489_" d="M448,164.559a3.074,3.074,0,1,0,3.074-3.074A3.077,3.077,0,0,0,448,164.559Zm3.074-1.153a1.153,1.153,0,1,1-1.153,1.153A1.154,1.154,0,0,1,451.076,163.406Z" transform="translate(-404.966 -145.973)" fill="#fff"/>
    <path id="XMLID_1502_" d="M286.184,112a3.074,3.074,0,1,0-3.074-3.074A3.077,3.077,0,0,0,286.184,112Zm0-4.227a1.153,1.153,0,1,1-1.153,1.153A1.154,1.154,0,0,1,286.184,107.775Z" transform="translate(-255.914 -95.686)" fill="#fff"/>
    <path id="XMLID_1619_" d="M99.076,6.148A3.074,3.074,0,1,0,96,3.074,3.077,3.077,0,0,0,99.076,6.148Zm0-4.227a1.153,1.153,0,1,1-1.153,1.153A1.154,1.154,0,0,1,99.076,1.921Z" transform="translate(-86.78)" fill="#fff"/>
    <path id="XMLID_1620_" d="M437.073,348.41a.961.961,0,1,0-1.359,1.358l.906.906a.961.961,0,0,0,1.358-1.359Z" transform="translate(-393.605 -314.687)" fill="#fff"/>
    <path id="XMLID_1659_" d="M484.213,395.551a.961.961,0,1,0-1.359,1.359l.906.906a.961.961,0,0,0,1.359-1.359Z" transform="translate(-436.217 -357.299)" fill="#fff"/>
    <path id="XMLID_1690_" d="M483.76,348.41l-.906.906a.961.961,0,1,0,1.359,1.358l.906-.906a.961.961,0,0,0-1.359-1.358Z" transform="translate(-436.217 -314.687)" fill="#fff"/>
    <path id="XMLID_1712_" d="M436.62,395.551l-.906.906a.961.961,0,1,0,1.358,1.359l.906-.906a.961.961,0,1,0-1.358-1.359Z" transform="translate(-393.605 -357.299)" fill="#fff"/>
    <path id="XMLID_1715_" d="M483.534,2.827a.957.957,0,0,0,.679-.281l.906-.906A.961.961,0,1,0,483.76.282l-.906.906a.961.961,0,0,0,.679,1.64Z" transform="translate(-436.217 0)" fill="#fff"/>
    <path id="XMLID_1747_" d="M436.393,49.966a.957.957,0,0,0,.679-.281l.906-.906a.961.961,0,0,0-1.359-1.359l-.906.906a.961.961,0,0,0,.679,1.64Z" transform="translate(-393.604 -42.611)" fill="#fff"/>
    <path id="XMLID_1750_" d="M484.213,47.422a.961.961,0,1,0-1.359,1.359l.906.906a.961.961,0,0,0,1.359-1.359Z" transform="translate(-436.217 -42.612)" fill="#fff"/>
    <path id="XMLID_1751_" d="M436.619,2.546a.961.961,0,0,0,1.358-1.358l-.906-.906a.961.961,0,1,0-1.359,1.358Z" transform="translate(-393.604 0)" fill="#fff"/>
    <path id="XMLID_1755_" d="M192.182,300.78a.961.961,0,1,0,.679.281A.968.968,0,0,0,192.182,300.78Z" transform="translate(-172.852 -271.887)" fill="#fff"/>
    <path id="XMLID_1756_" d="M337.917,193.969l-.7.7a.961.961,0,1,0,1.358,1.359l.7-.7a.961.961,0,0,0-1.359-1.359Z" transform="translate(-304.572 -175.081)" fill="#fff"/>
  </g>
</svg>
