<svg xmlns="http://www.w3.org/2000/svg" width="30.415" height="23.224" viewBox="0 0 30.415 23.224">
  <g id="couple" transform="translate(-0.001 -48.187)">
    <g id="Group_327" data-name="Group 327" transform="translate(0.001 48.187)">
      <path id="Path_316" data-name="Path 316" d="M28.658,49.909A5.594,5.594,0,0,0,24.217,48.2a7.549,7.549,0,0,0-4.543,2.609A7.577,7.577,0,0,0,15.125,48.2a5.594,5.594,0,0,0-4.442,1.707,5.224,5.224,0,0,0-1.707,3.319A5.922,5.922,0,0,0,5.7,52.141a5.767,5.767,0,0,0-3.946,1.743A5.462,5.462,0,0,0,.087,58.863c.651,4.591,5.97,10.262,10.393,12.483a.6.6,0,0,0,.537,0,23.031,23.031,0,0,0,6.424-5.158A17.232,17.232,0,0,0,19.4,67.382a.6.6,0,0,0,.537,0c4.394-2.215,9.743-7.9,10.387-12.495A5.463,5.463,0,0,0,28.658,49.909ZM10.749,70.146c-4.077-2.179-8.9-7.313-9.48-11.45a4.262,4.262,0,0,1,1.3-3.934A4.621,4.621,0,0,1,5.7,53.347c2.561,0,4.537,2.7,4.555,2.728a.592.592,0,0,0,.967,0s1.988-2.728,4.579-2.728a4.621,4.621,0,0,1,3.134,1.415A4.262,4.262,0,0,1,20.247,58.7C19.644,62.833,14.826,67.967,10.749,70.146Zm18.4-15.426c-.6,4.131-5.373,9.271-9.48,11.444a16.648,16.648,0,0,1-1.475-.9,14.217,14.217,0,0,0,3.194-6.406,5.462,5.462,0,0,0-1.672-4.979,5.767,5.767,0,0,0-3.91-1.731c-2.358,0-4.179,1.7-5.039,2.633a6.241,6.241,0,0,0-.6-.6A4.179,4.179,0,0,1,11.519,50.8a4.477,4.477,0,0,1,3.5-1.4c2.388.239,4.179,2.686,4.179,2.71a.592.592,0,0,0,.967,0s1.791-2.466,4.179-2.7a4.471,4.471,0,0,1,3.51,1.4A4.262,4.262,0,0,1,29.148,54.72Z" transform="translate(-0.001 -48.187)" fill="#333"/>
    </g>
  </g>
</svg>
