<svg id="disneyland-paris-castle" xmlns="http://www.w3.org/2000/svg" width="48.445" height="69.617" viewBox="0 0 48.445 69.617">
  <g id="Group_77" data-name="Group 77">
    <path id="Path_67" data-name="Path 67" d="M128.411,52.26h-1.77V48.493h.117a.51.51,0,0,0,.51-.511V42.748h1.142a.51.51,0,0,0,.315-.912c-1.468-1.153-5.277-4.64-5.277-6.9V32.751l3.528-1.683.014-.009a.533.533,0,0,0,.053-.032l.029-.02a.521.521,0,0,0,.047-.043c.007-.007.015-.014.022-.021a.51.51,0,0,0,.095-.161c0-.011.006-.022.009-.032a.5.5,0,0,0,.014-.052s0,0,0-.007a.49.49,0,0,0,0-.061c0-.013,0-.027,0-.04a.4.4,0,0,0-.006-.05.462.462,0,0,0-.007-.05c0-.013-.008-.025-.012-.037a.52.52,0,0,0-.021-.058.036.036,0,0,0,0-.007.3.3,0,0,0-.018-.03c-.01-.017-.019-.034-.03-.049s-.021-.025-.031-.037a.489.489,0,0,0-.035-.037.443.443,0,0,0-.038-.03.5.5,0,0,0-.041-.03c-.014-.009-.029-.015-.043-.022a.5.5,0,0,0-.046-.021c-.018-.007-.036-.011-.054-.015s-.023-.008-.036-.01l-3.819-.684c-.015,0-.029,0-.044,0s-.03,0-.046,0h-.007c-.019,0-.037,0-.056.006s-.031,0-.046.006a.468.468,0,0,0-.048.015c-.016,0-.032.009-.046.015a.429.429,0,0,0-.044.024.448.448,0,0,0-.041.023.511.511,0,0,0-.043.036c-.011.009-.021.017-.031.026s-.025.03-.037.045-.017.02-.025.031a.374.374,0,0,0-.025.046c-.008.014-.016.028-.022.043s-.009.028-.013.042a.544.544,0,0,0-.016.057s0,0,0,.006a.334.334,0,0,0,0,.046c0,.015,0,.029,0,.044v5.012c0,1.8-2.406,4.366-4.13,5.925V25.644h.137a2.144,2.144,0,1,0,0-4.289h-.109V17.788h.072a.51.51,0,0,0,.51-.51V12.454h1.024a.511.511,0,0,0,.315-.912c-1.359-1.068-4.886-4.295-4.886-6.378V3.159l3.256-1.553.014-.008a.481.481,0,0,0,.053-.032l.029-.02a.5.5,0,0,0,.047-.043c.007-.007.015-.014.022-.021a.506.506,0,0,0,.1-.161c0-.011.006-.022.009-.032s.011-.034.014-.051c0,0,0,0,0-.007a.526.526,0,0,0,0-.061c0-.013,0-.026,0-.039a.391.391,0,0,0-.006-.049.427.427,0,0,0-.007-.05c0-.013-.008-.025-.012-.037a.512.512,0,0,0-.021-.058l0-.007c-.005-.011-.012-.02-.019-.031a.512.512,0,0,0-.03-.049c-.01-.014-.021-.026-.032-.038a.448.448,0,0,0-.033-.036.5.5,0,0,0-.04-.032.387.387,0,0,0-.039-.028C118.652.7,118.636.7,118.62.688a.434.434,0,0,0-.041-.019.5.5,0,0,0-.059-.017c-.011,0-.02-.007-.031-.009L114.942.008a.43.43,0,0,0-.045,0c-.015,0-.03,0-.046,0h-.006a.483.483,0,0,0-.057.006c-.015,0-.03,0-.045.005s-.03.009-.045.014-.034.01-.051.017-.022.012-.033.018a.515.515,0,0,0-.052.029c-.011.008-.021.017-.032.026a.441.441,0,0,0-.043.036c-.011.011-.02.024-.03.036s-.022.025-.032.039-.015.027-.022.041a.492.492,0,0,0-.025.047c0,.013-.008.027-.012.04a.528.528,0,0,0-.017.058s0,0,0,.006a.407.407,0,0,0,0,.046c0,.015,0,.029,0,.045V5.164c0,2.083-3.527,5.311-4.886,6.378a.511.511,0,0,0,.315.912h1.024v4.824a.51.51,0,0,0,.51.51h.072v3.567h-.109a2.143,2.143,0,0,0-.164,4.281v9.407l-3.8-3.587V25.644h1.168a.51.51,0,0,0,.374-.858c-.034-.037-3.439-3.731-3.439-6.189V16.641l2.431-1.482.012-.009a.523.523,0,0,0,.055-.042l.02-.017a.519.519,0,0,0,.061-.069l.006-.01a.482.482,0,0,0,.04-.068c0-.011.008-.021.013-.032s.011-.024.015-.037,0-.01,0-.014a.446.446,0,0,0,.011-.056.371.371,0,0,0,.006-.044.4.4,0,0,0,0-.052.462.462,0,0,0,0-.047c0-.016-.006-.032-.01-.049a.472.472,0,0,0-.012-.048c0-.015-.011-.029-.018-.044a.522.522,0,0,0-.024-.049s0-.01-.007-.014-.012-.016-.018-.024-.021-.03-.033-.044-.022-.023-.033-.034-.025-.023-.038-.034a.485.485,0,0,0-.041-.029c-.014-.009-.027-.017-.041-.024s-.034-.015-.051-.021-.018-.009-.028-.012l-2.676-.832A.506.506,0,0,0,104.4,14a.511.511,0,0,0-.014.113V18.6c0,2.031-2.66,5.147-3.685,6.177a.511.511,0,0,0,.361.871h1V37.5c-1.1-1.267-3.124-3.99-3.124-5.837V29.7l2.431-1.482.012-.009a.575.575,0,0,0,.055-.041l.02-.017a.484.484,0,0,0,.06-.069l0-.007a.525.525,0,0,0,.041-.071c0-.01.008-.02.012-.03s.011-.025.016-.039,0-.011,0-.015a.5.5,0,0,0,.011-.053c0-.016.005-.031.007-.046a.427.427,0,0,0,0-.05c0-.017,0-.033,0-.049s-.006-.032-.009-.048a.492.492,0,0,0-.012-.049.433.433,0,0,0-.018-.043.5.5,0,0,0-.024-.049.116.116,0,0,0-.007-.014c-.005-.009-.012-.016-.018-.024a.525.525,0,0,0-.033-.044c-.011-.012-.022-.024-.034-.035a.436.436,0,0,0-.038-.033c-.014-.011-.028-.02-.042-.029s-.027-.017-.041-.024a.556.556,0,0,0-.051-.022c-.009,0-.018-.008-.027-.011l-2.676-.832a.744.744,0,0,0-.662.707v4.487c0,2.031-2.66,5.147-3.684,6.177a.507.507,0,0,0-.147.377c0,.006,0,.011,0,.017v.353c-1.773-1.53-5.784-5.291-5.784-7.989V27.8l4.459-2.127.014-.008a.605.605,0,0,0,.054-.032l.029-.02a.474.474,0,0,0,.048-.044l.021-.02a.508.508,0,0,0,.095-.161c0-.01.006-.021.009-.032s.011-.034.014-.052c0,0,0,0,0-.007a.505.505,0,0,0,0-.06c0-.014,0-.028,0-.041s0-.032-.006-.048,0-.035-.008-.052-.008-.024-.012-.036a.576.576,0,0,0-.021-.06l0-.006c-.005-.011-.012-.019-.018-.029a.5.5,0,0,0-.031-.05.481.481,0,0,0-.032-.037.472.472,0,0,0-.034-.037c-.012-.012-.026-.021-.039-.032s-.025-.02-.039-.029-.031-.016-.046-.024a.421.421,0,0,0-.042-.019.5.5,0,0,0-.06-.017c-.011,0-.02-.007-.03-.009l-4.75-.851c-.014,0-.028,0-.042,0a.473.473,0,0,0-.047,0h-.007c-.017,0-.034,0-.051.005s-.035,0-.051.007-.026.008-.039.012a.476.476,0,0,0-.056.018c-.011,0-.021.011-.031.017a.456.456,0,0,0-.054.031c-.012.008-.021.018-.032.026a.529.529,0,0,0-.042.036c-.011.011-.021.025-.031.037a.486.486,0,0,0-.031.039c-.009.013-.015.027-.022.041s-.018.031-.025.047-.008.027-.012.04a.516.516,0,0,0-.017.057s0,0,0,.006a.364.364,0,0,0,0,.046c0,.015,0,.029,0,.044v6.233c0,3.446-6.543,8.626-6.61,8.678a.511.511,0,0,0,.315.912h1.545v6.634a.51.51,0,0,0,.51.511h.27v4.933h-1.6a.51.51,0,0,0-.51.51V69.107a.51.51,0,0,0,.51.51H99.828a.51.51,0,0,0,.51-.51V62.391a4.721,4.721,0,0,1,9.442,0v6.717a.51.51,0,0,0,.51.51h18.118a.51.51,0,0,0,.51-.51V52.771A.507.507,0,0,0,128.411,52.26ZM115.362,1.119l1.384.248-1.384.66Zm-.51,5.893a17.035,17.035,0,0,0,3.693,4.42H111.16A17.043,17.043,0,0,0,114.852,7.013Zm3.036,5.441v4.313h-6.073V12.453Zm-.583,5.334v3.425H112.4V17.788Zm-11.9-3.2.935.291-.935.57Zm-.527,6.12a17.209,17.209,0,0,0,2.479,3.919h-5.132A17.087,17.087,0,0,0,104.879,20.7Zm21.368,26.768h-6.618V42.748h6.618v4.724Zm-2.8-16.938,1.657.3-1.657.79Zm-.51,6.307a18.26,18.26,0,0,0,4.079,4.886H118.86A18.27,18.27,0,0,0,122.939,36.841Zm-4.33,5.907v5.235a.51.51,0,0,0,.51.511h.117v3.767H118.3V42.748Zm-23.5,4.068h22.168v1.406H95.11ZM110.146,23.5a1.125,1.125,0,0,1,1.123-1.124h7.166a1.124,1.124,0,1,1,0,2.247h-7.166A1.125,1.125,0,0,1,110.146,23.5Zm1.119,13.1a.51.51,0,0,0,.861-.371V25.692h5.152V41.736c0,.167,0,.528,0,.974V45.8H95.11V38.739h7.467a.51.51,0,0,0,.51-.511V25.692h3.195v5.983a.511.511,0,0,0,.16.371ZM98.943,27.646l.935.291-.935.57Zm-.527,6.12a17.208,17.208,0,0,0,2.48,3.919H95.764A17.058,17.058,0,0,0,98.416,33.766ZM94.089,52.26H92.275V47.327h.27a.51.51,0,0,0,.51-.51V40.183h1.034V52.26ZM88.305,24.97l2.587.464-2.587,1.234Zm-.51,7.7c1.13,2.52,3.863,5.142,5.4,6.488h-10.8C83.932,37.816,86.665,35.194,87.795,32.674Zm4.239,7.509v6.123H83.555V40.183ZM127.9,68.6H110.8V62.39a5.741,5.741,0,0,0-11.483,0V68.6h-17.1V53.281h1.6a.511.511,0,0,0,.51-.511V47.327h6.918V52.77a.51.51,0,0,0,.51.511H94.6a.511.511,0,0,0,.51-.511V49.243h22.168V52.77a.51.51,0,0,0,.51.511h1.959a.51.51,0,0,0,.51-.511V48.493h5.363V52.77a.51.51,0,0,0,.51.511h1.77V68.6Z" transform="translate(-80.477)" fill="#0cf"/>
    <path id="Path_68" data-name="Path 68" d="M125.249,316.135a1.646,1.646,0,0,0,1.644-1.645v-1.356a1.644,1.644,0,1,0-3.289,0v1.356A1.646,1.646,0,0,0,125.249,316.135Zm-.624-3a.624.624,0,0,1,1.247,0v1.356a.624.624,0,1,1-1.247,0Z" transform="translate(-117.931 -270.515)" fill="#0cf"/>
    <path id="Path_69" data-name="Path 69" d="M125.249,374.449a1.646,1.646,0,0,0-1.645,1.644v1.356a1.644,1.644,0,1,0,3.289,0v-1.356A1.646,1.646,0,0,0,125.249,374.449Zm.624,3a.624.624,0,1,1-1.247,0v-1.356a.624.624,0,1,1,1.247,0Z" transform="translate(-117.931 -325.192)" fill="#0cf"/>
    <path id="Path_70" data-name="Path 70" d="M392.413,374.449a1.646,1.646,0,0,0-1.644,1.644v1.356a1.644,1.644,0,1,0,3.289,0v-1.356A1.647,1.647,0,0,0,392.413,374.449Zm.623,3a.624.624,0,1,1-1.247,0v-1.356a.624.624,0,1,1,1.247,0Z" transform="translate(-349.951 -325.192)" fill="#0cf"/>
    <path id="Path_71" data-name="Path 71" d="M330.937,204.4a1.646,1.646,0,0,0,1.644-1.644V201.4a1.644,1.644,0,1,0-3.289,0v1.356A1.646,1.646,0,0,0,330.937,204.4Zm-.623-3a.624.624,0,1,1,1.247,0v1.356a.624.624,0,1,1-1.247,0Z" transform="translate(-296.562 -173.481)" fill="#0cf"/>
    <path id="Path_72" data-name="Path 72" d="M330.937,247.294a1.646,1.646,0,0,0,1.644-1.645v-1.356a1.644,1.644,0,1,0-3.289,0v1.356A1.647,1.647,0,0,0,330.937,247.294Zm-.623-3a.624.624,0,1,1,1.247,0v1.356a.624.624,0,1,1-1.247,0Z" transform="translate(-296.562 -210.73)" fill="#0cf"/>
    <path id="Path_73" data-name="Path 73" d="M202.467,303.429a1.646,1.646,0,0,0-1.644,1.645v1.356a1.644,1.644,0,0,0,3.289,0v-1.356A1.646,1.646,0,0,0,202.467,303.429Zm.624,3a.624.624,0,0,1-1.247,0v-1.356a.624.624,0,1,1,1.247,0Z" transform="translate(-184.992 -263.514)" fill="#0cf"/>
    <path id="Path_74" data-name="Path 74" d="M241.64,303.429A1.646,1.646,0,0,0,240,305.074v1.356a1.644,1.644,0,0,0,3.289,0v-1.356A1.646,1.646,0,0,0,241.64,303.429Zm.624,3a.624.624,0,0,1-1.247,0v-1.356a.624.624,0,1,1,1.247,0Z" transform="translate(-219.012 -263.514)" fill="#0cf"/>
  </g>
</svg>
