<svg xmlns="http://www.w3.org/2000/svg" width="55.333" height="41.5" viewBox="0 0 55.333 41.5">
  <g id="email" transform="translate(0 -64)">
    <g id="Group_100" data-name="Group 100" transform="translate(0 64)">
      <path id="Path_127" data-name="Path 127" d="M43.805,80.2V68.611A4.616,4.616,0,0,0,39.194,64H4.611A4.616,4.616,0,0,0,0,68.611V91.667a4.616,4.616,0,0,0,4.611,4.611H30.464a12.673,12.673,0,0,0,18.53,7.525,1.153,1.153,0,1,0-1.155-1.995,10.377,10.377,0,1,1,5.189-8.988v1.153a2.306,2.306,0,1,1-4.611,0V89.361a1.149,1.149,0,0,0-1.948-.829,5.762,5.762,0,1,0,.487,8.084,4.6,4.6,0,0,0,8.378-2.644V92.819A12.694,12.694,0,0,0,43.805,80.2ZM4.611,66.306H39.194c.048,0,.088.025.136.027L22.851,79.86a1.947,1.947,0,0,1-1.818.059L4.477,66.333C4.524,66.33,4.564,66.306,4.611,66.306ZM41.5,80.2A12.694,12.694,0,0,0,29.972,92.819c0,.389.024.773.058,1.153H4.611a2.309,2.309,0,0,1-2.306-2.306V68.611a2.281,2.281,0,0,1,.2-.916L19.672,81.776a4.056,4.056,0,0,0,4.385.05,1.121,1.121,0,0,0,.186-.125L41.3,67.694a2.282,2.282,0,0,1,.2.917V80.2Zm1.153,16.08a3.458,3.458,0,1,1,3.458-3.458A3.462,3.462,0,0,1,42.653,96.278Z" transform="translate(0 -64)" fill="#fff"/>
    </g>
  </g>
</svg>
