<svg xmlns="http://www.w3.org/2000/svg" width="23.92" height="27" viewBox="0 0 23.92 27">
  <g id="frost" transform="translate(-1.541 0)">
    <path id="Path_296" data-name="Path 296" d="M12,15a3,3,0,1,1,3-3A3,3,0,0,1,12,15Zm0-5a2,2,0,1,0,2,2A2,2,0,0,0,12,10Z" transform="translate(1.501 1.5)" fill="#333"/>
    <path id="Path_297" data-name="Path 297" d="M12,10a.5.5,0,0,1-.5-.5v-5a.5.5,0,0,1,1,0v5A.5.5,0,0,1,12,10Z" transform="translate(1.501 0.667)" fill="#333"/>
    <path id="Path_298" data-name="Path 298" d="M12,8a.5.5,0,0,1-.312-.109l-2.5-2a.5.5,0,0,1,.625-.781L12,6.86l2.188-1.75a.5.5,0,1,1,.625.781l-2.5,2A.509.509,0,0,1,12,8Z" transform="translate(1.501 0.714)" fill="#333"/>
    <path id="Path_299" data-name="Path 299" d="M12,5a.5.5,0,0,1-.312-.109l-2.5-2a.5.5,0,0,1,0-.782l2.5-2a.5.5,0,0,1,.625,0l2.5,2a.5.5,0,0,1,0,.782l-2.5,2A.5.5,0,0,1,12,5ZM10.3,2.5,12,3.86,13.7,2.5,12,1.14Z" transform="translate(1.501)" fill="#333"/>
    <path id="Path_300" data-name="Path 300" d="M12,20a.5.5,0,0,1-.5-.5v-5a.5.5,0,0,1,1,0v5A.5.5,0,0,1,12,20Z" transform="translate(1.501 2.333)" fill="#333"/>
    <path id="Path_301" data-name="Path 301" d="M14.5,19a.5.5,0,0,1-.312-.109L12,17.14,9.812,18.89a.5.5,0,1,1-.625-.781l2.5-2a.5.5,0,0,1,.625,0l2.5,2A.5.5,0,0,1,14.5,19Z" transform="translate(1.501 2.285)" fill="#333"/>
    <path id="Path_302" data-name="Path 302" d="M12,24a.5.5,0,0,1-.312-.109l-2.5-2a.5.5,0,0,1,0-.782l2.5-2a.5.5,0,0,1,.625,0l2.5,2a.5.5,0,0,1,0,.782l-2.5,2A.5.5,0,0,1,12,24Zm-1.7-2.5L12,22.86l1.7-1.36L12,20.14Z" transform="translate(1.501 2.999)" fill="#333"/>
    <path id="Path_303" data-name="Path 303" d="M9.835,11.25a.494.494,0,0,1-.25-.067l-4.33-2.5a.5.5,0,1,1,.5-.866l4.33,2.5a.5.5,0,0,1-.25.933Z" transform="translate(0.667 1.134)" fill="#333"/>
    <path id="Path_304" data-name="Path 304" d="M5.121,11.415a.5.5,0,0,1-.182-.966l2.608-1.02L7.127,6.66a.5.5,0,1,1,.988-.15L8.6,9.675a.5.5,0,0,1-.312.541L5.3,11.381a.506.506,0,0,1-.182.034Z" transform="translate(0 0.978)" fill="#333"/>
    <path id="Path_305" data-name="Path 305" d="M2.522,9.915a.493.493,0,0,1-.25-.067.5.5,0,0,1-.244-.358L1.547,6.325a.5.5,0,0,1,.312-.541L4.84,4.619a.5.5,0,0,1,.677.391L6,8.175a.5.5,0,0,1-.312.541L2.7,9.881a.494.494,0,0,1-.182.034ZM2.6,6.57l.327,2.151L4.95,7.93,4.622,5.778Z" transform="translate(0 0.737)" fill="#333"/>
    <path id="Path_306" data-name="Path 306" d="M18.5,16.25a.494.494,0,0,1-.25-.067l-4.33-2.5a.5.5,0,1,1,.5-.866l4.33,2.5a.5.5,0,0,1-.25.933Z" transform="translate(2.335 1.866)" fill="#333"/>
    <path id="Path_307" data-name="Path 307" d="M16.378,17.915a.5.5,0,0,1-.493-.425L15.4,14.325a.5.5,0,0,1,.312-.541L18.7,12.619a.5.5,0,0,1,.363.932l-2.608,1.02.421,2.77a.5.5,0,0,1-.419.569.646.646,0,0,1-.076,0Z" transform="translate(3.002 2.022)" fill="#333"/>
    <path id="Path_308" data-name="Path 308" d="M18.978,19.415a.5.5,0,0,1-.494-.425L18,15.825a.5.5,0,0,1,.312-.541L21.3,14.119a.5.5,0,0,1,.676.391l.481,3.165a.5.5,0,0,1-.312.541L19.16,19.381A.5.5,0,0,1,18.978,19.415Zm.072-3.345.328,2.151,2.026-.792-.327-2.151Z" transform="translate(3.002 2.263)" fill="#333"/>
    <path id="Path_309" data-name="Path 309" d="M5.505,16.25a.5.5,0,0,1-.25-.933l4.33-2.5a.5.5,0,1,1,.5.866l-4.33,2.5a.494.494,0,0,1-.25.067Z" transform="translate(0.667 1.866)" fill="#333"/>
    <path id="Path_310" data-name="Path 310" d="M7.622,17.915a.487.487,0,0,1-.076-.006.5.5,0,0,1-.419-.569l.421-2.77L4.94,13.55a.5.5,0,0,1,.363-.932l2.981,1.165a.5.5,0,0,1,.312.541L8.115,17.49a.5.5,0,0,1-.493.425Z" transform="translate(0 2.022)" fill="#333"/>
    <path id="Path_311" data-name="Path 311" d="M5.022,19.415a.5.5,0,0,1-.182-.034L1.859,18.216a.5.5,0,0,1-.312-.541l.481-3.165a.5.5,0,0,1,.676-.391l2.982,1.165A.5.5,0,0,1,6,15.825L5.517,18.99a.5.5,0,0,1-.495.425ZM2.6,17.43l2.026.792L4.95,16.07l-2.027-.792Z" transform="translate(0 2.263)" fill="#333"/>
    <path id="Path_312" data-name="Path 312" d="M14.165,11.25a.5.5,0,0,1-.25-.933l4.33-2.5a.5.5,0,1,1,.5.866l-4.33,2.5a.494.494,0,0,1-.25.067Z" transform="translate(2.335 1.134)" fill="#333"/>
    <path id="Path_313" data-name="Path 313" d="M18.879,11.415a.505.505,0,0,1-.182-.034l-2.981-1.165a.5.5,0,0,1-.312-.541l.481-3.165a.505.505,0,0,1,.569-.419.5.5,0,0,1,.419.569l-.421,2.77,2.608,1.02a.5.5,0,0,1-.181.965Z" transform="translate(3.002 0.978)" fill="#333"/>
    <path id="Path_314" data-name="Path 314" d="M21.478,9.915a.5.5,0,0,1-.182-.034L18.314,8.716A.5.5,0,0,1,18,8.175l.482-3.165a.5.5,0,0,1,.676-.391l2.981,1.165a.5.5,0,0,1,.312.541L21.972,9.49a.5.5,0,0,1-.494.425ZM19.05,7.93l2.027.792L21.4,6.571l-2.026-.792Z" transform="translate(3.002 0.737)" fill="#333"/>
  </g>
</svg>
