<svg xmlns="http://www.w3.org/2000/svg" width="26.439" height="25.998" viewBox="0 0 26.439 25.998">
  <g id="hotel" transform="translate(0 -4)">
    <g id="Group_364" data-name="Group 364" transform="translate(0 4)">
      <g id="Group_363" data-name="Group 363" transform="translate(0 0)">
        <path id="Path_327" data-name="Path 327" d="M26,7.966H21.151V4.441A.441.441,0,0,0,20.711,4H5.728a.441.441,0,0,0-.441.441V10.61H.441A.441.441,0,0,0,0,11.05V29.117a.441.441,0,1,0,.881,0V11.491H5.288V29.558A.441.441,0,0,0,5.728,30H20.711a.441.441,0,0,0,.441-.441V8.847h4.407v20.27a.441.441,0,1,0,.881,0V8.407A.441.441,0,0,0,26,7.966ZM12.779,29.117H11.016V25.151h1.763Zm2.644,0H13.66V25.151h1.763Zm4.847,0H16.3V24.711a.441.441,0,0,0-.441-.441H10.576a.441.441,0,0,0-.441.441v4.407H6.169V4.881h14.1Z" transform="translate(0 -4)" fill="#333"/>
      </g>
    </g>
    <g id="Group_366" data-name="Group 366" transform="translate(7.05 5.763)">
      <g id="Group_365" data-name="Group 365" transform="translate(0 0)">
        <path id="Path_328" data-name="Path 328" d="M131.085,36h-2.644a.441.441,0,0,0-.441.441v2.644a.441.441,0,0,0,.441.441h2.644a.441.441,0,0,0,.441-.441V36.441A.441.441,0,0,0,131.085,36Zm-.441,2.644h-1.763V36.881h1.763Z" transform="translate(-128 -36)" fill="#333"/>
      </g>
    </g>
    <g id="Group_368" data-name="Group 368" transform="translate(11.457 5.763)">
      <g id="Group_367" data-name="Group 367" transform="translate(0 0)">
        <path id="Path_329" data-name="Path 329" d="M211.085,36h-2.644a.441.441,0,0,0-.441.441v2.644a.441.441,0,0,0,.441.441h2.644a.441.441,0,0,0,.441-.441V36.441A.441.441,0,0,0,211.085,36Zm-.441,2.644h-1.763V36.881h1.763Z" transform="translate(-208 -36)" fill="#333"/>
      </g>
    </g>
    <g id="Group_370" data-name="Group 370" transform="translate(15.863 5.763)">
      <g id="Group_369" data-name="Group 369" transform="translate(0 0)">
        <path id="Path_330" data-name="Path 330" d="M291.085,36h-2.644a.441.441,0,0,0-.441.441v2.644a.441.441,0,0,0,.441.441h2.644a.441.441,0,0,0,.441-.441V36.441A.441.441,0,0,0,291.085,36Zm-.441,2.644h-1.763V36.881h1.763Z" transform="translate(-288 -36)" fill="#333"/>
      </g>
    </g>
    <g id="Group_372" data-name="Group 372" transform="translate(7.05 10.169)">
      <g id="Group_371" data-name="Group 371" transform="translate(0 0)">
        <path id="Path_331" data-name="Path 331" d="M131.085,116h-2.644a.441.441,0,0,0-.441.441v2.644a.441.441,0,0,0,.441.441h2.644a.441.441,0,0,0,.441-.441v-2.644A.441.441,0,0,0,131.085,116Zm-.441,2.644h-1.763v-1.763h1.763Z" transform="translate(-128 -116)" fill="#333"/>
      </g>
    </g>
    <g id="Group_374" data-name="Group 374" transform="translate(11.457 10.169)">
      <g id="Group_373" data-name="Group 373" transform="translate(0 0)">
        <path id="Path_332" data-name="Path 332" d="M211.085,116h-2.644a.441.441,0,0,0-.441.441v2.644a.441.441,0,0,0,.441.441h2.644a.441.441,0,0,0,.441-.441v-2.644A.441.441,0,0,0,211.085,116Zm-.441,2.644h-1.763v-1.763h1.763Z" transform="translate(-208 -116)" fill="#333"/>
      </g>
    </g>
    <g id="Group_376" data-name="Group 376" transform="translate(15.863 10.169)">
      <g id="Group_375" data-name="Group 375" transform="translate(0 0)">
        <path id="Path_333" data-name="Path 333" d="M291.085,116h-2.644a.441.441,0,0,0-.441.441v2.644a.441.441,0,0,0,.441.441h2.644a.441.441,0,0,0,.441-.441v-2.644A.441.441,0,0,0,291.085,116Zm-.441,2.644h-1.763v-1.763h1.763Z" transform="translate(-288 -116)" fill="#333"/>
      </g>
    </g>
    <g id="Group_378" data-name="Group 378" transform="translate(7.05 14.576)">
      <g id="Group_377" data-name="Group 377">
        <path id="Path_334" data-name="Path 334" d="M131.085,196h-2.644a.441.441,0,0,0-.441.441v2.644a.441.441,0,0,0,.441.441h2.644a.441.441,0,0,0,.441-.441v-2.644A.441.441,0,0,0,131.085,196Zm-.441,2.644h-1.763v-1.763h1.763Z" transform="translate(-128 -196)" fill="#333"/>
      </g>
    </g>
    <g id="Group_380" data-name="Group 380" transform="translate(11.457 14.576)">
      <g id="Group_379" data-name="Group 379">
        <path id="Path_335" data-name="Path 335" d="M211.085,196h-2.644a.441.441,0,0,0-.441.441v2.644a.441.441,0,0,0,.441.441h2.644a.441.441,0,0,0,.441-.441v-2.644A.441.441,0,0,0,211.085,196Zm-.441,2.644h-1.763v-1.763h1.763Z" transform="translate(-208 -196)" fill="#333"/>
      </g>
    </g>
    <g id="Group_382" data-name="Group 382" transform="translate(15.863 14.576)">
      <g id="Group_381" data-name="Group 381">
        <path id="Path_336" data-name="Path 336" d="M291.085,196h-2.644a.441.441,0,0,0-.441.441v2.644a.441.441,0,0,0,.441.441h2.644a.441.441,0,0,0,.441-.441v-2.644A.441.441,0,0,0,291.085,196Zm-.441,2.644h-1.763v-1.763h1.763Z" transform="translate(-288 -196)" fill="#333"/>
      </g>
    </g>
    <g id="Group_384" data-name="Group 384" transform="translate(7.05 18.982)">
      <g id="Group_383" data-name="Group 383">
        <path id="Path_337" data-name="Path 337" d="M131.085,276h-2.644a.441.441,0,0,0-.441.441v2.644a.441.441,0,0,0,.441.441h2.644a.441.441,0,0,0,.441-.441v-2.644A.441.441,0,0,0,131.085,276Zm-.441,2.644h-1.763v-1.763h1.763Z" transform="translate(-128 -276)" fill="#333"/>
      </g>
    </g>
    <g id="Group_386" data-name="Group 386" transform="translate(11.457 18.982)">
      <g id="Group_385" data-name="Group 385">
        <path id="Path_338" data-name="Path 338" d="M211.085,276h-2.644a.441.441,0,0,0-.441.441v2.644a.441.441,0,0,0,.441.441h2.644a.441.441,0,0,0,.441-.441v-2.644A.441.441,0,0,0,211.085,276Zm-.441,2.644h-1.763v-1.763h1.763Z" transform="translate(-208 -276)" fill="#333"/>
      </g>
    </g>
    <g id="Group_388" data-name="Group 388" transform="translate(15.863 18.982)">
      <g id="Group_387" data-name="Group 387">
        <path id="Path_339" data-name="Path 339" d="M291.085,276h-2.644a.441.441,0,0,0-.441.441v2.644a.441.441,0,0,0,.441.441h2.644a.441.441,0,0,0,.441-.441v-2.644A.441.441,0,0,0,291.085,276Zm-.441,2.644h-1.763v-1.763h1.763Z" transform="translate(-288 -276)" fill="#333"/>
      </g>
    </g>
    <g id="Group_390" data-name="Group 390" transform="translate(1.763 12.372)">
      <g id="Group_389" data-name="Group 389" transform="translate(0 0)">
        <path id="Path_340" data-name="Path 340" d="M32.881,156h-.441a.441.441,0,0,0-.441.441v.441a.441.441,0,0,0,.441.441h.441a.441.441,0,0,0,.441-.441v-.441A.441.441,0,0,0,32.881,156Z" transform="translate(-32 -156)" fill="#333"/>
      </g>
    </g>
    <g id="Group_392" data-name="Group 392" transform="translate(3.525 12.372)">
      <g id="Group_391" data-name="Group 391" transform="translate(0 0)">
        <path id="Path_341" data-name="Path 341" d="M64.881,156h-.441a.441.441,0,0,0-.441.441v.441a.441.441,0,0,0,.441.441h.441a.441.441,0,0,0,.441-.441v-.441A.441.441,0,0,0,64.881,156Z" transform="translate(-64 -156)" fill="#333"/>
      </g>
    </g>
    <g id="Group_394" data-name="Group 394" transform="translate(1.763 14.135)">
      <g id="Group_393" data-name="Group 393" transform="translate(0 0)">
        <path id="Path_342" data-name="Path 342" d="M32.881,188h-.441a.441.441,0,0,0-.441.441v.441a.441.441,0,0,0,.441.441h.441a.441.441,0,0,0,.441-.441v-.441A.441.441,0,0,0,32.881,188Z" transform="translate(-32 -188)" fill="#333"/>
      </g>
    </g>
    <g id="Group_396" data-name="Group 396" transform="translate(3.525 14.135)">
      <g id="Group_395" data-name="Group 395" transform="translate(0 0)">
        <path id="Path_343" data-name="Path 343" d="M64.881,188h-.441a.441.441,0,0,0-.441.441v.441a.441.441,0,0,0,.441.441h.441a.441.441,0,0,0,.441-.441v-.441A.441.441,0,0,0,64.881,188Z" transform="translate(-64 -188)" fill="#333"/>
      </g>
    </g>
    <g id="Group_398" data-name="Group 398" transform="translate(1.763 15.898)">
      <g id="Group_397" data-name="Group 397">
        <path id="Path_344" data-name="Path 344" d="M32.881,220h-.441a.441.441,0,0,0-.441.441v.441a.441.441,0,0,0,.441.441h.441a.441.441,0,0,0,.441-.441v-.441A.441.441,0,0,0,32.881,220Z" transform="translate(-32 -220)" fill="#333"/>
      </g>
    </g>
    <g id="Group_400" data-name="Group 400" transform="translate(3.525 15.898)">
      <g id="Group_399" data-name="Group 399">
        <path id="Path_345" data-name="Path 345" d="M64.881,220h-.441a.441.441,0,0,0-.441.441v.441a.441.441,0,0,0,.441.441h.441a.441.441,0,0,0,.441-.441v-.441A.441.441,0,0,0,64.881,220Z" transform="translate(-64 -220)" fill="#333"/>
      </g>
    </g>
    <g id="Group_402" data-name="Group 402" transform="translate(1.763 17.66)">
      <g id="Group_401" data-name="Group 401">
        <path id="Path_346" data-name="Path 346" d="M32.881,252h-.441a.441.441,0,0,0-.441.441v.441a.441.441,0,0,0,.441.441h.441a.441.441,0,0,0,.441-.441v-.441A.441.441,0,0,0,32.881,252Z" transform="translate(-32 -252)" fill="#333"/>
      </g>
    </g>
    <g id="Group_404" data-name="Group 404" transform="translate(3.525 17.66)">
      <g id="Group_403" data-name="Group 403">
        <path id="Path_347" data-name="Path 347" d="M64.881,252h-.441a.441.441,0,0,0-.441.441v.441a.441.441,0,0,0,.441.441h.441a.441.441,0,0,0,.441-.441v-.441A.441.441,0,0,0,64.881,252Z" transform="translate(-64 -252)" fill="#333"/>
      </g>
    </g>
    <g id="Group_406" data-name="Group 406" transform="translate(1.763 19.423)">
      <g id="Group_405" data-name="Group 405">
        <path id="Path_348" data-name="Path 348" d="M32.881,284h-.441a.441.441,0,0,0-.441.441v.441a.441.441,0,0,0,.441.441h.441a.441.441,0,0,0,.441-.441v-.441A.441.441,0,0,0,32.881,284Z" transform="translate(-32 -284)" fill="#333"/>
      </g>
    </g>
    <g id="Group_408" data-name="Group 408" transform="translate(3.525 19.423)">
      <g id="Group_407" data-name="Group 407">
        <path id="Path_349" data-name="Path 349" d="M64.881,284h-.441a.441.441,0,0,0-.441.441v.441a.441.441,0,0,0,.441.441h.441a.441.441,0,0,0,.441-.441v-.441A.441.441,0,0,0,64.881,284Z" transform="translate(-64 -284)" fill="#333"/>
      </g>
    </g>
    <g id="Group_410" data-name="Group 410" transform="translate(1.763 21.185)">
      <g id="Group_409" data-name="Group 409">
        <path id="Path_350" data-name="Path 350" d="M32.881,316h-.441a.441.441,0,0,0-.441.441v.441a.441.441,0,0,0,.441.441h.441a.441.441,0,0,0,.441-.441v-.441A.441.441,0,0,0,32.881,316Z" transform="translate(-32 -316)" fill="#333"/>
      </g>
    </g>
    <g id="Group_412" data-name="Group 412" transform="translate(3.525 21.185)">
      <g id="Group_411" data-name="Group 411">
        <path id="Path_351" data-name="Path 351" d="M64.881,316h-.441a.441.441,0,0,0-.441.441v.441a.441.441,0,0,0,.441.441h.441a.441.441,0,0,0,.441-.441v-.441A.441.441,0,0,0,64.881,316Z" transform="translate(-64 -316)" fill="#333"/>
      </g>
    </g>
    <g id="Group_414" data-name="Group 414" transform="translate(1.763 22.948)">
      <g id="Group_413" data-name="Group 413">
        <path id="Path_352" data-name="Path 352" d="M32.881,348h-.441a.441.441,0,0,0-.441.441v.441a.441.441,0,0,0,.441.441h.441a.441.441,0,0,0,.441-.441v-.441A.441.441,0,0,0,32.881,348Z" transform="translate(-32 -348)" fill="#333"/>
      </g>
    </g>
    <g id="Group_416" data-name="Group 416" transform="translate(3.525 22.948)">
      <g id="Group_415" data-name="Group 415">
        <path id="Path_353" data-name="Path 353" d="M64.881,348h-.441a.441.441,0,0,0-.441.441v.441a.441.441,0,0,0,.441.441h.441a.441.441,0,0,0,.441-.441v-.441A.441.441,0,0,0,64.881,348Z" transform="translate(-64 -348)" fill="#333"/>
      </g>
    </g>
    <g id="Group_418" data-name="Group 418" transform="translate(1.763 24.711)">
      <g id="Group_417" data-name="Group 417" transform="translate(0 0)">
        <path id="Path_354" data-name="Path 354" d="M32.881,380h-.441a.441.441,0,0,0-.441.441v.441a.441.441,0,0,0,.441.441h.441a.441.441,0,0,0,.441-.441v-.441A.441.441,0,0,0,32.881,380Z" transform="translate(-32 -380)" fill="#333"/>
      </g>
    </g>
    <g id="Group_420" data-name="Group 420" transform="translate(3.525 24.711)">
      <g id="Group_419" data-name="Group 419" transform="translate(0 0)">
        <path id="Path_355" data-name="Path 355" d="M64.881,380h-.441a.441.441,0,0,0-.441.441v.441a.441.441,0,0,0,.441.441h.441a.441.441,0,0,0,.441-.441v-.441A.441.441,0,0,0,64.881,380Z" transform="translate(-64 -380)" fill="#333"/>
      </g>
    </g>
    <g id="Group_422" data-name="Group 422" transform="translate(1.763 26.473)">
      <g id="Group_421" data-name="Group 421" transform="translate(0 0)">
        <path id="Path_356" data-name="Path 356" d="M32.881,412h-.441a.441.441,0,0,0-.441.441v.441a.441.441,0,0,0,.441.441h.441a.441.441,0,0,0,.441-.441v-.441A.441.441,0,0,0,32.881,412Z" transform="translate(-32 -412)" fill="#333"/>
      </g>
    </g>
    <g id="Group_424" data-name="Group 424" transform="translate(3.525 26.473)">
      <g id="Group_423" data-name="Group 423" transform="translate(0 0)">
        <path id="Path_357" data-name="Path 357" d="M64.881,412h-.441a.441.441,0,0,0-.441.441v.441a.441.441,0,0,0,.441.441h.441a.441.441,0,0,0,.441-.441v-.441A.441.441,0,0,0,64.881,412Z" transform="translate(-64 -412)" fill="#333"/>
      </g>
    </g>
    <g id="Group_426" data-name="Group 426" transform="translate(22.033 9.728)">
      <g id="Group_425" data-name="Group 425">
        <path id="Path_358" data-name="Path 358" d="M402.2,108h-1.763a.441.441,0,0,0-.441.441V110.2a.441.441,0,0,0,.441.441H402.2a.441.441,0,0,0,.441-.441v-1.763A.441.441,0,0,0,402.2,108Zm-.441,1.763h-.881v-.881h.881Z" transform="translate(-400 -108)" fill="#333"/>
      </g>
    </g>
    <g id="Group_428" data-name="Group 428" transform="translate(22.033 13.254)">
      <g id="Group_427" data-name="Group 427" transform="translate(0 0)">
        <path id="Path_359" data-name="Path 359" d="M402.2,172h-1.763a.441.441,0,0,0-.441.441V174.2a.441.441,0,0,0,.441.441H402.2a.441.441,0,0,0,.441-.441v-1.763A.441.441,0,0,0,402.2,172Zm-.441,1.763h-.881v-.881h.881Z" transform="translate(-400 -172)" fill="#333"/>
      </g>
    </g>
    <g id="Group_430" data-name="Group 430" transform="translate(22.033 16.779)">
      <g id="Group_429" data-name="Group 429">
        <path id="Path_360" data-name="Path 360" d="M402.2,236h-1.763a.441.441,0,0,0-.441.441V238.2a.441.441,0,0,0,.441.441H402.2a.441.441,0,0,0,.441-.441v-1.763A.441.441,0,0,0,402.2,236Zm-.441,1.763h-.881v-.881h.881Z" transform="translate(-400 -236)" fill="#333"/>
      </g>
    </g>
    <g id="Group_432" data-name="Group 432" transform="translate(22.033 20.304)">
      <g id="Group_431" data-name="Group 431">
        <path id="Path_361" data-name="Path 361" d="M402.2,300h-1.763a.441.441,0,0,0-.441.441V302.2a.441.441,0,0,0,.441.441H402.2a.441.441,0,0,0,.441-.441v-1.763A.441.441,0,0,0,402.2,300Zm-.441,1.763h-.881v-.881h.881Z" transform="translate(-400 -300)" fill="#333"/>
      </g>
    </g>
    <g id="Group_434" data-name="Group 434" transform="translate(22.033 23.829)">
      <g id="Group_433" data-name="Group 433">
        <path id="Path_362" data-name="Path 362" d="M402.2,364h-1.763a.441.441,0,0,0-.441.441V366.2a.441.441,0,0,0,.441.441H402.2a.441.441,0,0,0,.441-.441v-1.763A.441.441,0,0,0,402.2,364Zm-.441,1.763h-.881v-.881h.881Z" transform="translate(-400 -364)" fill="#333"/>
      </g>
    </g>
  </g>
</svg>
