<svg xmlns="http://www.w3.org/2000/svg" width="18" height="18" viewBox="0 0 18 18">
  <g id="instagram" transform="translate(0.001)">
    <path id="Path_265" data-name="Path 265" d="M13.127,0H4.871A4.878,4.878,0,0,0,0,4.872v8.255A4.878,4.878,0,0,0,4.871,18h8.255A4.878,4.878,0,0,0,18,13.128V4.872A4.878,4.878,0,0,0,13.127,0ZM9,13.922A4.922,4.922,0,1,1,13.921,9,4.927,4.927,0,0,1,9,13.922Zm5.039-8.683a1.454,1.454,0,1,1,1.454-1.454A1.456,1.456,0,0,1,14.039,5.239Zm0,0" fill="#0cf"/>
    <path id="Path_266" data-name="Path 266" d="M149.886,146.02a3.866,3.866,0,1,0,3.866,3.866A3.871,3.871,0,0,0,149.886,146.02Zm0,0" transform="translate(-140.887 -140.886)" fill="#0cf"/>
    <path id="Path_267" data-name="Path 267" d="M388.391,96.3a.4.4,0,1,0,.4.4A.4.4,0,0,0,388.391,96.3Zm0,0" transform="translate(-374.353 -92.915)" fill="#0cf"/>
  </g>
</svg>
