<svg xmlns="http://www.w3.org/2000/svg" width="29.917" height="29.98" viewBox="0 0 29.917 29.98">
  <g id="phone-call-2-blu" transform="translate(-0.539)">
    <g id="Group_194" data-name="Group 194" transform="translate(0.539 0)">
      <path id="Path_169" data-name="Path 169" d="M29.671,22l-4.184-4.184a2.783,2.783,0,0,0-4.632,1.046,2.847,2.847,0,0,1-3.287,1.793c-2.988-.747-7.023-4.632-7.77-7.77A2.708,2.708,0,0,1,11.592,9.6a2.783,2.783,0,0,0,1.046-4.632L8.454.784a2.984,2.984,0,0,0-4.034,0L1.58,3.623c-2.839,2.988.3,10.908,7.322,17.93s14.942,10.31,17.93,7.322l2.839-2.839A2.984,2.984,0,0,0,29.671,22Z" transform="translate(-0.539 0)" fill="#0cf"/>
    </g>
  </g>
</svg>
