<svg xmlns="http://www.w3.org/2000/svg" width="51.948" height="40.927" viewBox="0 0 51.948 40.927">
  <g id="quotation-marks" transform="translate(1.534 -37.648)">
    <path id="Path_130" data-name="Path 130" d="M10.067,54.215c.6-3.748,5.281-7.751,8.944-7.836a.967.967,0,0,0,.681-.256.7.7,0,0,0,.426-.426c1.278-2.385.6-4.259-1.533-5.792-2.47-1.789-6.388,0-8.348,1.618C5.3,45.612.271,52.681.527,59.411a28.169,28.169,0,0,0,.6,13.373c.852,2.555,3.322,3.833,5.877,4s7.836.937,10.136-.6,2.47-4.515,2.726-7.07c.256-2.811,1.022-8.092-1.363-10.307C16.114,56.685,9.3,58.985,10.067,54.215Z" transform="translate(0 0)" fill="#ed1e7f" stroke="#fff" stroke-width="3"/>
    <path id="Path_131" data-name="Path 131" d="M212.027,54.215c.6-3.748,5.281-7.751,8.944-7.836a.967.967,0,0,0,.681-.256.7.7,0,0,0,.426-.426c1.278-2.385.6-4.259-1.533-5.792-2.47-1.789-6.388,0-8.348,1.618-4.94,4.089-9.966,11.158-9.71,17.888a28.171,28.171,0,0,0,.6,13.373c.852,2.555,3.322,3.833,5.877,4s7.836.937,10.136-.6,2.47-4.515,2.726-7.07c.256-2.811,1.022-8.092-1.363-10.307C218.074,56.685,211.175,58.985,212.027,54.215Z" transform="translate(-173.851 0)" fill="#ed1e7f" stroke="#fff" stroke-width="3"/>
  </g>
</svg>
