<svg xmlns="http://www.w3.org/2000/svg" width="27.42" height="28.159" viewBox="0 0 27.42 28.159">
  <g id="settings" transform="translate(-6.71)">
    <g id="Group_193" data-name="Group 193" transform="translate(6.71)">
      <path id="Path_168" data-name="Path 168" d="M33.656,17.165l-2.588-2.024a10.191,10.191,0,0,0,.061-1.063,9.883,9.883,0,0,0-.061-1.063l2.591-2.025a1.269,1.269,0,0,0,.306-1.617L31.273,4.717a1.248,1.248,0,0,0-1.557-.56L26.662,5.383a10.471,10.471,0,0,0-1.834-1.064l-.465-3.239A1.246,1.246,0,0,0,23.12,0h-5.4a1.243,1.243,0,0,0-1.241,1.07l-.466,3.251a10.794,10.794,0,0,0-1.83,1.064l-3.062-1.23a1.273,1.273,0,0,0-1.545.55L6.883,9.369a1.262,1.262,0,0,0,.305,1.625l2.588,2.024a9.283,9.283,0,0,0,0,2.125L7.186,17.167a1.269,1.269,0,0,0-.305,1.617l2.692,4.657a1.245,1.245,0,0,0,1.557.56l3.054-1.226a10.563,10.563,0,0,0,1.833,1.064l.465,3.238a1.245,1.245,0,0,0,1.244,1.082h5.4a1.244,1.244,0,0,0,1.242-1.07l.466-3.25a10.845,10.845,0,0,0,1.83-1.065L29.722,24a1.261,1.261,0,0,0,.46.087,1.239,1.239,0,0,0,1.085-.636l2.7-4.681A1.267,1.267,0,0,0,33.656,17.165ZM20.422,18.772a4.693,4.693,0,1,1,4.693-4.693A4.7,4.7,0,0,1,20.422,18.772Z" transform="translate(-6.71)" fill="#fff"/>
    </g>
  </g>
</svg>
