<svg xmlns="http://www.w3.org/2000/svg" width="43.019" height="48.001" viewBox="0 0 43.019 48.001">
  <g id="signup" transform="translate(-26.57)">
    <g id="Group_502" data-name="Group 502" transform="translate(26.57)">
      <g id="Group_501" data-name="Group 501">
        <path id="Path_414" data-name="Path 414" d="M129.522,201.875A1.875,1.875,0,0,0,127.647,200H108.334a1.875,1.875,0,1,0,0,3.75h19.313A1.875,1.875,0,0,0,129.522,201.875Z" transform="translate(-98.969 -181.25)" fill="#fff"/>
        <path id="Path_415" data-name="Path 415" d="M108.334,280a1.875,1.875,0,1,0,0,3.75h11.729a1.875,1.875,0,1,0,0-3.75Z" transform="translate(-98.969 -253.749)" fill="#fff"/>
        <path id="Path_416" data-name="Path 416" d="M40.341,44.251H34.07a3.754,3.754,0,0,1-3.75-3.75V7.5a3.754,3.754,0,0,1,3.75-3.75H57.123a3.754,3.754,0,0,1,3.75,3.75V19.032a1.875,1.875,0,0,0,3.75,0V7.5a7.509,7.509,0,0,0-7.5-7.5H34.07a7.509,7.509,0,0,0-7.5,7.5v33a7.509,7.509,0,0,0,7.5,7.5h6.271a1.875,1.875,0,1,0,0-3.75Z" transform="translate(-26.57)" fill="#fff"/>
        <path id="Path_417" data-name="Path 417" d="M264.5,273.669a5.631,5.631,0,0,0-7.954,0L246.25,283.939a1.875,1.875,0,0,0-.47.782l-2.242,7.381a1.875,1.875,0,0,0,2.295,2.352l7.568-2.1a1.874,1.874,0,0,0,.824-.48L264.5,281.624A5.631,5.631,0,0,0,264.5,273.669Zm-12.573,15.206-3.807,1.055,1.114-3.668,6.946-6.931,2.652,2.652Zm9.923-9.9-.363.362-2.652-2.652.362-.361a1.875,1.875,0,0,1,2.653,2.651Z" transform="translate(-223.123 -246.521)" fill="#fff"/>
        <path id="Path_418" data-name="Path 418" d="M127.647,120H108.334a1.875,1.875,0,1,0,0,3.75h19.313a1.875,1.875,0,0,0,0-3.75Z" transform="translate(-98.969 -108.75)" fill="#fff"/>
      </g>
    </g>
  </g>
</svg>
