<svg xmlns="http://www.w3.org/2000/svg" width="54.75" height="53.058" viewBox="0 0 54.75 53.058">
  <g id="tick" transform="translate(0 -0.499)">
    <path id="Path_124" data-name="Path 124" d="M.027,40.559a.911.911,0,0,0,.331.947L15.871,53.369a.907.907,0,0,0,.728.171l37.413-7.3a.912.912,0,0,0,.249-1.7L35.1,34.5a.915.915,0,0,0-.569-.091l-1.725.274A70.345,70.345,0,0,1,46.759,8.643q.639-.764,1.3-1.515a35.883,35.883,0,0,1,2.8-2.817c.1-.091.263-.257.456-.456l.245-.253a1.825,1.825,0,0,0,.365-2.021A1.776,1.776,0,0,0,50.208.5c-5.746.19-19.822,3.135-27.883,26.112C19.2,24.726,9.594,19.769,3.049,25.494a.913.913,0,0,0,.6,1.6h.007a11.255,11.255,0,0,1,1.028.466l.189.091a30.657,30.657,0,0,1,3.785,2,22.689,22.689,0,0,1,7.614,7.65c.013.021.025.048.038.069L.766,39.881a.913.913,0,0,0-.739.678Zm23.7,4.785h.43c1.82,0,4.015-.056,5.577-1.619A7.188,7.188,0,0,0,31.5,40.445l2.4-.393,6.306,3.305L17.565,47.774,12.09,43.587,19,42.464a5.613,5.613,0,0,0,4.724,2.88ZM9.62,28.092a32.357,32.357,0,0,0-4.007-2.109l-.085-.042c6.738-4,16.66,2.743,16.767,2.816a.912.912,0,0,0,1.383-.462C31.311,5.394,44.812,2.505,50.247,2.33l-.253.261c-.154.161-.281.294-.365.371A37.821,37.821,0,0,0,46.69,5.924q-.676.767-1.331,1.551A71.7,71.7,0,0,0,30.688,35.568c0,.016-.008.03-.012.046-.065.257-.135.515-.2.773-.127.534-.226,1.082-.326,1.634-.086.476-.173.942-.274,1.393l-.006.024a5.912,5.912,0,0,1-1.433,3c-1.084,1.083-2.8,1.088-4.5,1.083h-.217c-1.551,0-2.609-1.064-3.475-2.478a.67.67,0,0,0-.06-.1c-.449-.75-.85-1.59-1.245-2.422-.371-.782-.721-1.521-1.108-2.165A24.505,24.505,0,0,0,9.62,28.092Zm7.566,10.98c.037.079.074.15.111.23.227.478.464.977.72,1.474l-8.3,1.35A.912.912,0,0,0,9.3,43.751l7.482,5.721a.906.906,0,0,0,.551.188.877.877,0,0,0,.175-.016l25.6-4.993a.912.912,0,0,0,.249-1.7l-8.878-4.654a.913.913,0,0,0-.571-.091l-1.993.326c.011-.06.023-.122.034-.183.091-.518.183-1.035.306-1.537.015-.065.034-.13.049-.2l2.217-.358,16.591,8.691L16.653,51.671,3.15,41.344Zm0,0" transform="translate(0 0)" fill="#fff"/>
    <path id="Path_125" data-name="Path 125" d="M299.125,57.046a.9.9,0,0,0,.442.115.912.912,0,0,0,.8-.47c4.344-7.818,9.581-10.541,9.65-10.577a.914.914,0,1,0-.821-1.632c-.233.117-5.781,2.961-10.427,11.324a.913.913,0,0,0,.358,1.24Zm0,0" transform="translate(-266.717 -39.192)" fill="#fff"/>
    <path id="Path_126" data-name="Path 126" d="M273.567,175.994a.912.912,0,0,0,1.225-.409l.912-1.825a.913.913,0,1,0-1.633-.816l-.912,1.825a.912.912,0,0,0,.409,1.224Zm0,0" transform="translate(-243.862 -153.554)" fill="#fff"/>
  </g>
</svg>
