<svg id="tiger" xmlns="http://www.w3.org/2000/svg" width="51.064" height="58.919" viewBox="0 0 51.064 58.919">
  <g id="Group_80" data-name="Group 80" transform="translate(0)">
    <g id="Group_79" data-name="Group 79">
      <path id="Path_75" data-name="Path 75" d="M148.558,111.093a.981.981,0,0,0-1.362.272,14.519,14.519,0,0,0-2.129,7.419c0,3.888,2.762,9.1,7.884,11.45a4.35,4.35,0,0,0,2.06,3.53,7.217,7.217,0,0,0,13.5,0,4.344,4.344,0,0,0,2.061-3.53c5.121-2.347,7.884-7.562,7.884-11.45a14.508,14.508,0,0,0-2.129-7.419.982.982,0,1,0-1.634,1.09,12.6,12.6,0,0,1,1.8,6.329,11.407,11.407,0,0,1-6.063,9.331,4.717,4.717,0,0,0-1.1-2.169.975.975,0,0,0-1.372,0,.991.991,0,0,0-.028,1.383,3.4,3.4,0,0,1,.706,2.263,2.641,2.641,0,0,1-2.946,2.946,2.918,2.918,0,0,1-2.775-2.18,4.506,4.506,0,0,0,2.775-3.712c0-.039-.014-.066-.016-.1a.572.572,0,0,0,0-.059l-.982-5.892a.982.982,0,0,0-1.936.324l.637,3.828a21.586,21.586,0,0,0-3.267,0l.638-3.828a.982.982,0,0,0-1.937-.324l-.982,5.892c0,.021,0,.039,0,.059,0,.037-.016.064-.016.1a4.506,4.506,0,0,0,2.775,3.712,2.917,2.917,0,0,1-2.775,2.18,2.641,2.641,0,0,1-2.946-2.946,3.416,3.416,0,0,1,.694-2.252.982.982,0,0,0-1.389-1.388,4.717,4.717,0,0,0-1.1,2.169,11.407,11.407,0,0,1-6.063-9.331,12.724,12.724,0,0,1,1.8-6.329A.983.983,0,0,0,148.558,111.093Zm11.25,15.664a16.393,16.393,0,0,1,3.907,0c-.1.653-1,1.847-1.954,1.847S159.913,127.412,159.808,126.757Zm-1.975,7.739a4.644,4.644,0,0,0,3.928-2.1,4.645,4.645,0,0,0,3.928,2.1c.09,0,.182-.006.271-.01a5.436,5.436,0,0,1-8.381,0C157.664,134.491,157.748,134.5,157.833,134.5Z" transform="translate(-132.301 -98.162)" fill="#0cf"/>
      <path id="Path_76" data-name="Path 76" d="M220.522,375.829a75.288,75.288,0,0,1,.478-7.781.982.982,0,1,0-1.946-.257,76.075,76.075,0,0,0-.5,7.984h-.01a.982.982,0,0,0,0,1.964h.982c2.946,0,2.946,1.478,2.946,1.964,0,1.289-1.482,1.964-2.946,1.964h-.982a2.95,2.95,0,0,1-2.946-2.946V368.9a.982.982,0,0,0-1.964,0v9.82a2.95,2.95,0,0,1-2.946,2.946h-.982c-1.464,0-2.946-.675-2.946-1.964,0-.486,0-1.964,2.946-1.964h.982a.982.982,0,1,0,0-1.964h-.009a76.2,76.2,0,0,0-.5-7.973.982.982,0,1,0-1.946.258,75.3,75.3,0,0,1,.478,7.77c-2.473.289-3.918,1.69-3.918,3.873,0,2.276,2.065,3.928,4.91,3.928h.982a4.907,4.907,0,0,0,3.928-1.967,4.907,4.907,0,0,0,3.928,1.967h.982c2.845,0,4.91-1.652,4.91-3.928C224.44,377.519,222.994,376.118,220.522,375.829Z" transform="translate(-185.16 -324.71)" fill="#0cf"/>
      <path id="Path_77" data-name="Path 77" d="M51.809,270.217h-.982c-1.464,0-2.946-.675-2.946-1.964,0-.486,0-1.964,2.946-1.964a.984.984,0,0,0,.82-1.522c-.019-.028-1.8-2.826-1.8-8.3a5.724,5.724,0,0,1,.988-3.373.982.982,0,1,0-1.6-1.132,7.564,7.564,0,0,0-1.328,4.2,6.269,6.269,0,0,1-2.825-2.143c-1.4-1.9-1.78-4.654-1.139-8.179.485-2.669-1.023-4.328-2.63-4.739a3.394,3.394,0,0,0-3.874,1.673,3.976,3.976,0,0,0-3.3,3.725,2.2,2.2,0,0,0,.476,1.431,1.939,1.939,0,0,0,1.527.681,2.863,2.863,0,0,0,2.946-2.946v-1.788a1.433,1.433,0,0,1,1.737-.872c.756.193,1.465.948,1.185,2.484-.741,4.077-.241,7.338,1.488,9.693a8.359,8.359,0,0,0,4.455,3.067,19.66,19.66,0,0,0,1.36,6.21c-2.15.417-3.391,1.77-3.391,3.791,0,2.276,2.065,3.928,4.91,3.928h.982a.982.982,0,1,0,0-1.964ZM37.118,245.655a.945.945,0,0,1-.993,1.029,1.292,1.292,0,0,1,.213-.971,2.105,2.105,0,0,1,.78-.781Z" transform="translate(-34.133 -213.261)" fill="#0cf"/>
      <path id="Path_78" data-name="Path 78" d="M216.279,155.073a1.473,1.473,0,1,0-1.473,1.473A1.475,1.475,0,0,0,216.279,155.073Z" transform="translate(-192.711 -135.924)" fill="#0cf"/>
      <path id="Path_79" data-name="Path 79" d="M387.483,345.658a20.71,20.71,0,0,0,1.427-7.992,7.643,7.643,0,0,0-1.343-4.5.982.982,0,1,0-1.606,1.13,5.728,5.728,0,0,1,.985,3.368c0,5.472-1.783,8.269-1.8,8.293a.982.982,0,0,0,.817,1.527c2.946,0,2.946,1.478,2.946,1.964,0,1.289-1.482,1.964-2.946,1.964h-.982a.982.982,0,0,0,0,1.964h.982c2.845,0,4.91-1.652,4.91-3.928C390.874,347.428,389.633,346.075,387.483,345.658Z" transform="translate(-343.738 -294.458)" fill="#0cf"/>
      <path id="Path_80" data-name="Path 80" d="M358.525,184.594a.983.983,0,0,0,1.34.367,7.092,7.092,0,0,0,3.427-4.615.981.981,0,1,0-1.935-.332,5.1,5.1,0,0,1-2.465,3.241A.981.981,0,0,0,358.525,184.594Z" transform="translate(-321.08 -158.576)" fill="#0cf"/>
      <path id="Path_81" data-name="Path 81" d="M145.608,5.892A5.9,5.9,0,0,0,139.716,0a5.682,5.682,0,0,0-4.955,2.714,22.672,22.672,0,0,0-21.537.013A5.8,5.8,0,0,0,108.292,0,5.9,5.9,0,0,0,102.4,5.892a5.639,5.639,0,0,0,3.056,5.059,22.074,22.074,0,0,0-2.074,9.671c0,6.089,1.7,10.88,5.049,14.238a.983.983,0,0,0,1.324.06l.5-.417v1.415a.982.982,0,0,0,.427.81,18.306,18.306,0,0,0,4.15,2.093.982.982,0,0,0,.662-1.849,16.58,16.58,0,0,1-3.275-1.583V32.406a.981.981,0,0,0-1.61-.754l-1.4,1.166c-2.565-2.942-3.864-7.04-3.864-12.2a19.757,19.757,0,0,1,2.33-9.691.98.98,0,0,0-.569-1.414,3.762,3.762,0,0,1-2.744-3.625,3.932,3.932,0,0,1,3.928-3.928,3.858,3.858,0,0,1,3.273,1.809,18.567,18.567,0,0,0-3.359,3,.982.982,0,0,0,1.48,1.291,16.735,16.735,0,0,1,3.493-2.991c.01,0,.021,0,.031,0a.986.986,0,0,0,.35-.236,19.7,19.7,0,0,1,9.464-2.824V4.021a12.653,12.653,0,0,0-5.4,1.615.982.982,0,1,0,.983,1.7,10.7,10.7,0,0,1,4.419-1.356v.955a9.757,9.757,0,0,0-3.415.976.982.982,0,0,0,.881,1.756,7.778,7.778,0,0,1,2.535-.761v2.878a.982.982,0,1,0,1.964,0V8.907a7.793,7.793,0,0,1,2.53.758.982.982,0,1,0,.881-1.756,9.751,9.751,0,0,0-3.41-.974V5.98A10.679,10.679,0,0,1,129.4,7.337a.982.982,0,0,0,.984-1.7,12.653,12.653,0,0,0-5.4-1.615V2.012a18.634,18.634,0,0,1,13.378,6.1.982.982,0,0,0,1.485-1.285,18.678,18.678,0,0,0-3.426-3.071,3.763,3.763,0,0,1,3.294-1.794,3.932,3.932,0,0,1,3.928,3.928,3.739,3.739,0,0,1-2.713,3.661.984.984,0,0,0-.581,1.415,19.74,19.74,0,0,1,2.313,9.654c0,5.155-1.3,9.253-3.864,12.2l-1.4-1.166a.982.982,0,0,0-1.611.754v2.982a16.521,16.521,0,0,1-3.277,1.584.982.982,0,1,0,.662,1.849,18.242,18.242,0,0,0,4.152-2.094.982.982,0,0,0,.427-.81V34.5l.5.417a.983.983,0,0,0,1.324-.06c3.351-3.358,5.049-8.149,5.049-14.238A22.075,22.075,0,0,0,142.572,11,5.654,5.654,0,0,0,145.608,5.892Z" transform="translate(-94.544 0)" fill="#0cf"/>
      <path id="Path_82" data-name="Path 82" d="M251.5,123.834a.982.982,0,0,0,1.757,0c.921-1.841,1.634-2.4,3.05-2.4a.982.982,0,0,0,0-1.964,4.461,4.461,0,0,0-3.928,2,4.461,4.461,0,0,0-3.928-2,.982.982,0,0,0,0,1.964C249.866,121.431,250.579,121.993,251.5,123.834Z" transform="translate(-222.918 -105.719)" fill="#0cf"/>
      <path id="Path_83" data-name="Path 83" d="M342.806,153.6a1.473,1.473,0,1,0,1.473,1.473A1.475,1.475,0,0,0,342.806,153.6Z" transform="translate(-305.981 -135.924)" fill="#0cf"/>
      <path id="Path_84" data-name="Path 84" d="M181.15,180a.982.982,0,0,0-1.934.339,7.1,7.1,0,0,0,3.427,4.615.982.982,0,0,0,.972-1.707A5.107,5.107,0,0,1,181.15,180Z" transform="translate(-162.508 -158.57)" fill="#0cf"/>
    </g>
  </g>
</svg>
