<svg xmlns="http://www.w3.org/2000/svg" width="27.136" height="24.669" viewBox="0 0 27.136 24.669">
  <g id="translate" transform="translate(0 -21.333)">
    <g id="Group_276" data-name="Group 276" transform="translate(0 21.333)">
      <g id="Group_275" data-name="Group 275" transform="translate(0 0)">
        <path id="Path_250" data-name="Path 250" d="M14.641,37.46h0l-3.133-3.1.037-.037a21.61,21.61,0,0,0,4.576-8.054h3.614V23.8H11.1V21.333H8.634V23.8H0v2.455H13.778a19.481,19.481,0,0,1-3.91,6.611,19.451,19.451,0,0,1-2.849-4.132H4.551a21.662,21.662,0,0,0,3.676,5.625l-6.272,6.2L3.7,42.3l6.167-6.167L13.7,39.97Z" transform="translate(0 -21.333)" fill="#ababab"/>
        <path id="Path_251" data-name="Path 251" d="M242.683,192h-2.467l-5.55,14.8h2.467l1.388-3.7h5.859l1.388,3.7h2.467Zm-3.238,8.634,2-5.347,2,5.347Z" transform="translate(-221.098 -182.132)" fill="#ababab"/>
      </g>
    </g>
  </g>
</svg>
