<svg id="briefcase" xmlns="http://www.w3.org/2000/svg" width="51.379" height="45.333" viewBox="0 0 51.379 45.333">
  <path id="Path_86" data-name="Path 86" d="M49.874,39.194H36.264V36.2a6.085,6.085,0,0,0-6.078-6.078H21.193A6.085,6.085,0,0,0,15.115,36.2v2.991H1.505A1.505,1.505,0,0,0,0,40.7V68.045a7.422,7.422,0,0,0,7.413,7.413H43.966a7.422,7.422,0,0,0,7.413-7.413V40.7A1.505,1.505,0,0,0,49.874,39.194ZM29.105,58.838a3.415,3.415,0,0,1-6.831,0V55.422h6.831Zm1.505-6.426H20.769a1.505,1.505,0,0,0-1.505,1.505v2.734C10.51,54.751,3.949,49.074,3.1,42.2H48.275c-.844,6.869-7.406,12.547-16.159,14.447V53.917a1.505,1.505,0,0,0-1.505-1.505ZM18.126,36.2a3.071,3.071,0,0,1,3.067-3.067h8.993A3.071,3.071,0,0,1,33.253,36.2v2.991H18.126V36.2ZM48.369,68.045a4.408,4.408,0,0,1-4.4,4.4H7.413a4.408,4.408,0,0,1-4.4-4.4V49.967a21.13,21.13,0,0,0,4.675,4.762A28.358,28.358,0,0,0,19.328,59.74a6.425,6.425,0,0,0,12.723,0,28.358,28.358,0,0,0,11.643-5.011,21.132,21.132,0,0,0,4.675-4.762Z" transform="translate(0 -30.125)" fill="#0cf"/>
</svg>
