<svg xmlns="http://www.w3.org/2000/svg" width="60" height="60" viewBox="0 0 60 60">
  <g id="choose_celeb" data-name="choose celeb" transform="translate(0)">
    <g id="Group_504" data-name="Group 504" transform="translate(14.296 32.766)">
      <g id="Group_503" data-name="Group 503">
        <path id="Path_419" data-name="Path 419" d="M125.326,283.4a1.79,1.79,0,0,1,2.394.752l3.309,6.128a1.172,1.172,0,0,0,2.2-.557v-8.947a1.172,1.172,0,0,0-2.344,0v4.311l-1.106-2.048a4.143,4.143,0,0,0-7.673,2.94l2.145,8.892a16.049,16.049,0,0,0,2.657,5.735l4.2,5.751a1.172,1.172,0,0,0,1.892-1.383l-4.2-5.751a13.716,13.716,0,0,1-2.271-4.9l-2.145-8.892A1.793,1.793,0,0,1,125.326,283.4Z" transform="translate(-121.991 -279.604)" fill="#fff"/>
      </g>
    </g>
    <g id="Group_506" data-name="Group 506" transform="translate(23.192 18.471)">
      <g id="Group_505" data-name="Group 505">
        <path id="Path_420" data-name="Path 420" d="M218.805,170.716a3.965,3.965,0,0,0-1.91.488,3.985,3.985,0,0,0-5.735-2.02,3.984,3.984,0,0,0-5.272-1.973v-5.6a3.99,3.99,0,0,0-7.979,0v2.031a1.172,1.172,0,0,0,2.344,0v-2.031a1.646,1.646,0,0,1,3.292,0v16.536a1.172,1.172,0,0,0,2.344,0v-7.3a1.646,1.646,0,0,1,3.292,0v7.3a1.172,1.172,0,1,0,2.344,0v-5.516a1.646,1.646,0,1,1,3.292,0v5.516a1.172,1.172,0,1,0,2.344,0v-3.439a1.646,1.646,0,1,1,3.292,0v9.888a25.906,25.906,0,0,1-1.188,7.76l-1.653,5.271a1.172,1.172,0,1,0,2.236.7l1.653-5.271a28.249,28.249,0,0,0,1.3-8.461v-9.888A3.994,3.994,0,0,0,218.805,170.716Z" transform="translate(-197.909 -157.619)" fill="#fff"/>
      </g>
    </g>
    <g id="Group_508" data-name="Group 508" transform="translate(42.691 0)">
      <g id="Group_507" data-name="Group 507" transform="translate(0 0)">
        <path id="Path_421" data-name="Path 421" d="M381.511,6.214a1.96,1.96,0,0,0-1.593-1.342l-3.589-.52L374.723,1.1A1.96,1.96,0,0,0,372.954,0h0a1.96,1.96,0,0,0-1.769,1.1l-1.6,3.253-3.589.523A1.973,1.973,0,0,0,364.9,8.241l2.6,2.531-.612,3.575a1.97,1.97,0,0,0,2.863,2.079l3.21-1.689,3.211,1.687a1.973,1.973,0,0,0,2.862-2.081l-.614-3.575,2.6-2.532A1.961,1.961,0,0,0,381.511,6.214ZM376.64,9.227a1.972,1.972,0,0,0-.567,1.746l.52,3.026-2.718-1.428a1.972,1.972,0,0,0-1.836,0L369.321,14l.518-3.027a1.973,1.973,0,0,0-.568-1.746l-2.2-2.143,3.039-.442a1.973,1.973,0,0,0,1.485-1.08l1.358-2.754,1.36,2.753A1.973,1.973,0,0,0,375.8,6.643l3.039.441Z" transform="translate(-364.301 0)" fill="#fff"/>
      </g>
    </g>
    <g id="Group_510" data-name="Group 510" transform="translate(21.345 0)">
      <g id="Group_509" data-name="Group 509" transform="translate(0 0)">
        <path id="Path_422" data-name="Path 422" d="M199.36,6.214a1.96,1.96,0,0,0-1.593-1.342l-3.589-.52L192.572,1.1A1.961,1.961,0,0,0,190.8,0h0a1.96,1.96,0,0,0-1.769,1.1l-1.6,3.253-3.589.523a1.973,1.973,0,0,0-1.092,3.365l2.6,2.531-.612,3.575a1.97,1.97,0,0,0,2.863,2.079l3.21-1.689,3.211,1.687a1.973,1.973,0,0,0,2.862-2.081l-.614-3.575,2.6-2.532A1.961,1.961,0,0,0,199.36,6.214Zm-4.871,3.013a1.972,1.972,0,0,0-.567,1.746l.52,3.026-2.718-1.428a1.972,1.972,0,0,0-1.836,0L187.17,14l.518-3.027a1.973,1.973,0,0,0-.568-1.746l-2.2-2.143,3.039-.442a1.973,1.973,0,0,0,1.485-1.08L190.8,2.811l1.36,2.753a1.973,1.973,0,0,0,1.486,1.079l3.039.441Z" transform="translate(-182.15 0)" fill="#fff"/>
      </g>
    </g>
    <g id="Group_512" data-name="Group 512" transform="translate(0 0)">
      <g id="Group_511" data-name="Group 511" transform="translate(0 0)">
        <path id="Path_423" data-name="Path 423" d="M17.21,6.214a1.961,1.961,0,0,0-1.593-1.342l-3.589-.52L10.422,1.1A1.961,1.961,0,0,0,8.653,0h0A1.96,1.96,0,0,0,6.883,1.1l-1.6,3.253L1.69,4.876A1.973,1.973,0,0,0,.6,8.241l2.6,2.531-.612,3.575a1.97,1.97,0,0,0,2.863,2.079l3.21-1.689,3.211,1.687a1.973,1.973,0,0,0,2.862-2.081l-.614-3.575,2.6-2.532A1.961,1.961,0,0,0,17.21,6.214ZM12.339,9.227a1.972,1.972,0,0,0-.567,1.747L12.292,14,9.574,12.572a1.972,1.972,0,0,0-1.836,0L5.02,14l.518-3.026A1.972,1.972,0,0,0,4.97,9.229l-2.2-2.143L5.81,6.644a1.973,1.973,0,0,0,1.485-1.08L8.653,2.811l1.36,2.753A1.973,1.973,0,0,0,11.5,6.643l3.039.441Z" transform="translate(0 0)" fill="#fff"/>
      </g>
    </g>
    <g id="Group_514" data-name="Group 514" transform="translate(23.192 28.148)">
      <g id="Group_513" data-name="Group 513">
        <path id="Path_424" data-name="Path 424" d="M199.911,240.543a1.171,1.171,0,1,0,.343.828A1.18,1.18,0,0,0,199.911,240.543Z" transform="translate(-197.911 -240.2)" fill="#fff"/>
      </g>
    </g>
  </g>
</svg>
