<svg xmlns="http://www.w3.org/2000/svg" width="30.17" height="21.496" viewBox="0 0 30.17 21.496">
  <g id="email-2" transform="translate(0 -33.085)">
    <path id="Path_170" data-name="Path 170" d="M169.114,48.908c0-.034.024-.068.022-.1l-9.207,8.871,9.2,8.588c.005-.061-.011-.123-.011-.186Z" transform="translate(-138.966 -13.66)" fill="#0cf"/>
    <path id="Path_171" data-name="Path 171" d="M29.124,126.9l-3.758,3.616a.983.983,0,0,1-1.352.011l-3.748-3.493-9.256,8.922a2.133,2.133,0,0,0,.72.144H37.639a2.131,2.131,0,0,0,1.034-.285Z" transform="translate(-9.567 -81.519)" fill="#0cf"/>
    <path id="Path_172" data-name="Path 172" d="M20.433,46.936,34.484,33.4a2.129,2.129,0,0,0-1.085-.316H7.489a2.135,2.135,0,0,0-1.359.507Z" transform="translate(-5.327)" fill="#0cf"/>
    <path id="Path_173" data-name="Path 173" d="M0,52.1V68.941a2.138,2.138,0,0,0,.093.558l9.141-8.8Z" transform="translate(0 -16.523)" fill="#0cf"/>
  </g>
</svg>
