<svg xmlns="http://www.w3.org/2000/svg" width="26" height="28.033" viewBox="0 0 26 28.033">
  <g id="gift-box" transform="translate(-0.013 0.001)">
    <path id="Path_273" data-name="Path 273" d="M128.886,36.627a.464.464,0,0,0,.445-.6,8.184,8.184,0,0,0-1.686-3.079,2.584,2.584,0,0,0-2.453-.751.464.464,0,0,0-.268.268,1.164,1.164,0,0,0-.057.214,1.778,1.778,0,0,0-.023.262v.007a2.8,2.8,0,0,0,.83,1.97,8.187,8.187,0,0,0,3.078,1.685.487.487,0,0,0,.134.02Zm-2.554-2.363a1.919,1.919,0,0,1-.425-.648v0c-.02-.051-.038-.1-.053-.153-.008-.027-.014-.052-.02-.079s-.013-.046-.018-.07-.006-.033-.009-.049a1.768,1.768,0,0,1-.028-.21,1.919,1.919,0,0,1,1.213.557,6.309,6.309,0,0,1,1.1,1.76,6.308,6.308,0,0,1-1.762-1.1Zm0,0" transform="translate(-117.586 -30.272)" fill="#333"/>
    <path id="Path_274" data-name="Path 274" d="M25.548,6.675H18.381a6.5,6.5,0,0,0,.87-.712c1.661-1.666,1.715-4.191.654-5.252S16.32-.3,14.652,1.366a9.109,9.109,0,0,0-1.639,2.516,9.1,9.1,0,0,0-1.641-2.517C9.706-.3,7.181-.351,6.119.71S5.113,4.3,6.774,5.963a6.527,6.527,0,0,0,.87.712H.477a.464.464,0,0,0-.464.464v4.643a.464.464,0,0,0,.464.464h.929V25.71a2.324,2.324,0,0,0,2.321,2.321H22.3A2.324,2.324,0,0,0,24.62,25.71V12.246h.929a.464.464,0,0,0,.464-.464V7.139a.464.464,0,0,0-.464-.464ZM15.309,2.022c1.334-1.33,3.281-1.315,3.94-.655s.676,2.605-.655,3.94a7.775,7.775,0,0,1-2.06,1.368H13.76v-.03c0-.106-.008-.213-.018-.321,0-.036-.008-.071-.012-.107q-.016-.134-.04-.266c0-.031-.01-.062-.016-.093-.022-.116-.046-.229-.074-.339,0-.016-.008-.03-.012-.046-.025-.1-.05-.186-.076-.278L13.5,5.154a8.852,8.852,0,0,1,1.807-3.132Zm-.439,9.3H11.155V7.6H14.87ZM7.431,5.307C6.1,3.972,6.116,2.027,6.776,1.367s2.605-.676,3.939.654a8.918,8.918,0,0,1,1.857,3.273c.052.163.093.319.131.471.011.044.019.086.029.129.025.113.045.221.061.325,0,.035.012.071.016.106a3,3,0,0,1,.024.349H9.49a7.781,7.781,0,0,1-2.06-1.366ZM.941,7.6h9.286v3.714H.941ZM2.334,25.71V12.246h8.821V27.1H3.727A1.393,1.393,0,0,1,2.334,25.71Zm9.75,1.393V12.246h1.857V27.1ZM23.691,25.71A1.393,1.393,0,0,1,22.3,27.1H14.87V12.246h8.821Zm1.393-14.393H15.8V7.6h9.286Zm0,0" fill="#333"/>
    <path id="Path_275" data-name="Path 275" d="M245.972,36.683a.464.464,0,0,0,.132-.019,8.157,8.157,0,0,0,3.08-1.688,2.628,2.628,0,0,0,.752-2.455.461.461,0,0,0-.267-.267,2.628,2.628,0,0,0-2.455.752,8.163,8.163,0,0,0-1.688,3.08.464.464,0,0,0,.445.6Zm1.9-3.02a1.926,1.926,0,0,1,1.214-.557,1.924,1.924,0,0,1-.557,1.214,6.276,6.276,0,0,1-1.764,1.107,6.272,6.272,0,0,1,1.108-1.764Zm0,0" transform="translate(-231.247 -30.327)" fill="#333"/>
  </g>
</svg>
