<svg id="linked-in-logo-of-two-letters" xmlns="http://www.w3.org/2000/svg" width="20.954" height="19.353" viewBox="0 0 20.954 19.353">
  <g id="Group_125" data-name="Group 125" transform="translate(0 0)">
    <path id="Path_135" data-name="Path 135" d="M.6,190.555H3a.6.6,0,0,0,.6-.6v-10.5a.6.6,0,0,0-.6-.6H.6a.6.6,0,0,0-.6.6v10.5A.6.6,0,0,0,.6,190.555Z" transform="translate(0 -171.202)" fill="#0cf"/>
    <path id="Path_136" data-name="Path 136" d="M.6,27.251H3a.6.6,0,0,0,.6-.6V24.516a.6.6,0,0,0-.6-.6H.6a.6.6,0,0,0-.6.6V26.65A.6.6,0,0,0,.6,27.251Z" transform="translate(0 -23.916)" fill="#0cf"/>
    <path id="Path_137" data-name="Path 137" d="M193.055,171.171a3.654,3.654,0,0,0-1.494-1.1,5.41,5.41,0,0,0-2.18-.43,5.34,5.34,0,0,0-4.1,1.848c-.223.245-.385.192-.385-.14v-.8a.6.6,0,0,0-.6-.6h-2.147a.6.6,0,0,0-.6.6v10.5a.6.6,0,0,0,.6.6h2.4a.6.6,0,0,0,.6-.6V177.4a11.752,11.752,0,0,1,.276-3.129,2.584,2.584,0,0,1,1.02-1.359,2.89,2.89,0,0,1,1.68-.513,2.144,2.144,0,0,1,1.251.359,2,2,0,0,1,.75,1.007,10.74,10.74,0,0,1,.231,2.854v4.435a.6.6,0,0,0,.6.6h2.4a.6.6,0,0,0,.6-.6v-5.949a11.267,11.267,0,0,0-.2-2.424A3.97,3.97,0,0,0,193.055,171.171Z" transform="translate(-173.005 -162.305)" fill="#0cf"/>
  </g>
</svg>
