<svg xmlns="http://www.w3.org/2000/svg" width="28.019" height="28.074" viewBox="0 0 28.019 28.074">
  <g id="toast" transform="translate(-0.5)">
    <g id="Group_287" data-name="Group 287" transform="translate(1.573 1.244)">
      <g id="Group_286" data-name="Group 286">
        <path id="Path_276" data-name="Path 276" d="M45.832,46.462a.549.549,0,0,0-.708-.318l-2.361.9-2.932-7.648a5.373,5.373,0,0,0,.719-.473,4,4,0,0,0,1.21-4.372l-4.19-11.5a.548.548,0,0,0-.71-.325l-3.9,1.482-3.9-1.482a.548.548,0,0,0-.71.325l-4.19,11.5a4,4,0,0,0,1.21,4.372,6.189,6.189,0,0,0,.734.489l-2.845,7.671-2.464-.937a.548.548,0,1,0-.39,1.025L26.5,49.484a.548.548,0,1,0,.39-1.025l-2.6-.987,2.844-7.67a5.492,5.492,0,0,0,.958.127,3.834,3.834,0,0,0,3.661-2.509l1.208-3.314,1.208,3.314a3.834,3.834,0,0,0,3.661,2.509c.024,0,.848-.1.974-.142l2.931,7.646-2.7,1.026a.548.548,0,1,0,.39,1.025l6.084-2.315A.548.548,0,0,0,45.832,46.462ZM30.727,37.044A2.748,2.748,0,0,1,28.1,38.832a3.655,3.655,0,0,1-2-.744,2.811,2.811,0,0,1-.892-3.163l1.478-4.057a6.611,6.611,0,0,1,.83-.055,4.264,4.264,0,0,1,1.259.17,9.94,9.94,0,0,0,4.1.187Zm.546-6.84a8.122,8.122,0,0,1-2.18-.268,5.351,5.351,0,0,0-1.585-.22c-.141,0-.278,0-.409.012,0,0,2.1-5.78,2.1-5.78l5.532,2.1-1.409,3.867A10.857,10.857,0,0,1,31.273,30.2Zm4.675-4.283a.548.548,0,0,0-.32-.7l-1.121-.426,2.223-.846,3.2,8.786a5.208,5.208,0,0,0-1.786.217,8.235,8.235,0,0,1-2.153.268,8.468,8.468,0,0,1-2.51-.533Zm1.937,12.91A2.769,2.769,0,0,1,35.2,37.044L34.14,34.125a8.513,8.513,0,0,0,1.853.189A8.91,8.91,0,0,0,38.475,34a4.165,4.165,0,0,1,1.242-.17c.2,0,.413.011.626.032l.388,1.065a2.9,2.9,0,0,1-.892,3.163A4.4,4.4,0,0,1,37.885,38.831Z" transform="translate(-20.062 -22.69)" fill="#333"/>
      </g>
    </g>
    <g id="Group_289" data-name="Group 289" transform="translate(1.323 3.725)">
      <g id="Group_288" data-name="Group 288">
        <path id="Path_277" data-name="Path 277" d="M18.3,68.776l-2.042-.8a.552.552,0,0,0-.506.055.548.548,0,0,0,.106.966l2.042.8a.548.548,0,1,0,.4-1.021Z" transform="translate(-15.507 -67.939)" fill="#333"/>
      </g>
    </g>
    <g id="Group_291" data-name="Group 291" transform="translate(5.407 5.324)">
      <g id="Group_290" data-name="Group 290">
        <path id="Path_278" data-name="Path 278" d="M91.048,97.426a.546.546,0,0,0-.3-.291.552.552,0,0,0-.506.055.548.548,0,1,0,.808.235Z" transform="translate(-89.997 -97.098)" fill="#333"/>
      </g>
    </g>
    <g id="Group_293" data-name="Group 293" transform="translate(6.235 3.499)">
      <g id="Group_292" data-name="Group 292">
        <path id="Path_279" data-name="Path 279" d="M106.076,64.028a.549.549,0,0,0-.768-.107.549.549,0,1,0,.768.107Z" transform="translate(-105.091 -63.81)" fill="#333"/>
      </g>
    </g>
    <g id="Group_295" data-name="Group 295" transform="translate(3.589)">
      <g id="Group_294" data-name="Group 294">
        <path id="Path_280" data-name="Path 280" d="M59.148,1.967,57.825.218a.548.548,0,1,0-.875.661l1.323,1.75a.548.548,0,0,0,.875-.662Z" transform="translate(-56.84)" fill="#333"/>
      </g>
    </g>
    <g id="Group_297" data-name="Group 297" transform="translate(4.818 7.24)">
      <g id="Group_296" data-name="Group 296">
        <path id="Path_281" data-name="Path 281" d="M80.33,132.491a.547.547,0,0,0-.539-.452.524.524,0,0,0-.1.009.548.548,0,0,0,.1,1.088.533.533,0,0,0,.1-.009.548.548,0,0,0,.442-.636Z" transform="translate(-79.242 -132.039)" fill="#333"/>
      </g>
    </g>
    <g id="Group_299" data-name="Group 299" transform="translate(0.5 7.627)">
      <g id="Group_298" data-name="Group 298" transform="translate(0)">
        <path id="Path_282" data-name="Path 282" d="M3.746,139.551a.547.547,0,0,0-.539-.452.576.576,0,0,0-.1.009L.951,139.5a.548.548,0,0,0,.1,1.088.534.534,0,0,0,.1-.009l2.159-.387A.549.549,0,0,0,3.746,139.551Z" transform="translate(-0.5 -139.099)" fill="#333"/>
      </g>
    </g>
    <g id="Group_301" data-name="Group 301" transform="translate(24.384 3.624)">
      <g id="Group_300" data-name="Group 300">
        <path id="Path_283" data-name="Path 283" d="M439.14,66.428a.549.549,0,0,0-.723-.282l-2.008.88a.548.548,0,1,0,.44,1l2.009-.88a.549.549,0,0,0,.282-.722Z" transform="translate(-436.08 -66.1)" fill="#333"/>
      </g>
    </g>
    <g id="Group_303" data-name="Group 303" transform="translate(22.375 5.384)">
      <g id="Group_302" data-name="Group 302">
        <path id="Path_284" data-name="Path 284" d="M400.493,98.527a.548.548,0,1,0-.5.769.548.548,0,0,0,.5-.769Z" transform="translate(-399.442 -98.199)" fill="#333"/>
      </g>
    </g>
    <g id="Group_305" data-name="Group 305" transform="translate(23.077 7.26)">
      <g id="Group_304" data-name="Group 304">
        <path id="Path_285" data-name="Path 285" d="M413.234,132.626a.548.548,0,0,0-.362-.212.592.592,0,0,0-.076,0,.55.55,0,0,0-.542.473.548.548,0,0,0,.468.618.509.509,0,0,0,.076.005.55.55,0,0,0,.542-.473A.544.544,0,0,0,413.234,132.626Z" transform="translate(-412.248 -132.409)" fill="#333"/>
      </g>
    </g>
    <g id="Group_307" data-name="Group 307" transform="translate(25.249 7.561)">
      <g id="Group_306" data-name="Group 306">
        <path id="Path_286" data-name="Path 286" d="M455.03,138.417a.547.547,0,0,0-.362-.212l-2.172-.3a.6.6,0,0,0-.076,0,.548.548,0,0,0-.075,1.091l2.173.3a.5.5,0,0,0,.076.005.551.551,0,0,0,.543-.473A.545.545,0,0,0,455.03,138.417Z" transform="translate(-451.872 -137.899)" fill="#333"/>
      </g>
    </g>
    <g id="Group_309" data-name="Group 309" transform="translate(22.692 0.009)">
      <g id="Group_308" data-name="Group 308">
        <path id="Path_287" data-name="Path 287" d="M407.342.258a.544.544,0,0,0-.313-.1.55.55,0,0,0-.451.235l-1.252,1.8a.549.549,0,0,0,.137.763.54.54,0,0,0,.313.1.549.549,0,0,0,.451-.235l1.252-1.8A.549.549,0,0,0,407.342.258Z" transform="translate(-405.228 -0.16)" fill="#333"/>
      </g>
    </g>
    <g id="Group_311" data-name="Group 311" transform="translate(21.44 3.61)">
      <g id="Group_310" data-name="Group 310">
        <path id="Path_288" data-name="Path 288" d="M383.249,65.938a.548.548,0,1,0-.626.9.54.54,0,0,0,.313.1.548.548,0,0,0,.314-1Z" transform="translate(-382.388 -65.84)" fill="#333"/>
      </g>
    </g>
    <g id="Group_313" data-name="Group 313" transform="translate(7.902 13.516)">
      <g id="Group_312" data-name="Group 312">
        <path id="Path_289" data-name="Path 289" d="M136.435,246.66a.548.548,0,1,0,.161.388A.552.552,0,0,0,136.435,246.66Z" transform="translate(-135.499 -246.499)" fill="#333"/>
      </g>
    </g>
    <g id="Group_315" data-name="Group 315" transform="translate(9.849 12.31)">
      <g id="Group_314" data-name="Group 314">
        <path id="Path_290" data-name="Path 290" d="M171.935,224.66a.548.548,0,1,0,.161.388A.552.552,0,0,0,171.935,224.66Z" transform="translate(-170.999 -224.499)" fill="#333"/>
      </g>
    </g>
    <g id="Group_317" data-name="Group 317" transform="translate(8.752 10.391)">
      <g id="Group_316" data-name="Group 316">
        <path id="Path_291" data-name="Path 291" d="M151.935,189.66a.548.548,0,1,0,.161.388A.552.552,0,0,0,151.935,189.66Z" transform="translate(-150.999 -189.499)" fill="#333"/>
      </g>
    </g>
    <g id="Group_319" data-name="Group 319" transform="translate(9.849 14.64)">
      <g id="Group_318" data-name="Group 318">
        <path id="Path_292" data-name="Path 292" d="M171.935,267.159a.548.548,0,1,0,.161.388A.553.553,0,0,0,171.935,267.159Z" transform="translate(-170.999 -266.998)" fill="#333"/>
      </g>
    </g>
    <g id="Group_321" data-name="Group 321" transform="translate(17.059 13.68)">
      <g id="Group_320" data-name="Group 320">
        <path id="Path_293" data-name="Path 293" d="M303.434,249.66a.548.548,0,1,0,.161.388A.552.552,0,0,0,303.434,249.66Z" transform="translate(-302.498 -249.499)" fill="#333"/>
      </g>
    </g>
    <g id="Group_323" data-name="Group 323" transform="translate(20.459 13.571)">
      <g id="Group_322" data-name="Group 322">
        <path id="Path_294" data-name="Path 294" d="M365.434,247.66a.548.548,0,1,0,.161.388A.552.552,0,0,0,365.434,247.66Z" transform="translate(-364.498 -247.499)" fill="#333"/>
      </g>
    </g>
    <g id="Group_325" data-name="Group 325" transform="translate(19.485 15.257)">
      <g id="Group_324" data-name="Group 324">
        <path id="Path_295" data-name="Path 295" d="M347.684,278.409a.548.548,0,1,0,.161.388A.552.552,0,0,0,347.684,278.409Z" transform="translate(-346.748 -278.248)" fill="#333"/>
      </g>
    </g>
  </g>
</svg>
