<svg xmlns="http://www.w3.org/2000/svg" width="21.262" height="17.962" viewBox="0 0 21.262 17.962">
  <g id="twitter" transform="translate(0.635 -0.849)">
    <g id="Group_124" data-name="Group 124" transform="translate(-0.635 0.849)">
      <path id="Path_134" data-name="Path 134" d="M21.262,50.126a8.818,8.818,0,0,1-2.512.716,4.48,4.48,0,0,0,1.918-2.505,8.512,8.512,0,0,1-2.764,1.1A4.292,4.292,0,0,0,14.72,48a4.447,4.447,0,0,0-4.356,4.533,4.846,4.846,0,0,0,.1,1.034A12.189,12.189,0,0,1,1.48,48.826a4.7,4.7,0,0,0-.6,2.291A4.589,4.589,0,0,0,2.82,54.884,4.179,4.179,0,0,1,.85,54.325v.05a4.513,4.513,0,0,0,3.492,4.453,4.193,4.193,0,0,1-1.143.149,3.712,3.712,0,0,1-.825-.077,4.426,4.426,0,0,0,4.073,3.157,8.548,8.548,0,0,1-5.4,1.933A7.856,7.856,0,0,1,0,63.928a11.933,11.933,0,0,0,6.687,2.034c8.021,0,12.406-6.909,12.406-12.9,0-.2-.007-.394-.016-.586A8.9,8.9,0,0,0,21.262,50.126Z" transform="translate(0 -48)" fill="#0cf"/>
    </g>
  </g>
</svg>
