<svg xmlns="http://www.w3.org/2000/svg" width="55.877" height="48.891" viewBox="0 0 55.877 48.891">
  <g id="user" transform="translate(0 -0.008)">
    <path id="Path_106" data-name="Path 106" d="M96.973,23.289a11.641,11.641,0,1,1,11.641-11.64A11.654,11.654,0,0,1,96.973,23.289Zm0-19.789a8.148,8.148,0,1,0,8.149,8.149A8.158,8.158,0,0,0,96.973,3.5Zm0,0" transform="translate(-76.02)" fill="#fff"/>
    <path id="Path_107" data-name="Path 107" d="M40.16,276.961H1.746A1.747,1.747,0,0,1,0,275.215v-8.149a11.072,11.072,0,0,1,11.059-11.059H30.848a11.072,11.072,0,0,1,11.059,11.059v8.149A1.747,1.747,0,0,1,40.16,276.961ZM3.492,273.469H38.414v-6.4a7.575,7.575,0,0,0-7.566-7.566H11.059a7.575,7.575,0,0,0-7.566,7.566Zm0,0" transform="translate(0 -228.062)" fill="#fff"/>
    <path id="Path_108" data-name="Path 108" d="M320.2,190.168H300.414a1.746,1.746,0,1,1,0-3.492H320.2a1.746,1.746,0,0,1,0,3.492Zm0,0" transform="translate(-266.074 -166.297)" fill="#fff"/>
    <path id="Path_109" data-name="Path 109" d="M396.418,123.426a1.747,1.747,0,0,1-1.234-2.982l8.079-8.079-8.079-8.079a1.747,1.747,0,0,1,2.47-2.47l9.312,9.312a1.747,1.747,0,0,1,0,2.47l-9.312,9.312A1.735,1.735,0,0,1,396.418,123.426Zm0,0" transform="translate(-351.601 -90.242)" fill="#fff"/>
  </g>
</svg>
