<svg xmlns="http://www.w3.org/2000/svg" width="22.852" height="26" viewBox="0 0 22.852 26">
  <g id="user_1_" data-name="user(1)" transform="translate(-31)">
    <g id="Group_203" data-name="Group 203" transform="translate(35.57)">
      <g id="Group_202" data-name="Group 202">
        <path id="Path_175" data-name="Path 175" d="M127.855,0a6.855,6.855,0,1,0,6.855,6.855A6.863,6.863,0,0,0,127.855,0Z" transform="translate(-121)" fill="#ababab"/>
      </g>
    </g>
    <g id="Group_205" data-name="Group 205" transform="translate(31 15.234)">
      <g id="Group_204" data-name="Group 204">
        <path id="Path_176" data-name="Path 176" d="M50.955,302.955A9.773,9.773,0,0,0,43.949,300H40.9a9.773,9.773,0,0,0-7.006,2.955A9.991,9.991,0,0,0,31,310a.762.762,0,0,0,.762.762H53.09a.762.762,0,0,0,.762-.762A9.991,9.991,0,0,0,50.955,302.955Z" transform="translate(-31 -300)" fill="#ababab"/>
      </g>
    </g>
  </g>
</svg>
