<svg xmlns="http://www.w3.org/2000/svg" width="25.047" height="31.598" viewBox="0 0 25.047 31.598">
  <g id="achievement" transform="translate(-53.074 -0.001)">
    <g id="Group_539" data-name="Group 539" transform="translate(53.074 0.001)">
      <path id="Path_439" data-name="Path 439" d="M77.719,12.975a2.442,2.442,0,0,0-.281-3.035,1.526,1.526,0,0,1-.39-1.371A2.442,2.442,0,0,0,75.689,5.84,1.526,1.526,0,0,1,74.83,4.7a2.442,2.442,0,0,0-2.253-2.054A1.526,1.526,0,0,1,71.365,1.9,2.442,2.442,0,0,0,68.523.8a1.526,1.526,0,0,1-1.4-.262,2.442,2.442,0,0,0-3.048,0,1.525,1.525,0,0,1-1.4.262,2.442,2.442,0,0,0-2.842,1.1,1.525,1.525,0,0,1-1.212.751A2.442,2.442,0,0,0,56.365,4.7a1.525,1.525,0,0,1-.859,1.138,2.442,2.442,0,0,0-1.359,2.729,1.526,1.526,0,0,1-.39,1.371,2.442,2.442,0,0,0-.281,3.035,1.525,1.525,0,0,1,.132,1.42,2.442,2.442,0,0,0,.834,2.932,1.525,1.525,0,0,1,.635,1.276,2.442,2.442,0,0,0,1.837,2.432,1.525,1.525,0,0,1,.815.532l-2.55,6.157A1.1,1.1,0,0,0,56.522,29.2l2.792-.857a.178.178,0,0,1,.21.087l1.368,2.58a1.1,1.1,0,0,0,1.995-.095L65.545,24.5q.052,0,.1,0l2.658,6.417a1.1,1.1,0,0,0,1.995.095l1.368-2.58a.178.178,0,0,1,.21-.087l2.792.857a1.1,1.1,0,0,0,1.344-1.478l-2.55-6.157a1.525,1.525,0,0,1,.815-.532A2.442,2.442,0,0,0,76.118,18.6a1.525,1.525,0,0,1,.636-1.276,2.442,2.442,0,0,0,.834-2.932,1.527,1.527,0,0,1,.132-1.42ZM62.032,30.563a.178.178,0,0,1-.322.015L60.342,28a1.105,1.105,0,0,0-1.3-.538l-2.792.857a.178.178,0,0,1-.217-.238L58.3,22.616a2.441,2.441,0,0,0,2.262.984,1.526,1.526,0,0,1,1.329.515,2.433,2.433,0,0,0,2.5.756Zm12.912-2.246-2.792-.857a1.105,1.105,0,0,0-1.3.538l-1.368,2.58a.178.178,0,0,1-.322-.015l-2.357-5.691a2.441,2.441,0,0,0,2.5-.757,1.525,1.525,0,0,1,1.329-.515,2.439,2.439,0,0,0,2.262-.984l2.263,5.462a.178.178,0,0,1-.217.239Zm2-15.848a2.451,2.451,0,0,0-.211,2.281,1.52,1.52,0,0,1-.519,1.825,2.451,2.451,0,0,0-1.021,2.05,1.52,1.52,0,0,1-1.144,1.514,2.45,2.45,0,0,0-1.513,1.156l0,0a2.45,2.45,0,0,0-.177.382,1.52,1.52,0,0,1-1.613,1,2.45,2.45,0,0,0-2.136.827,1.52,1.52,0,0,1-1.865.349,2.449,2.449,0,0,0-.674-.237h-.006a2.448,2.448,0,0,0-.933,0h0a2.453,2.453,0,0,0-.675.238,1.52,1.52,0,0,1-1.865-.349,2.451,2.451,0,0,0-2.136-.827,1.52,1.52,0,0,1-1.613-1,2.455,2.455,0,0,0-.177-.382l0-.006a2.45,2.45,0,0,0-1.513-1.155A1.52,1.52,0,0,1,56,18.625a2.451,2.451,0,0,0-1.021-2.05,1.52,1.52,0,0,1-.519-1.825,2.451,2.451,0,0,0-.211-2.281,1.52,1.52,0,0,1,.175-1.889,2.451,2.451,0,0,0,.627-2.2,1.52,1.52,0,0,1,.846-1.7,2.451,2.451,0,0,0,1.38-1.828,1.52,1.52,0,0,1,1.4-1.278,2.45,2.45,0,0,0,1.947-1.206A1.52,1.52,0,0,1,62.4,1.681a2.451,2.451,0,0,0,2.251-.421,1.52,1.52,0,0,1,1.9,0,2.45,2.45,0,0,0,2.251.421,1.52,1.52,0,0,1,1.769.685,2.451,2.451,0,0,0,1.947,1.206,1.52,1.52,0,0,1,1.4,1.278A2.451,2.451,0,0,0,75.3,6.678a1.52,1.52,0,0,1,.846,1.7,2.451,2.451,0,0,0,.627,2.2,1.521,1.521,0,0,1,.175,1.889Z" transform="translate(-53.074 -0.001)" fill="#333"/>
      <path id="Path_440" data-name="Path 440" d="M107.773,61.143a.463.463,0,0,0,.516-.4,8.314,8.314,0,0,1,16.5,0,.463.463,0,0,0,.919-.113,9.24,9.24,0,0,0-18.339,0,.463.463,0,0,0,.4.516Z" transform="translate(-104.016 -49.285)" fill="#333"/>
      <path id="Path_441" data-name="Path 441" d="M125.3,212.208a.463.463,0,0,0-.516.4,8.314,8.314,0,0,1-16.5,0,.463.463,0,1,0-.919.113,9.24,9.24,0,0,0,18.339,0A.463.463,0,0,0,125.3,212.208Z" transform="translate(-104.014 -199.108)" fill="#333"/>
      <path id="Path_442" data-name="Path 442" d="M162.49,99.089a.887.887,0,0,0-.82-.618l-3.629-.13L156.8,94.93a.9.9,0,0,0-1.683,0l-1.245,3.411-3.629.13a.9.9,0,0,0-.52,1.6l2.859,2.238-1,3.492a.9.9,0,0,0,1.362.989l3.012-2.028,3.012,2.028a.9.9,0,0,0,1.362-.989l-1-3.492,2.859-2.238A.887.887,0,0,0,162.49,99.089Zm-3.745,2.5a.892.892,0,0,0-.309.952l.981,3.432-2.961-1.993a.892.892,0,0,0-1,0l-2.961,1.993.981-3.432a.892.892,0,0,0-.309-.952l-2.811-2.2,3.567-.128a.892.892,0,0,0,.809-.588l1.224-3.353,1.224,3.353a.892.892,0,0,0,.809.588l3.567.128Z" transform="translate(-143.431 -88.519)" fill="#333"/>
    </g>
  </g>
</svg>
