<svg xmlns="http://www.w3.org/2000/svg" width="23.96" height="26.67" viewBox="0 0 23.96 26.67">
  <g id="anchor" transform="translate(-11.541 -4.733)">
    <path id="Path_317" data-name="Path 317" d="M35.447,21.656l-1.8-3.081a.4.4,0,0,0-.692,0l-1.806,3.081a.389.389,0,0,0,0,.393.4.4,0,0,0,.346.2h.658c-.328,1.765-1.971,3.27-4.489,4.079a1.666,1.666,0,0,1-2.051-.975,8.568,8.568,0,0,1-.662-3.144V15.2h5.138a.4.4,0,0,0,.283-.115.391.391,0,0,0,.117-.279V12.781a.4.4,0,0,0-.4-.394H24.948V9.12a2.4,2.4,0,0,0,.91-2.707,2.466,2.466,0,0,0-4.676,0,2.4,2.4,0,0,0,.91,2.707v3.268H16.955a.4.4,0,0,0-.4.394v2.025a.4.4,0,0,0,.4.394h5.138v7.005a8.566,8.566,0,0,1-.662,3.144,1.668,1.668,0,0,1-2.05.975c-2.518-.809-4.161-2.315-4.489-4.079h.658a.4.4,0,0,0,.346-.2.389.389,0,0,0,0-.394L14.09,18.575a.4.4,0,0,0-.692,0l-1.8,3.081a.389.389,0,0,0,0,.394.4.4,0,0,0,.346.2H12.7c.4,3.688,4.109,6.91,8.82,7.617l1.745,1.447a.4.4,0,0,0,.515,0l1.745-1.447c4.711-.707,8.417-3.929,8.82-7.617H35.1a.4.4,0,0,0,.346-.2A.389.389,0,0,0,35.447,21.656ZM23.52,5.524a1.632,1.632,0,1,1-1.656,1.631A1.644,1.644,0,0,1,23.52,5.524Zm-.628,3.967a2.409,2.409,0,0,0,1.256,0v2.9H22.892Zm-5.538,3.684H29.686v1.238H17.355Zm16.618,8.283a.4.4,0,0,0-.4.375c-.167,3.5-3.726,6.625-8.278,7.266a.4.4,0,0,0-.2.088L23.52,30.494l-1.574-1.305a.4.4,0,0,0-.2-.088c-4.552-.641-8.111-3.765-8.278-7.266a.4.4,0,0,0-.4-.376h-.436l1.112-1.9,1.114,1.9h-.417a.4.4,0,0,0-.292.125.39.39,0,0,0-.107.295c.15,2.277,2.054,4.22,5.091,5.2a2.47,2.47,0,0,0,3.042-1.437,9.328,9.328,0,0,0,.717-3.431V15.2h1.256v7.005a9.328,9.328,0,0,0,.717,3.431,2.469,2.469,0,0,0,3.043,1.437c3.037-.976,4.94-2.919,5.091-5.2a.39.39,0,0,0-.107-.295.4.4,0,0,0-.292-.125h-.417l1.114-1.9,1.112,1.9Z" transform="translate(0)" fill="#333"/>
    <path id="Path_318" data-name="Path 318" d="M64.861,97.657a.349.349,0,0,0-.651.255,3.344,3.344,0,0,0,.577.959.35.35,0,0,0,.531-.455A2.644,2.644,0,0,1,64.861,97.657Z" transform="translate(-40.531 -71.676)" fill="#333"/>
    <path id="Path_319" data-name="Path 319" d="M60.2,12.647a.949.949,0,1,0-.949-.949A.949.949,0,0,0,60.2,12.647Zm0-1.2a.25.25,0,1,1-.25.25A.25.25,0,0,1,60.2,11.449Z" transform="translate(-36.678 -4.816)" fill="#333"/>
  </g>
</svg>
