<svg xmlns="http://www.w3.org/2000/svg" width="27.391" height="26.869" viewBox="0 0 27.391 26.869">
  <g id="birthday-cake" transform="translate(0 -4.88)">
    <path id="XMLID_62_" d="M106.325,9.535a1.631,1.631,0,0,0,1.63-1.631,8.716,8.716,0,0,0-1.207-2.781.489.489,0,0,0-.846,0A8.718,8.718,0,0,0,104.695,7.9,1.631,1.631,0,0,0,106.325,9.535Z" transform="translate(-99.094)" fill="#ababab"/>
    <path id="XMLID_123_" d="M227.156,9.535a1.631,1.631,0,0,0,1.63-1.631,8.716,8.716,0,0,0-1.207-2.781.489.489,0,0,0-.846,0A8.718,8.718,0,0,0,225.526,7.9,1.631,1.631,0,0,0,227.156,9.535Z" transform="translate(-213.461)" fill="#ababab"/>
    <path id="XMLID_122_" d="M347.986,9.535a1.631,1.631,0,0,0,1.63-1.631,8.715,8.715,0,0,0-1.207-2.781.489.489,0,0,0-.846,0A8.717,8.717,0,0,0,346.356,7.9,1.631,1.631,0,0,0,347.986,9.535Z" transform="translate(-327.826)" fill="#ababab"/>
    <path id="XMLID_121_" d="M105.616,116.951a.722.722,0,0,0-.722.722V123.5h3.239v-5.827a.722.722,0,0,0-.722-.722h-1.8Z" transform="translate(-99.282 -106.076)" fill="#ababab"/>
    <path id="XMLID_120_" d="M226.446,116.951a.722.722,0,0,0-.722.722V123.5h3.239v-5.827a.722.722,0,0,0-.722-.722h-1.8Z" transform="translate(-213.648 -106.076)" fill="#ababab"/>
    <path id="XMLID_61_" d="M347.277,116.951a.722.722,0,0,0-.722.722V123.5h3.239v-5.827a.722.722,0,0,0-.722-.722h-1.8Z" transform="translate(-328.015 -106.076)" fill="#ababab"/>
    <path id="XMLID_52_" d="M44.683,278.831a1.4,1.4,0,0,0,.4-.058l2.026-.6a7.246,7.246,0,0,1,4.086,0l1.6.473a7.247,7.247,0,0,0,4.086,0l1.6-.473a7.246,7.246,0,0,1,4.086,0l2.026.6a1.4,1.4,0,0,0,.4.058,1.149,1.149,0,0,0,1.219-1.056v-2.069a1.35,1.35,0,0,0-1.436-1.242H44.9a1.35,1.35,0,0,0-1.436,1.242v2.069A1.149,1.149,0,0,0,44.683,278.831Z" transform="translate(-41.139 -255.162)" fill="#ababab"/>
    <path id="XMLID_51_" d="M26.589,374.132H24.4v-4.921a2.99,2.99,0,0,1-1.4-.072l-2.026-.6a5.64,5.64,0,0,0-3.175,0l-1.6.473a8.85,8.85,0,0,1-5,0l-1.6-.473a5.64,5.64,0,0,0-3.175,0l-2.026.6a2.989,2.989,0,0,1-1.4.072v4.921H.8a.8.8,0,1,0,0,1.6H26.589a.8.8,0,0,0,0-1.605Z" transform="translate(0 -343.988)" fill="#ababab"/>
  </g>
</svg>
