<svg xmlns="http://www.w3.org/2000/svg" width="12.835" height="22.003" viewBox="0 0 12.835 22.003">
  <g id="bookmark" transform="translate(-106.668)">
    <g id="Group_282" data-name="Group 282" transform="translate(106.668)">
      <path id="Path_264" data-name="Path 264" d="M117.669,0H108.5a1.836,1.836,0,0,0-1.834,1.834V21.544a.458.458,0,0,0,.738.363l5.68-4.369,5.68,4.369a.458.458,0,0,0,.738-.364V1.834A1.836,1.836,0,0,0,117.669,0Zm.917,20.613L113.365,16.6a.459.459,0,0,0-.559,0l-5.221,4.016V1.834A.918.918,0,0,1,108.5.917h9.168a.918.918,0,0,1,.917.917V20.613Z" transform="translate(-106.668)" fill="#ed1e7f"/>
    </g>
  </g>
</svg>
