<svg xmlns="http://www.w3.org/2000/svg" width="21.344" height="21.344" viewBox="0 0 21.344 21.344">
  <g id="chat" transform="translate(0 -0.002)">
    <g id="Group_326" data-name="Group 326" transform="translate(0 0.002)">
      <path id="Path_315" data-name="Path 315" d="M19.057,0H2.287A2.287,2.287,0,0,0,0,2.289v12.2a2.287,2.287,0,0,0,2.287,2.287H4.993L4.578,20.5a.762.762,0,0,0,1.268.65l4.865-4.378h8.346a2.287,2.287,0,0,0,2.287-2.287V2.289A2.287,2.287,0,0,0,19.057,0Zm.762,14.483a.762.762,0,0,1-.762.762H10.418a.762.762,0,0,0-.51.2L6.315,18.678,6.6,16.095a.762.762,0,0,0-.758-.847H2.287a.762.762,0,0,1-.762-.762V2.289a.762.762,0,0,1,.762-.762h16.77a.762.762,0,0,1,.762.762v12.2Z" transform="translate(0 -0.002)" fill="#333"/>
    </g>
  </g>
</svg>
