<svg id="customer_recieve_video" data-name="customer recieve video" xmlns="http://www.w3.org/2000/svg" width="38.671" height="44" viewBox="0 0 38.671 44">
  <path id="Path_425" data-name="Path 425" d="M6.445,44H32.226a3.872,3.872,0,0,0,3.867-3.867V25.781h1.289a1.289,1.289,0,0,0,1.289-1.289V14.18A3.872,3.872,0,0,0,34.8,10.312H27.36l1.3-.882A5.157,5.157,0,1,0,20.8,3.808l-1.467,5.43-1.467-5.43A5.157,5.157,0,1,0,10.006,9.43l1.3.882H3.867A3.872,3.872,0,0,0,0,14.18V24.492a1.289,1.289,0,0,0,1.289,1.289H2.578V40.132A3.872,3.872,0,0,0,6.445,44ZM5.156,40.132V25.781H15.469v15.64H6.445A1.291,1.291,0,0,1,5.156,40.132ZM18.047,12.89h2.578V41.421H18.047ZM33.515,40.132a1.291,1.291,0,0,1-1.289,1.289H23.2V25.781H33.515ZM36.093,14.18V23.2H23.2V14.714l5.534,5.533a1.289,1.289,0,1,0,1.823-1.823L25.026,12.89H34.8A1.291,1.291,0,0,1,36.093,14.18Zm-12.8-9.7a2.579,2.579,0,1,1,3.93,2.813l-4.466,3.018h-1.04ZM11.45,7.295a2.579,2.579,0,1,1,3.93-2.813l1.576,5.831h-1.04ZM2.578,14.18A1.291,1.291,0,0,1,3.867,12.89h9.778L8.112,18.424a1.289,1.289,0,1,0,1.823,1.823l5.534-5.533V23.2H2.578Zm0,0" fill="#fbfbfb"/>
</svg>
