<svg xmlns="http://www.w3.org/2000/svg" width="29.061" height="29.016" viewBox="0 0 29.061 29.016">
  <g id="electric-guitar" transform="translate(-0.001 -0.24)">
    <path id="Path_400" data-name="Path 400" d="M53.8,208.806a.648.648,0,0,0-.916.916l3.544,3.544a.648.648,0,1,0,.916-.916Z" transform="translate(-47.818 -189.086)" fill="#333"/>
    <path id="Path_401" data-name="Path 401" d="M93.006,189.327a.648.648,0,1,0-.916.916l1.718,1.718a.648.648,0,1,0,.916-.916Z" transform="translate(-83.391 -171.41)" fill="#333"/>
    <path id="Path_402" data-name="Path 402" d="M28.943,2.3a2.774,2.774,0,0,0-.49-1.222,1.182,1.182,0,0,0-.83-.369,1.023,1.023,0,0,0-.438.1c-.145.068-.3.144-.465.226L26.114.43a.648.648,0,0,0-.916.916l.319.319c-.283.152-.568.309-.844.462l-.359-.359a.648.648,0,0,0-.916.916l.1.1c-.554.315-.943.542-.986.567a.65.65,0,0,0-.132.1A1.161,1.161,0,0,0,22.094,4.6l-7.917,7.917-.16-.076a2.976,2.976,0,0,1-.918-.581c-.249-.249.392-1.287.737-1.845.6-.973,1.222-1.98.507-2.695a1.044,1.044,0,0,0-.763-.3,5.343,5.343,0,0,0-2.724,1.485,10.11,10.11,0,0,0-2.031,2.871A8.211,8.211,0,0,1,7.2,13.717a6.472,6.472,0,0,1-2.4,1.314,7.945,7.945,0,0,0-3.039,1.727c-4.006,4.006-.107,7.905,1.361,9.373s3.409,3.125,5.621,3.125a5.3,5.3,0,0,0,3.752-1.765,7.946,7.946,0,0,0,1.727-3.039,6.471,6.471,0,0,1,1.314-2.4,5.138,5.138,0,0,1,1.689-1.126,6.422,6.422,0,0,0,2.045-1.375c1.932-1.932,1.8-2.876,1.346-3.329a1.3,1.3,0,0,0-.961-.366,5.039,5.039,0,0,0-1.453.324,5.352,5.352,0,0,1-1.488.336.861.861,0,0,1-.659-.237,1.593,1.593,0,0,1-.239-.289l8.832-8.832a1.193,1.193,0,0,0,.335.048,1.145,1.145,0,0,0,.815-.335l3.021-3.021C29.1,3.566,29.134,3.133,28.943,2.3ZM22.9,5.627l.719.719-7.8,7.8a2.084,2.084,0,0,0-.557-.88h0ZM16.71,17.811h0a6.341,6.341,0,0,0,1.885-.4,6.293,6.293,0,0,1,.924-.251,7.013,7.013,0,0,1-1.169,1.472,5.111,5.111,0,0,1-1.679,1.118,6.452,6.452,0,0,0-2.055,1.383,7.557,7.557,0,0,0-1.61,2.86,6.834,6.834,0,0,1-1.432,2.582,4.008,4.008,0,0,1-2.836,1.385c-1.737,0-3.427-1.467-4.7-2.745a9.9,9.9,0,0,1-2.58-3.661,3.682,3.682,0,0,1,1.219-3.879,6.835,6.835,0,0,1,2.582-1.432,7.556,7.556,0,0,0,2.861-1.61,9.417,9.417,0,0,0,1.861-2.655,8.9,8.9,0,0,1,1.8-2.549,5.619,5.619,0,0,1,1.49-1.016c-.132.281-.368.664-.53.925-.643,1.042-1.524,2.468-.55,3.442a4.169,4.169,0,0,0,1.282.836,2.9,2.9,0,0,1,.89.56c.3.3.273.418.177.805a2.03,2.03,0,0,0,.6,2.212A2.144,2.144,0,0,0,16.71,17.811Zm8.261-11.95L23.43,4.32c.732-.423,2.815-1.614,4.107-2.241a5.236,5.236,0,0,1,.226.99Z" transform="translate(0 0)" fill="#333"/>
  </g>
</svg>
