<svg id="google-plus_1_" data-name="google-plus(1)" xmlns="http://www.w3.org/2000/svg" width="19.024" height="19.849" viewBox="0 0 19.024 19.849">
  <path id="Path_138" data-name="Path 138" d="M20.73,10.388c-.39-.285-.98-.714-.988-.878,0-.234.534-.764.964-1.189.989-.982,2.345-2.326,2.345-4.185A3.668,3.668,0,0,0,21.085.827h1.966a.414.414,0,0,0,0-.827H17.675a6.007,6.007,0,0,0-1.068.1c1.647-.328,3.376,1.141,3.88,3.336h0C21,5.657,20.065,7.774,18.4,8.163a2.364,2.364,0,0,1-.53.06c-1.5,0-2.963-1.406-3.423-3.391-.507-2.2.414-4.294,2.045-4.709A4.909,4.909,0,0,0,12.3,4.962c0,2.846,2.662,3.87,4.579,4.088a2.653,2.653,0,0,0,.04,2.556c-2.518.178-6.272,1.267-6.272,4.521a3.167,3.167,0,0,0,.925,2.346c1.288,1.27,3.548,1.376,4.728,1.376h.55c.07,0,7.03-.123,7.03-4.549C23.878,12.681,21.984,11.3,20.73,10.388Zm-3.055,8.634c-2.1,0-4.549-.866-4.549-3.308s2.834-4.135,5.376-4.135a.414.414,0,0,1,.211.058c.36.213,3.511,2.14,3.511,4.077C22.224,17.691,19.872,19.022,17.675,19.022Z" transform="translate(-10.643)" fill="#ed1e7f"/>
  <path id="Path_139" data-name="Path 139" d="M416.437,155.122a.414.414,0,0,1-.414-.414v-4.962a.414.414,0,0,1,.827,0v4.962A.414.414,0,0,1,416.437,155.122Z" transform="translate(-400.307 -143.544)" fill="#ed1e7f"/>
  <path id="Path_140" data-name="Path 140" d="M357.4,214.16h-4.962a.414.414,0,1,1,0-.827H357.4a.414.414,0,1,1,0,.827Z" transform="translate(-338.788 -205.062)" fill="#ed1e7f"/>
</svg>
