<svg xmlns="http://www.w3.org/2000/svg" width="33.223" height="28.015" viewBox="0 0 33.223 28.015">
  <g id="new_born" data-name="new born" transform="translate(0 -40.129)">
    <g id="Group_532" data-name="Group 532" transform="translate(1.713 40.129)">
      <g id="Group_531" data-name="Group 531" transform="translate(0 0)">
        <path id="Path_435" data-name="Path 435" d="M40.922,51.26H39.8a.878.878,0,0,1-.4-.1L36.208,40.59a.649.649,0,0,0-.989-.348,5.091,5.091,0,0,0-1.431,1.631,4.014,4.014,0,0,0-.467,1.446.649.649,0,0,0-.317.175,4.789,4.789,0,0,0-1.143,2.21l-4.255-3.091a.649.649,0,0,0-1,.322,5.094,5.094,0,0,0-.152,2.165,4.015,4.015,0,0,0,.5,1.433.649.649,0,0,0-.146.331,4.791,4.791,0,0,0,.337,2.245,4.44,4.44,0,0,0,.98,1.469.649.649,0,0,0-.039.415,6.379,6.379,0,0,0,1.394,2.5,7.611,7.611,0,0,0,5.972,2.413h.077a.649.649,0,0,0,0-1.3h-.073c-3.4,0-4.965-1.687-5.641-2.849l.886.206q.2.053.42.1A.649.649,0,0,0,31.4,50.8l-.39-.091a3.665,3.665,0,0,1-2.638-2.043,3.47,3.47,0,0,1-.223-.753l.86.332q.18.077.377.145a.649.649,0,0,0,.446-1.218l-.328-.127a2.714,2.714,0,0,1-1.758-2.1,3.462,3.462,0,0,1-.044-.655L38.454,52.1h0l.058.042a2.169,2.169,0,0,0,1.283.417h1.127a.649.649,0,0,0,0-1.3Zm-7.861-4.684a3.339,3.339,0,0,1,.373-1.438l.483.783q.1.17.213.344a.649.649,0,0,0,1.093-.7l-.185-.3a2.714,2.714,0,0,1-.127-2.737,3.461,3.461,0,0,1,.361-.549l2.39,7.938Z" transform="translate(-26.404 -40.129)" fill="#333"/>
      </g>
    </g>
    <g id="Group_534" data-name="Group 534" transform="translate(0 60.189)">
      <g id="Group_533" data-name="Group 533">
        <path id="Path_436" data-name="Path 436" d="M1.109,349.472a.65.65,0,0,0-.917,0,.649.649,0,0,0,.459,1.108.649.649,0,0,0,.459-1.108Z" transform="translate(-0.001 -349.283)" fill="#333"/>
      </g>
    </g>
    <g id="Group_536" data-name="Group 536" transform="translate(29.306 58.29)">
      <g id="Group_535" data-name="Group 535" transform="translate(0 0)">
        <path id="Path_437" data-name="Path 437" d="M452.739,320.213a.649.649,0,1,0,.19.458A.651.651,0,0,0,452.739,320.213Z" transform="translate(-451.631 -320.023)" fill="#333"/>
      </g>
    </g>
    <g id="Group_538" data-name="Group 538" transform="translate(0 49.248)">
      <g id="Group_537" data-name="Group 537" transform="translate(0 0)">
        <path id="Path_438" data-name="Path 438" d="M31.585,192.326a.649.649,0,1,0-1.176.548l1.4,3.012a.6.6,0,0,1-.118.671,5.869,5.869,0,0,1-8.291,0,.6.6,0,0,1-.118-.671l4.264-9.15.813,1.744a.649.649,0,1,0,1.176-.548l-1.116-2.4,4.28-.853a.649.649,0,0,0,0-1.273L23.622,181.6a3.372,3.372,0,0,0-5.446,3.718,7.3,7.3,0,0,0-4.43,2.212,6,6,0,0,1-4.328,1.858H7.354a6.065,6.065,0,0,1-6.022-5.407h.381a.649.649,0,1,0,0-1.3H.649a.648.648,0,0,0-.649.647,7.362,7.362,0,0,0,7.354,7.356h1.3l-.928.926H3.007a.664.664,0,0,0-.67.606.649.649,0,0,0,.647.692H7.993a.649.649,0,0,0,.458-.19l2.133-2.13a7.3,7.3,0,0,0,4.079-2.142,6.034,6.034,0,0,1,4.35-1.881h.046a3.365,3.365,0,0,0,4.561-.076l2.875-.573-4.389,9.419a1.9,1.9,0,0,0,.377,2.137,7.168,7.168,0,0,0,10.126,0,1.9,1.9,0,0,0,.377-2.137Zm-10.285-6.2a2.076,2.076,0,1,1,2.076-2.076A2.079,2.079,0,0,1,21.3,186.123Zm3.24-1.138a3.357,3.357,0,0,0,0-1.877l4.712.939Z" transform="translate(0 -180.672)" fill="#333"/>
      </g>
    </g>
  </g>
</svg>
