<svg xmlns="http://www.w3.org/2000/svg" width="27.679" height="28" viewBox="0 0 27.679 28">
  <g id="new_year" data-name="new year" transform="translate(-2.934)">
    <path id="Path_426" data-name="Path 426" d="M30.613,11.512a.41.41,0,1,1-.82,0V9.455H3.754V20.79a.41.41,0,1,1-.82,0V5.731a3.107,3.107,0,0,1,3.1-3.1H6.82V1.445a1.445,1.445,0,0,1,2.89,0V2.635h1.364V1.445a1.446,1.446,0,0,1,2.891,0V2.635h1.363V1.445a1.446,1.446,0,0,1,2.891,0V2.635h1.364V1.445a1.445,1.445,0,0,1,2.89,0V2.635h1.364V1.445a1.446,1.446,0,0,1,2.891,0V2.635h.789a3.1,3.1,0,0,1,3.1,3.1q0,2.89,0,5.781Zm-6.587,8.359a.409.409,0,1,1,.817.012l-.011.642a.409.409,0,0,1-.817-.012Zm-.09,5.365a.409.409,0,0,1,.817.012l-.011.643a.409.409,0,1,1-.817-.014Zm-2.305-1.084a.409.409,0,0,1-.24-.783L22,23.182a.409.409,0,1,1,.24.781Zm5.133-1.573a.409.409,0,1,1-.24-.781l.612-.189a.409.409,0,0,1,.24.783ZM22.9,25.526a.408.408,0,1,1-.653-.49l.386-.513a.408.408,0,1,1,.653.49Zm3.227-4.288a.409.409,0,1,1-.654-.49l.386-.513a.409.409,0,1,1,.654.49Zm-4.722,1.054a.41.41,0,1,1,.267-.775l.606.208a.41.41,0,0,1-.265.775Zm5.077,1.744a.41.41,0,1,1,.265-.775l.608.208a.41.41,0,1,1-.267.775Zm-4.162-3.381a.409.409,0,1,1,.67-.468l.369.525a.409.409,0,1,1-.67.468Zm3.082,4.393a.409.409,0,0,1,.67-.468l.369.525a.409.409,0,1,1-.67.468ZM8.428,11.455a.409.409,0,0,1,.817.014l-.009.642a.409.409,0,0,1-.819-.012ZM8.34,16.821a.409.409,0,1,1,.817.012l-.011.642a.409.409,0,1,1-.817-.012ZM6.034,15.736a.409.409,0,1,1-.24-.781l.614-.188a.409.409,0,0,1,.24.781Zm5.131-1.572a.409.409,0,0,1-.24-.783l.614-.188a.409.409,0,1,1,.24.781ZM7.307,17.111a.409.409,0,0,1-.654-.49l.388-.513a.408.408,0,1,1,.653.49Zm3.228-4.288a.409.409,0,0,1-.654-.491l.386-.513a.409.409,0,0,1,.654.491ZM5.813,13.878a.41.41,0,1,1,.265-.775l.608.208a.41.41,0,0,1-.267.775Zm5.075,1.744a.411.411,0,0,1,.267-.777l.606.209a.41.41,0,1,1-.265.775ZM6.727,12.239a.408.408,0,1,1,.67-.467l.369.525a.409.409,0,0,1-.67.468Zm3.08,4.395a.409.409,0,0,1,.67-.468l.369.526a.409.409,0,0,1-.67.468Zm-2.167-14H8.89V1.445A.617.617,0,0,0,8.705,1a.624.624,0,0,0-1.065.44V2.635Zm4.254,0h1.25V1.445a.625.625,0,0,0-1.249,0Zm4.255,0H17.4V1.445a.625.625,0,0,0-1.249,0V2.635Zm4.254,0h1.25V1.445a.625.625,0,0,0-1.25,0Zm4.254,0h1.251V1.445a.626.626,0,0,0-1.251,0ZM8.265,5.271a.411.411,0,0,1,0,.822A1.448,1.448,0,0,1,6.82,4.646V3.455H6.03A2.287,2.287,0,0,0,3.754,5.731v2.9H29.793v-2.9a2.284,2.284,0,0,0-2.276-2.276h-2.86V4.646a.627.627,0,0,0,.626.625.411.411,0,0,1,0,.822,1.45,1.45,0,0,1-1.446-1.446V3.455H20.4V4.646a.627.627,0,0,0,.625.625.411.411,0,0,1,0,.822,1.45,1.45,0,0,1-1.445-1.446V3.455H16.15V4.646a.625.625,0,0,0,.625.625.411.411,0,0,1,0,.822,1.45,1.45,0,0,1-1.446-1.446V3.455H11.894V4.646a.627.627,0,0,0,.625.625.411.411,0,0,1,0,.822,1.45,1.45,0,0,1-1.445-1.446V3.455H7.64V4.646a.625.625,0,0,0,.625.625ZM25.476,11.63l.464.755.867.209a.621.621,0,0,1,.26.133.642.642,0,0,1,.191.288.632.632,0,0,1,.012.34.614.614,0,0,1-.133.26l-.577.677.068.893a.631.631,0,0,1-.583.676.622.622,0,0,1-.316-.059l-.8-.329-.826.341a.629.629,0,0,1-.822-.344.61.61,0,0,1-.047-.285l.07-.893-.578-.677a.634.634,0,0,1,.07-.888.7.7,0,0,1,.3-.143l.826-.2.468-.761a.63.63,0,0,1,.544-.3.623.623,0,0,1,.536.305Zm-.147,1.329-.4-.645-.388.631a.421.421,0,0,1-.26.2l-.735.178.476.556a.406.406,0,0,1,.112.313l-.059.755.7-.288a.4.4,0,0,1,.31,0l.7.288L25.73,14.2a.41.41,0,0,1,.1-.3l.49-.574-.7-.171a.41.41,0,0,1-.284-.189ZM9.158,21.08l.464.753.865.209a.622.622,0,0,1,.451.422.615.615,0,0,1,.012.339.606.606,0,0,1-.133.26l-.577.677.07.893a.625.625,0,0,1-.279.569.621.621,0,0,1-.622.046l-.794-.327-.826.341a.623.623,0,0,1-.609-.073.633.633,0,0,1-.214-.273.623.623,0,0,1-.046-.284l.07-.893-.577-.677a.618.618,0,0,1-.141-.285.64.64,0,0,1,.211-.6.693.693,0,0,1,.3-.141l.826-.2.468-.763a.645.645,0,0,1,.217-.212.637.637,0,0,1,.653.006.642.642,0,0,1,.212.215Zm-.147,1.325-.4-.643-.394.639a.426.426,0,0,1-.256.188l-.733.177.474.558a.4.4,0,0,1,.112.313l-.057.753.7-.288a.416.416,0,0,1,.312,0l.7.288-.057-.738a.419.419,0,0,1,.1-.313L10,22.765l-.7-.169A.406.406,0,0,1,9.011,22.405Zm8.483-7.672.977,1.589,1.82.439a.831.831,0,0,1,.347.177.834.834,0,0,1,.091,1.177l-1.214,1.425.144,1.874a.819.819,0,0,1-.084.431.835.835,0,0,1-.285.324.851.851,0,0,1-.4.141.839.839,0,0,1-.422-.081l-1.69-.7-1.735.718a.833.833,0,0,1-.377.06.841.841,0,0,1-.715-.519.818.818,0,0,1-.059-.375l.144-1.874L12.82,18.114a.836.836,0,0,1-.186-.377.865.865,0,0,1,.033-.44.848.848,0,0,1,.246-.361.918.918,0,0,1,.392-.186l1.773-.428.983-1.6a.826.826,0,0,1,.287-.281.844.844,0,0,1,.865.008.836.836,0,0,1,.281.285Zm.366,2.161-1.051-1.71c-.033-.054-.031-.062-.07,0L15.7,16.877a.43.43,0,0,1-.264.2l-1.939.467c-.068.023-.082.008-.025.076l1.28,1.5a.412.412,0,0,1,.112.313l-.157,2.008c0,.05,0,.059.048.037l1.863-.769a.413.413,0,0,1,.31,0l1.848.763c.07.026.068.037.062-.045l-.153-1.972a.412.412,0,0,1,.1-.318L20.089,17.6c.033-.039.033-.043-.019-.056l-1.927-.465a.407.407,0,0,1-.284-.189ZM2.934,23.67a.41.41,0,1,1,.82,0V24.9A2.284,2.284,0,0,0,6.03,27.18H27.517A2.281,2.281,0,0,0,29.793,24.9V14.392a.41.41,0,1,1,.82,0V24.9a3.1,3.1,0,0,1-3.1,3.1H6.03a3.1,3.1,0,0,1-3.1-3.1Z" fill="#333"/>
  </g>
</svg>
