<svg xmlns="http://www.w3.org/2000/svg" width="27.863" height="30.391" viewBox="0 0 27.863 30.391">
  <g id="Out_line" data-name="Out line" transform="translate(-40 -16)">
    <path id="Path_386" data-name="Path 386" d="M61.78,20.558h2.09a2.028,2.028,0,1,0,.524-1.932l-4.385-2.558a.506.506,0,0,0-.626.093l-5.747,6.189-.417-.079a1.549,1.549,0,1,0-.58,3.043l.27.051q-.007.039-.012.079l-.831,2.77a1.52,1.52,0,1,0,.709,2.482l.476.317.452,1.355a.5.5,0,0,0,.1.174l-2.86,1.226a.507.507,0,0,0-.262.256l-2.315,5.093-1.193-.6.269-1.075a1.527,1.527,0,0,0-.4-1.443l-.467-.467a1.514,1.514,0,0,0-1.512-.381V29.59a3.247,3.247,0,0,0,1.294-.506.506.506,0,0,0,.172-.648l-.749-1.5a5.526,5.526,0,0,0,3.335-5.367C49.117,18.5,47.072,16,44.559,16S40,18.5,40,21.571a5.526,5.526,0,0,0,3.335,5.367l-.749,1.5a.506.506,0,0,0,.172.648,3.247,3.247,0,0,0,1.294.507v5.848A1.519,1.519,0,0,0,42,35.894l-.9,1.354a1.517,1.517,0,0,0,.292,2.01l.385.321h0l1.955,1.629a.507.507,0,0,0,.324.117v2.533h1.013V41.437L49.84,44.78a.506.506,0,0,0,.744-.188l2.08-4.159v5.959h1.013v-8.1a.507.507,0,0,0-.96-.227L49.94,43.613l-3.066-2.146.906-1.51.6.3a.507.507,0,0,0,.688-.243l2.451-5.393,2.153-.923v1.547a1.522,1.522,0,0,0,1.013,1.432V43.1a1.509,1.509,0,0,0,0,.813v2.477H55.7v-.621a1.537,1.537,0,0,0,1.025.395,1.5,1.5,0,0,0,.475-.077l2.205-.735A.507.507,0,0,0,59.7,45.1l.393-.787.673-.122v2.2H61.78V44l1.013-.184v2.57h1.013V43.636l1.61-.293a.507.507,0,0,0,.412-.436l1.013-8.1a.507.507,0,0,0-.3-.526l-3.914-1.74a1.521,1.521,0,0,0-1.357-.837h-.56l-.338-3.044a1.521,1.521,0,0,0,1.4-1.515v-.189a1.549,1.549,0,0,0,.024-3.048l-.024,0ZM41.013,21.571c0-2.514,1.591-4.559,3.546-4.559S48.1,19.058,48.1,21.571s-1.591,4.559-3.546,4.559S41.013,24.085,41.013,21.571Zm3.355,5.566c.063,0,.127.005.191.005s.128,0,.191-.005l.656,1.312a2.224,2.224,0,0,1-1.694,0ZM41.939,37.81l.9-1.354a.506.506,0,0,1,.741-.112l.391.318a.5.5,0,0,1,.1.674l-.909,1.357a.507.507,0,0,1-.745.107l-.385-.321a.506.506,0,0,1-.1-.67Zm1.582,1.908a1.519,1.519,0,0,0,.487-.46l.044-.065v.968Zm2.52,1.167-.686-.48a.506.506,0,0,0-.29-.092V39.3l.358-.358L45,38.515a.508.508,0,0,1-.063-.64h0a1.51,1.51,0,0,0,.074-1.512l.176-.143a.505.505,0,0,1,.678.034l.467.467a.509.509,0,0,1,.133.481l-.367,1.47a.506.506,0,0,0,.265.576l.513.257Zm19.79-21.846a1.013,1.013,0,1,1-1.013,1.013A1.013,1.013,0,0,1,65.832,19.039Zm-5.983-1.891.39.228a.506.506,0,0,1-.941.365Zm-3.134,3.41a.507.507,0,1,1-.506.51l.472-.508Zm-1.273,1.336a1.519,1.519,0,1,0,2.005-2.16L58.6,18.5a1.517,1.517,0,0,0,2.618-.555l2.67,1.558c0,.015-.009.029-.013.044H59.754a.507.507,0,1,0,0,1.013h1.013v1.1a1.52,1.52,0,0,0-2.008,1.668l-3.949-.752Zm4.818,1.7a.507.507,0,1,1,.507-.507.507.507,0,0,1-.507.507ZM51.65,30.182a.507.507,0,1,1,.507-.507A.507.507,0,0,1,51.65,30.182Zm1.518-.441c0-.022,0-.044,0-.066a1.51,1.51,0,0,0-.239-.817l.6-1.994a1.505,1.505,0,0,0,.878.278h1.3a1.521,1.521,0,0,0,1.52,1.52A1.518,1.518,0,0,0,59.5,29.976l.227,2.046-.125.125-.005.005a1.917,1.917,0,0,1-1.259.563h-.212a1.916,1.916,0,0,1-1.2-.508l.654-.654a.507.507,0,1,0-.716-.716L56,31.7H54.548l-.391-1.173a.506.506,0,0,0-.2-.261Zm7.6,11.018-.96.48L58.418,40.2a1.514,1.514,0,0,0-1.28-.259l-.164.041A1.519,1.519,0,0,0,55.923,42l-.157.041-.065.019v-5.29h.087a1.51,1.51,0,0,0,1.074-.445l.568-.568h1.606l.568.568a1.51,1.51,0,0,0,1.074.445h.087Zm-6.078-6.018H55.7V33.728H54.689v-.507a.507.507,0,0,1,.507-.507h.593a.5.5,0,0,1,.358.148l.568.568v1.606l-.568.568a.5.5,0,0,1-.358.148H55.2a.507.507,0,0,1-.507-.507Zm3.546-1.01c.043,0,.085,0,.127,0h.379v1.013H57.728V33.728h.379c.042,0,.085,0,.127,0Zm1.429,9.629a.507.507,0,0,0-.362.272l-.413.825-2.006.669a.509.509,0,0,1-.613-.254L55.7,43.738v-.46a.5.5,0,0,1,.322-.261l.8-.211h0l.521-.137a.507.507,0,1,0-.257-.98l-.172.045h0a.506.506,0,0,1,.3-.772l.164-.041a.5.5,0,0,1,.427.086l1.64,1.23a.506.506,0,0,0,.53.048l.045-.023.249.986Zm5.206-.946-3.6.654L60.953,41.8l2.066-1.033a.506.506,0,0,0,.28-.453V37.78H62.287V40l-.507.253V36.68a1.522,1.522,0,0,0,1.013-1.432V33.719l3,1.332ZM61.78,33.221v.507H60.767v1.013H61.78v.507a.507.507,0,0,1-.507.507H60.68a.5.5,0,0,1-.358-.148l-.568-.568V33.431l.563-.563.005-.005a.5.5,0,0,1,.358-.148h.593a.507.507,0,0,1,.507.507Zm-1.52-5.572h-.507a.507.507,0,0,0-.507.507v.507a.507.507,0,0,1-1.013,0v-.507a.507.507,0,0,0-.507-.507h-.507a.507.507,0,0,1-.507-.507v-.507a.507.507,0,0,0-.507-.507h-1.8a.506.506,0,0,1-.506-.5l.021-.069,6.847,1.3v.28A.507.507,0,0,1,60.261,27.65Zm1.705-2.51a.531.531,0,0,1,.068.419.536.536,0,0,1-.62.4h0l-8.585-1.635a.536.536,0,1,1,.2-1.053L61.615,24.9a.531.531,0,0,1,.351.238Z" transform="translate(0 0)" fill="#333"/>
    <path id="Path_387" data-name="Path 387" d="M257.013,201.013a.507.507,0,0,0,0-1.013h-.507a.507.507,0,1,0,0,1.013Z" transform="translate(-202.324 -172.35)" fill="#333"/>
    <path id="Path_388" data-name="Path 388" d="M91,48a2.035,2.035,0,0,0-1.42.629l.706.726A1.076,1.076,0,0,1,91,49.013Z" transform="translate(-46.436 -29.974)" fill="#333"/>
    <path id="Path_389" data-name="Path 389" d="M73.269,77.189l-.938-.383A4.6,4.6,0,0,0,72,78.528a4.476,4.476,0,0,0,.574,2.216l.876-.508a3.45,3.45,0,0,1-.438-1.708A3.576,3.576,0,0,1,73.269,77.189Z" transform="translate(-29.973 -56.957)" fill="#333"/>
  </g>
</svg>
