<svg xmlns="http://www.w3.org/2000/svg" width="18.845" height="18.884" viewBox="0 0 18.845 18.884">
  <g id="phone-call" transform="translate(-0.539)">
    <g id="Group_194" data-name="Group 194" transform="translate(0.539 0)">
      <path id="Path_169" data-name="Path 169" d="M18.89,13.859l-2.635-2.635a1.753,1.753,0,0,0-2.918.659,1.793,1.793,0,0,1-2.071,1.129A8.127,8.127,0,0,1,6.372,8.118,1.706,1.706,0,0,1,7.5,6.047,1.753,1.753,0,0,0,8.16,3.13L5.525.494a1.88,1.88,0,0,0-2.541,0L1.2,2.282c-1.788,1.882.188,6.871,4.612,11.294s9.412,6.494,11.294,4.612L18.89,16.4A1.88,1.88,0,0,0,18.89,13.859Z" transform="translate(-0.539 0)" fill="#ababab"/>
    </g>
  </g>
</svg>
