<svg id="pinterest" xmlns="http://www.w3.org/2000/svg" width="17.982" height="22.133" viewBox="0 0 17.982 22.133">
  <g id="Group_126" data-name="Group 126" transform="translate(0)">
    <path id="Path_141" data-name="Path 141" d="M57.3,0C51.23,0,48,3.887,48,8.126c0,1.966,1.1,4.417,2.857,5.194.267.12.412.069.472-.178.053-.188.284-1.094.4-1.522a.391.391,0,0,0-.094-.385,5.04,5.04,0,0,1-1.047-3.059c0-2.956,2.35-5.827,6.35-5.827,3.458,0,5.878,2.247,5.878,5.46,0,3.631-1.921,6.143-4.418,6.143a1.978,1.978,0,0,1-2.085-2.426c.394-1.6,1.168-3.316,1.168-4.468A1.716,1.716,0,0,0,55.7,5.171c-1.407,0-2.548,1.393-2.548,3.263a4.653,4.653,0,0,0,.421,1.991s-1.392,5.622-1.65,6.672a14.929,14.929,0,0,0,.1,4.9.146.146,0,0,0,.266.068,17.429,17.429,0,0,0,2.291-4.315c.172-.632.876-3.2.876-3.2A3.824,3.824,0,0,0,58.685,16.1c4.239,0,7.3-3.725,7.3-8.349C65.971,3.316,62.178,0,57.3,0Z" transform="translate(-48.004)" fill="#fff"/>
  </g>
</svg>
