<svg xmlns="http://www.w3.org/2000/svg" width="63.47" height="30.325" viewBox="0 0 63.47 30.325">
  <g id="review" transform="translate(0.001 -133.827)">
    <path id="Path_63" data-name="Path 63" d="M157.671,155.189a1.455,1.455,0,0,1,.282-1.564l4.36-4.622a3.312,3.312,0,0,0-1.616-5.488l-6.284-1.551a1.446,1.446,0,0,1-.976-.812L151,135.772a3.312,3.312,0,0,0-6.033,0l-2.439,5.381a1.446,1.446,0,0,1-.976.812l-6.284,1.551A3.312,3.312,0,0,0,133.651,149l4.36,4.622a1.455,1.455,0,0,1,.282,1.564l-1.839,4.356a3.321,3.321,0,0,0,3.031,4.607,3.364,3.364,0,0,0,1.195-.222l.658-.249a.929.929,0,0,0-.659-1.737l-.658.25a1.454,1.454,0,0,1-1.856-1.925L140,155.911a3.313,3.313,0,0,0-.642-3.561L135,147.728a1.454,1.454,0,0,1,.709-2.41L142,143.768a3.293,3.293,0,0,0,2.223-1.848l2.439-5.381a1.454,1.454,0,0,1,2.649,0l2.439,5.381a3.293,3.293,0,0,0,2.223,1.848l6.284,1.551a1.454,1.454,0,0,1,.709,2.41l-4.36,4.622a3.313,3.313,0,0,0-.642,3.561l1.839,4.356a1.454,1.454,0,0,1-1.855,1.925l-6.787-2.575a3.31,3.31,0,0,0-2.349,0l-2.42.918a.929.929,0,0,0,.659,1.737l2.419-.918a1.452,1.452,0,0,1,1.032,0l6.787,2.575a3.312,3.312,0,0,0,4.226-4.385Z" transform="translate(-116.307)" fill="#333"/>
    <path id="Path_64" data-name="Path 64" d="M16.144,231.048l-3.516-.867a.4.4,0,0,1-.271-.226l-1.364-3.01a2.262,2.262,0,0,0-4.12,0l-1.364,3.01a.4.4,0,0,1-.271.226l-3.516.867a2.262,2.262,0,0,0-1.1,3.748l2.439,2.586a.4.4,0,0,1,.078.435l-1.029,2.437a2.268,2.268,0,0,0,2.07,3.146,2.3,2.3,0,0,0,.816-.152l3.8-1.44h0a.4.4,0,0,1,.287,0l3.8,1.44a2.262,2.262,0,0,0,2.886-2.995l-1.029-2.437a.4.4,0,0,1,.078-.435l2.439-2.586a2.262,2.262,0,0,0-1.1-3.748Zm-.248,2.473-2.439,2.586a2.263,2.263,0,0,0-.438,2.432l1.029,2.437a.4.4,0,0,1-.516.535l-3.8-1.44a2.26,2.26,0,0,0-1.6,0h0l-3.8,1.44a.4.4,0,0,1-.516-.535l1.029-2.437a2.263,2.263,0,0,0-.438-2.432l-2.439-2.586a.4.4,0,0,1,.2-.67l3.516-.867A2.249,2.249,0,0,0,7.2,230.721l1.364-3.01a.4.4,0,0,1,.737,0l1.364,3.01a2.248,2.248,0,0,0,1.518,1.262l3.516.867a.4.4,0,0,1,.2.67Z" transform="translate(0 -80.422)" fill="#333"/>
    <path id="Path_65" data-name="Path 65" d="M385.543,234.8a2.27,2.27,0,0,0,.01-3.093.929.929,0,0,0-1.362,1.264.4.4,0,0,1,0,.555l-2.439,2.586a2.263,2.263,0,0,0-.439,2.432l1.029,2.437a.4.4,0,0,1-.516.535l-3.8-1.441a2.261,2.261,0,0,0-1.6,0l-3.8,1.441a.4.4,0,0,1-.516-.535l1.029-2.437a2.263,2.263,0,0,0-.438-2.432l-2.439-2.586a.4.4,0,0,1,.2-.67l3.515-.867a2.249,2.249,0,0,0,1.519-1.262l1.364-3.01a.4.4,0,0,1,.737,0l1.364,3.01a2.248,2.248,0,0,0,1.518,1.262l.283.07a.929.929,0,0,0,.446-1.8l-.283-.07a.4.4,0,0,1-.271-.226l-1.364-3.01a2.237,2.237,0,0,0-2.06-1.328h0a2.237,2.237,0,0,0-2.06,1.328l-1.364,3.01a.4.4,0,0,1-.271.226l-3.516.868a2.262,2.262,0,0,0-1.1,3.748l2.439,2.586a.4.4,0,0,1,.078.435l-1.029,2.437a2.262,2.262,0,0,0,2.886,2.995l3.8-1.441a.4.4,0,0,1,.287,0l3.8,1.441a2.3,2.3,0,0,0,.816.152,2.268,2.268,0,0,0,2.07-3.146l-1.029-2.437a.4.4,0,0,1,.079-.435Z" transform="translate(-322.687 -80.422)" fill="#333"/>
  </g>
</svg>
