<svg xmlns="http://www.w3.org/2000/svg" width="20.625" height="22" viewBox="0 0 20.625 22">
  <g id="share" transform="translate(-16)">
    <g id="Group_281" data-name="Group 281" transform="translate(16)">
      <path id="Path_263" data-name="Path 263" d="M32.758,14.266a3.864,3.864,0,0,0-3.11,1.571l-6.07-3.1a3.867,3.867,0,0,0-.126-2.541l6.362-3.822a3.851,3.851,0,1,0-.662-1.106L22.774,9.1a3.867,3.867,0,1,0,.237,4.8l6.053,3.093a3.867,3.867,0,1,0,3.694-2.721Zm0-12.977A2.578,2.578,0,1,1,30.18,3.867,2.581,2.581,0,0,1,32.758,1.289ZM19.867,14.223a2.578,2.578,0,1,1,2.578-2.578A2.581,2.581,0,0,1,19.867,14.223Zm12.891,6.488a2.578,2.578,0,1,1,2.578-2.578A2.581,2.581,0,0,1,32.758,20.711Z" transform="translate(-16)" fill="#ed1e7f"/>
    </g>
  </g>
</svg>
