<svg xmlns="http://www.w3.org/2000/svg" width="30.382" height="32.372" viewBox="0 0 30.382 32.372">
  <g id="social-media_1_" data-name="social-media (1)" transform="translate(-15.486)">
    <path id="Path_246" data-name="Path 246" d="M42.558,0H41.166a.475.475,0,0,0,0,.949h1.392a2.605,2.605,0,0,1,2.607,2.6V14.522a2.6,2.6,0,0,1-2.607,2.6H40.979a.474.474,0,0,0-.288.1l-2.9,2.216V17.593a.474.474,0,0,0-.474-.474H31.548a2.594,2.594,0,0,1-1.328-.362V11.433a2.894,2.894,0,0,0-1.279-2.4V3.546a2.605,2.605,0,0,1,2.607-2.6h6.646a.475.475,0,0,0,0-.949H31.548a3.555,3.555,0,0,0-3.555,3.546V8.617a2.908,2.908,0,0,0-.676-.08H18.635a2.9,2.9,0,0,0-2.9,2.9v1.024a.475.475,0,0,0,.949,0V11.433a1.954,1.954,0,0,1,1.955-1.948h8.682a1.954,1.954,0,0,1,1.955,1.948v5.513a.475.475,0,0,0,0,.126v3.017c0,.06,0,.119-.009.178h-.978a2.2,2.2,0,0,0-2.162,1.8.475.475,0,0,0-.123.069l-2.121,1.638V22.511a.474.474,0,0,0-.474-.474H18.635a1.954,1.954,0,0,1-1.955-1.948V15.3a.475.475,0,0,0-.949,0v4.786a2.9,2.9,0,0,0,2.9,2.9h4.3v1.753a.481.481,0,0,0,.764.375l2.392-1.847V28.6a2.2,2.2,0,0,0,2.2,2.193H31.2V31.9a.481.481,0,0,0,.764.375l1.92-1.482h.567a2.2,2.2,0,0,0,2.2-2.193V27.76a.475.475,0,0,0-.949,0V28.6a1.249,1.249,0,0,1-1.25,1.245h-.729a.474.474,0,0,0-.29.1l-1.284.991v-.616a.474.474,0,0,0-.474-.474H28.285a1.249,1.249,0,0,1-1.25-1.245V22.46a1.249,1.249,0,0,1,1.25-1.245h6.161A1.249,1.249,0,0,1,35.7,22.46v2.328a.475.475,0,0,0,.949,0V22.46a2.2,2.2,0,0,0-2.2-2.193H30.215c0-.059.005-2.455.005-2.455a3.55,3.55,0,0,0,1.328.256h5.3v2.325a.481.481,0,0,0,.762.377l3.531-2.7h1.418a3.555,3.555,0,0,0,3.555-3.546V3.546A3.555,3.555,0,0,0,42.558,0Z" transform="translate(-0.245)" fill="#ababab"/>
    <rect id="Rectangle_135" data-name="Rectangle 135" width="14" height="13" rx="3" transform="translate(15.566 9.222)" fill="#ababab"/>
    <rect id="Rectangle_137" data-name="Rectangle 137" width="10" height="10" rx="2" transform="translate(26.566 20.222)" fill="#ababab"/>
    <rect id="Rectangle_138" data-name="Rectangle 138" width="2" height="2" rx="1" transform="translate(31.566 29.222)" fill="#ababab"/>
    <rect id="Rectangle_139" data-name="Rectangle 139" width="2.593" height="1.771" transform="translate(22.9 22.303) rotate(-22)" fill="#ababab"/>
    <rect id="Rectangle_140" data-name="Rectangle 140" width="3.668" height="2.96" transform="matrix(0.809, -0.588, 0.588, 0.809, 35.999, 17.317)" fill="#ababab"/>
    <rect id="Rectangle_136" data-name="Rectangle 136" width="17" height="17" rx="3" transform="translate(28.566 0.222)" fill="#ababab"/>
    <path id="Path_247" data-name="Path 247" d="M273.261,54.585a.988.988,0,0,0-1.216.944,2.786,2.786,0,0,1-.7,1.844l-1.307,1.479a.473.473,0,0,0-.4-.216h-2.551a.474.474,0,0,0-.474.474v5.74a.474.474,0,0,0,.474.474h2.551a.474.474,0,0,0,.431-.277,3.314,3.314,0,0,0,1.724.486h4.508a1.241,1.241,0,0,0,1.225-1.285c-.014-.3,0-4.39,0-4.481a1.227,1.227,0,0,0-1.225-1.226l-2.344-.007.1-.23a3.7,3.7,0,0,0-.2-3.259.966.966,0,0,0-.6-.461Zm-4.091,9.791h-1.6V59.585h1.6Zm7.137-4.886a.278.278,0,0,1,.278.278c0,.09,0,.335,0,.667-.007,1.833-.012,3.57,0,3.858a.278.278,0,0,1-.277.292H271.8a2.361,2.361,0,0,1-1.481-.524l-.2-.162V60.2l1.941-2.2a3.734,3.734,0,0,0,.935-2.472.026.026,0,0,1,.049-.013,2.749,2.749,0,0,1,.145,2.419l-.374.886a.474.474,0,0,0,.435.659Z" transform="translate(-235.268 -51.081)" fill="#fff"/>
    <path id="Path_248" data-name="Path 248" d="M72.925,197.735a.474.474,0,1,0,0,.949h1.4l-.261,1.58a.474.474,0,1,0,.936.155l.287-1.734h1.144l-.261,1.58a.474.474,0,1,0,.936.155l.287-1.734h1.9a.474.474,0,1,0,0-.949H77.547l.191-1.157h1.555a.474.474,0,1,0,0-.949h-1.4l.261-1.58a.474.474,0,1,0-.936-.155l-.287,1.734H75.79l.261-1.58a.474.474,0,0,0-.936-.155l-.287,1.734h-1.9a.474.474,0,1,0,0,.949h1.746l-.191,1.157Zm2.708-1.157h1.144l-.191,1.157H75.441Z" transform="translate(-53.378 -181.263)" fill="#fff"/>
    <path id="Path_249" data-name="Path 249" d="M222.606,368.82a1.6,1.6,0,0,0-1.4-.315,1.764,1.764,0,0,0-1.316,1.78,2.328,2.328,0,0,0,.7,1.667,6.956,6.956,0,0,0,1.8,1.243.474.474,0,0,0,.444,0c1.5-.8,2.5-1.6,2.5-2.91a1.753,1.753,0,0,0-1.363-1.771A1.59,1.59,0,0,0,222.606,368.82Zm1.782,1.465c0,.709-.47,1.233-1.776,1.952-1.306-.719-1.777-1.243-1.777-1.952a.811.811,0,0,1,.591-.859.71.71,0,0,1,.167-.02.655.655,0,0,1,.6.382.474.474,0,0,0,.851-.017.616.616,0,0,1,.727-.331A.8.8,0,0,1,224.388,370.285Z" transform="translate(-191.491 -345.157)" fill="#fff"/>
  </g>
</svg>
